G04*
G04 #@! TF.GenerationSoftware,Altium Limited,Altium Designer,18.0.7 (293)*
G04*
G04 Layer_Color=16711935*
%FSLAX25Y25*%
%MOIN*%
G70*
G01*
G75*
%ADD10R,0.04331X0.05894*%
%ADD11R,0.04737X0.06300*%
%ADD12O,0.03162X0.07887*%
%ADD13R,0.03162X0.08674*%
%ADD14R,0.07300X0.05800*%
%ADD15R,0.05894X0.04331*%
%ADD16R,0.03162X0.06902*%
%ADD17R,0.09855X0.08800*%
G04:AMPARAMS|DCode=18|XSize=47.37mil|YSize=86.74mil|CornerRadius=8.92mil|HoleSize=0mil|Usage=FLASHONLY|Rotation=270.000|XOffset=0mil|YOffset=0mil|HoleType=Round|Shape=RoundedRectangle|*
%AMROUNDEDRECTD18*
21,1,0.04737,0.06890,0,0,270.0*
21,1,0.02953,0.08674,0,0,270.0*
1,1,0.01784,-0.03445,-0.01476*
1,1,0.01784,-0.03445,0.01476*
1,1,0.01784,0.03445,0.01476*
1,1,0.01784,0.03445,-0.01476*
%
%ADD18ROUNDEDRECTD18*%
G04:AMPARAMS|DCode=19|XSize=224.53mil|YSize=232.41mil|CornerRadius=31.07mil|HoleSize=0mil|Usage=FLASHONLY|Rotation=270.000|XOffset=0mil|YOffset=0mil|HoleType=Round|Shape=RoundedRectangle|*
%AMROUNDEDRECTD19*
21,1,0.22453,0.17028,0,0,270.0*
21,1,0.16240,0.23241,0,0,270.0*
1,1,0.06213,-0.08514,-0.08120*
1,1,0.06213,-0.08514,0.08120*
1,1,0.06213,0.08514,0.08120*
1,1,0.06213,0.08514,-0.08120*
%
%ADD19ROUNDEDRECTD19*%
%ADD20R,0.26391X0.22650*%
%ADD21R,0.12020X0.04737*%
%ADD22R,0.04331X0.04331*%
%ADD23R,0.08800X0.09855*%
%ADD24R,0.06300X0.04737*%
%ADD25O,0.10642X0.06942*%
%ADD26R,0.10642X0.06942*%
%ADD27R,0.07800X0.10800*%
%ADD28O,0.07800X0.10800*%
%ADD29C,0.08300*%
%ADD30O,0.05524X0.07887*%
%ADD31C,0.10642*%
%ADD32R,0.10642X0.10642*%
%ADD33C,0.07800*%
%ADD34R,0.10800X0.07800*%
%ADD35O,0.10800X0.07800*%
%ADD36R,0.08300X0.09800*%
%ADD37O,0.08300X0.09800*%
%ADD38C,0.14580*%
%ADD39R,0.06942X0.10642*%
%ADD40O,0.06942X0.10642*%
%ADD41O,0.09461X0.12611*%
%ADD42R,0.06800X0.09800*%
%ADD43O,0.06800X0.09800*%
%ADD44O,0.06942X0.10642*%
%ADD45R,0.06942X0.10642*%
%ADD46C,0.24422*%
D10*
X-264504Y2146D02*
D03*
X-255504D02*
D03*
X-301004Y35729D02*
D03*
X-292004D02*
D03*
X-301004Y-32169D02*
D03*
X-292004D02*
D03*
X-336004Y2146D02*
D03*
X-327004D02*
D03*
X-119321Y-92027D02*
D03*
X-110321D02*
D03*
X-89140Y-82184D02*
D03*
X-98140D02*
D03*
X-96183Y5021D02*
D03*
X-87183D02*
D03*
X-151301D02*
D03*
X-142301D02*
D03*
X-135632Y-84940D02*
D03*
X-126632D02*
D03*
X-73073Y-223305D02*
D03*
X-64073D02*
D03*
X-64073Y-230392D02*
D03*
X-73073D02*
D03*
X-73073Y-289603D02*
D03*
X-64073D02*
D03*
X-64073Y-296690D02*
D03*
X-73073D02*
D03*
X-367941Y-214210D02*
D03*
X-376941D02*
D03*
X-367941Y-229958D02*
D03*
X-376941D02*
D03*
X-367941Y-245706D02*
D03*
X-376941D02*
D03*
X-123900Y-267939D02*
D03*
X-114900D02*
D03*
X-96742D02*
D03*
X-87742D02*
D03*
X-123900Y-215892D02*
D03*
X-114900D02*
D03*
X-96742D02*
D03*
X-87742D02*
D03*
D11*
X-98140Y-75098D02*
D03*
X-89140D02*
D03*
X-9000Y0D02*
D03*
X0D02*
D03*
X-126632Y-92027D02*
D03*
X-135632D02*
D03*
X-388433Y-59011D02*
D03*
X-379433D02*
D03*
X-9000Y7087D02*
D03*
X0D02*
D03*
D12*
X-114321Y-128641D02*
D03*
X-119321D02*
D03*
X-124321D02*
D03*
X-129321D02*
D03*
X-114321Y-106397D02*
D03*
X-119321D02*
D03*
X-124321D02*
D03*
X-129321D02*
D03*
D13*
X-98140Y-128641D02*
D03*
X-93140D02*
D03*
X-88140D02*
D03*
X-83140D02*
D03*
X-78140D02*
D03*
X-73140D02*
D03*
X-68140D02*
D03*
X-63140D02*
D03*
X-58140D02*
D03*
X-53140D02*
D03*
X-48140D02*
D03*
X-43140D02*
D03*
Y-92027D02*
D03*
X-48140D02*
D03*
X-53140D02*
D03*
X-58140D02*
D03*
X-63140D02*
D03*
X-68140D02*
D03*
X-73140D02*
D03*
X-78140D02*
D03*
X-83140D02*
D03*
X-88140D02*
D03*
X-93140D02*
D03*
X-98140D02*
D03*
D14*
X-81683Y-55105D02*
D03*
Y-42105D02*
D03*
X-382132Y-169838D02*
D03*
Y-182838D02*
D03*
D15*
X-148072Y-38105D02*
D03*
Y-47106D02*
D03*
D16*
X-91683Y15847D02*
D03*
X-86683D02*
D03*
X-56683Y37107D02*
D03*
Y15847D02*
D03*
X-61683D02*
D03*
X-66683D02*
D03*
X-71683D02*
D03*
X-76683D02*
D03*
X-81683D02*
D03*
X-61683Y37107D02*
D03*
X-66683D02*
D03*
X-71683D02*
D03*
X-76683D02*
D03*
X-81683D02*
D03*
X-86683D02*
D03*
X-91683D02*
D03*
X-146801Y15847D02*
D03*
X-141801D02*
D03*
X-111801Y37107D02*
D03*
Y15847D02*
D03*
X-116801D02*
D03*
X-121801D02*
D03*
X-126801D02*
D03*
X-131801D02*
D03*
X-136801D02*
D03*
X-116801Y37107D02*
D03*
X-121801D02*
D03*
X-126801D02*
D03*
X-131801D02*
D03*
X-136801D02*
D03*
X-141801D02*
D03*
X-146801D02*
D03*
X-99858Y-321317D02*
D03*
X-104858D02*
D03*
X-109858D02*
D03*
X-114858D02*
D03*
X-119858D02*
D03*
X-124858D02*
D03*
X-129858D02*
D03*
X-99858Y-300057D02*
D03*
X-104858D02*
D03*
X-109858D02*
D03*
X-114858D02*
D03*
X-119858D02*
D03*
X-124858D02*
D03*
X-129858D02*
D03*
D17*
X-5574Y-230465D02*
D03*
Y-212465D02*
D03*
Y-296763D02*
D03*
Y-278763D02*
D03*
D18*
X-144779Y-282065D02*
D03*
X-144779Y-300057D02*
D03*
D19*
X-173912Y-291061D02*
D03*
D20*
X-28416Y-287713D02*
D03*
Y-221415D02*
D03*
D21*
X-53809Y-278737D02*
D03*
Y-296690D02*
D03*
Y-212439D02*
D03*
Y-230392D02*
D03*
D22*
X-383268Y-245706D02*
D03*
X-391142D02*
D03*
X-383268Y-214210D02*
D03*
X-391142D02*
D03*
X-383268Y-229958D02*
D03*
X-391142D02*
D03*
D23*
X-388433Y-69838D02*
D03*
X-370432D02*
D03*
X-293526Y-354913D02*
D03*
X-275526D02*
D03*
X-293526Y-334513D02*
D03*
X-275526D02*
D03*
D24*
X-144779Y-321317D02*
D03*
Y-312317D02*
D03*
X-137692Y-321317D02*
D03*
Y-312317D02*
D03*
D25*
X9280Y-106338D02*
D03*
Y-126338D02*
D03*
Y-156338D02*
D03*
Y-146338D02*
D03*
Y-136338D02*
D03*
Y-116338D02*
D03*
Y0D02*
D03*
Y-20000D02*
D03*
Y-50000D02*
D03*
Y-40000D02*
D03*
Y-30000D02*
D03*
Y-10000D02*
D03*
D26*
Y-166338D02*
D03*
Y-60000D02*
D03*
D27*
X-166412Y-319742D02*
D03*
X-146801Y-5806D02*
D03*
X-91683D02*
D03*
X-36742Y35729D02*
D03*
X-359748Y-154090D02*
D03*
D28*
X-181412Y-319742D02*
D03*
X-136801Y-5806D02*
D03*
X-81683D02*
D03*
X-26742Y35729D02*
D03*
X-369747Y-154090D02*
D03*
D29*
X-286504Y23229D02*
D03*
X-306504Y48229D02*
D03*
X-286504D02*
D03*
X-306504Y23229D02*
D03*
X-286504Y-44669D02*
D03*
X-306504Y-19669D02*
D03*
X-286504D02*
D03*
X-306504Y-44669D02*
D03*
X-321504Y-10354D02*
D03*
X-341504Y14646D02*
D03*
X-321504D02*
D03*
X-341504Y-10354D02*
D03*
X-250004D02*
D03*
X-270004Y14646D02*
D03*
X-250004D02*
D03*
X-270004Y-10354D02*
D03*
D30*
X-369740Y-38598D02*
D03*
X-359897D02*
D03*
D31*
X-23396Y-169389D02*
D03*
X-180089D02*
D03*
X5836Y-276887D02*
D03*
Y-210589D02*
D03*
X-380999Y-293978D02*
D03*
D32*
X5836Y-296886D02*
D03*
Y-230589D02*
D03*
X-380999Y-313978D02*
D03*
D33*
X-374671Y-196206D02*
D03*
X-389671D02*
D03*
X-131801Y-21554D02*
D03*
X-146801D02*
D03*
X-76683D02*
D03*
X-91683D02*
D03*
X-21742Y19981D02*
D03*
X-36742D02*
D03*
X-192266Y-196206D02*
D03*
Y-211206D02*
D03*
X-359748Y-138342D02*
D03*
X-374747D02*
D03*
D34*
X-317753Y-288934D02*
D03*
X-348541D02*
D03*
X-286964D02*
D03*
D35*
X-317753Y-303934D02*
D03*
X-348541D02*
D03*
X-286964D02*
D03*
D36*
X-360891Y-196206D02*
D03*
D37*
Y-263710D02*
D03*
X-205395D02*
D03*
Y-196206D02*
D03*
D38*
X-342143Y-198458D02*
D03*
X-224143Y-261458D02*
D03*
D39*
X-219747Y-69838D02*
D03*
D40*
X-229748D02*
D03*
X-239748D02*
D03*
X-249747D02*
D03*
X-259748D02*
D03*
X-269747D02*
D03*
X-279748D02*
D03*
X-289748D02*
D03*
X-299747D02*
D03*
X-309748D02*
D03*
X-319747D02*
D03*
X-329748D02*
D03*
X-339748D02*
D03*
X-349747D02*
D03*
X-359748D02*
D03*
X-219747Y-169838D02*
D03*
X-229748D02*
D03*
X-239748D02*
D03*
X-249747D02*
D03*
X-259748D02*
D03*
X-269747D02*
D03*
X-279748D02*
D03*
X-289748D02*
D03*
X-299747D02*
D03*
X-309748D02*
D03*
X-319747D02*
D03*
X-329748D02*
D03*
X-339748D02*
D03*
X-349747D02*
D03*
X-359748D02*
D03*
D41*
X-262463Y-344713D02*
D03*
X-242463D02*
D03*
X-306489D02*
D03*
X-326489D02*
D03*
D42*
X-96742Y-228687D02*
D03*
X-123900D02*
D03*
D43*
X-106742D02*
D03*
Y-258687D02*
D03*
X-96742D02*
D03*
X-133900Y-228687D02*
D03*
Y-258687D02*
D03*
X-123900D02*
D03*
D44*
X-136742Y55414D02*
D03*
X-116742D02*
D03*
X-96742D02*
D03*
X-76742D02*
D03*
X-56742D02*
D03*
X-46742D02*
D03*
X-36742D02*
D03*
X-66742D02*
D03*
X-86742D02*
D03*
X-106742D02*
D03*
X-126742D02*
D03*
X-146742D02*
D03*
X-156742D02*
D03*
X-176742D02*
D03*
X-166742D02*
D03*
D45*
X-26742D02*
D03*
D46*
X-387182Y-345002D02*
D03*
X6519D02*
D03*
Y48699D02*
D03*
X-387182D02*
D03*
M02*
