M48
;Layer_Color=9474304
;FILE_FORMAT=2:5
INCH,LZ
;TYPE=PLATED
T1F00S00C0.03100
T2F00S00C0.03150
T3F00S00C0.03200
T4F00S00C0.03400
T5F00S00C0.04094
T6F00S00C0.04724
T7F00S00C0.07874
T8F00S00C0.11811
%
T01
X-0192266Y-0211206
Y-0196206
X-01339Y-0228687
X-01239
X-0106742
X-0096742
Y-0258687
X-0106742
X-01239
X-01339
X-0374671Y-0196206
X-0389671
X-0374747Y-0138342
X-0359748
X-0341504Y-0010354
X-0321504
X-0306504Y-0019669
X-0286504
Y-0044669
X-0306504
X-0270004Y-0010354
X-0250004
X-0146801Y-0021554
X-0131801
X-0091683
X-0076683
X-0036742Y0019981
X-0021742
X-0250004Y0014646
X-0270004
X-0286504Y0023229
X-0306504
X-0321504Y0014646
X-0341504
X-0306504Y0048229
X-0286504
T02
X-036974Y-0038598
X-0359897
T03
X-0181412Y-0319742
X-0166412
X-0286964Y-0303934
Y-0288934
X-0317753
Y-0303934
X-0348541
Y-0288934
X-0359748Y-015409
X-0369747
X-0146801Y-0005806
X-0136801
X-0091683
X-0081683
X-0036742Y0035729
X-0026742
T04
X000928Y-0166338
Y-0156338
X-0205395Y-0196206
Y-026371
X-0360891
Y-0196206
X000928Y-0146338
Y-0136338
Y-0126338
Y-0116338
Y-0106338
Y-006
Y-005
Y-004
Y-003
Y-002
Y-001
Y0
X-0026742Y0055414
X-0036742
X-0046742
X-0056742
X-0066742
X-0076742
X-0086742
X-0096742
X-0106742
X-0116742
X-0126742
X-0136742
X-0146742
X-0156742
X-0166742
X-0176742
T05
X-0349747Y-0169838
X-0339748
X-0329748
X-0319747
X-0309748
X-0299747
X-0289748
X-0279748
X-0269747
X-0259748
X-0249747
X-0239748
X-0229748
X-0219747
X-0359748
Y-0069838
X-0349747
X-0339748
X-0329748
X-0319747
X-0309748
X-0299747
X-0289748
X-0279748
X-0269747
X-0259748
X-0249747
X-0239748
X-0229748
X-0219747
T06
X-0380999Y-0313978
X-0326489Y-0344713
X-0306489
X-0262463
X-0242463
X0005836Y-0296886
Y-0276887
Y-0230589
Y-0210589
X-0380999Y-0293978
T07
X-0023396Y-0169389
X-0180089
T08
X-0387182Y-0345002
X0006519
X-0224143Y-0261458
X-0342143Y-0198458
X0006519Y0048699
X-0387182
M30
