G04*
G04 #@! TF.GenerationSoftware,Altium Limited,Altium Designer,18.0.7 (293)*
G04*
G04 Layer_Physical_Order=2*
G04 Layer_Color=16711680*
%FSLAX25Y25*%
%MOIN*%
G70*
G01*
G75*
%ADD10R,0.03937X0.05500*%
%ADD11O,0.02362X0.07087*%
%ADD12R,0.02362X0.07874*%
%ADD13R,0.06500X0.05000*%
%ADD14R,0.05500X0.03937*%
%ADD15R,0.02362X0.06102*%
%ADD16R,0.09055X0.08000*%
G04:AMPARAMS|DCode=17|XSize=39.37mil|YSize=78.74mil|CornerRadius=4.92mil|HoleSize=0mil|Usage=FLASHONLY|Rotation=270.000|XOffset=0mil|YOffset=0mil|HoleType=Round|Shape=RoundedRectangle|*
%AMROUNDEDRECTD17*
21,1,0.03937,0.06890,0,0,270.0*
21,1,0.02953,0.07874,0,0,270.0*
1,1,0.00984,-0.03445,-0.01476*
1,1,0.00984,-0.03445,0.01476*
1,1,0.00984,0.03445,0.01476*
1,1,0.00984,0.03445,-0.01476*
%
%ADD17ROUNDEDRECTD17*%
G04:AMPARAMS|DCode=18|XSize=216.54mil|YSize=224.41mil|CornerRadius=27.07mil|HoleSize=0mil|Usage=FLASHONLY|Rotation=270.000|XOffset=0mil|YOffset=0mil|HoleType=Round|Shape=RoundedRectangle|*
%AMROUNDEDRECTD18*
21,1,0.21654,0.17028,0,0,270.0*
21,1,0.16240,0.22441,0,0,270.0*
1,1,0.05413,-0.08514,-0.08120*
1,1,0.05413,-0.08514,0.08120*
1,1,0.05413,0.08514,0.08120*
1,1,0.05413,0.08514,-0.08120*
%
%ADD18ROUNDEDRECTD18*%
%ADD19R,0.25591X0.21850*%
%ADD20R,0.11221X0.03937*%
%ADD21R,0.03937X0.03937*%
%ADD22R,0.08000X0.09055*%
%ADD23C,0.02000*%
%ADD24C,0.03500*%
%ADD25C,0.06000*%
%ADD26C,0.05000*%
%ADD27C,0.03000*%
%ADD28C,0.04000*%
%ADD29O,0.09843X0.06142*%
%ADD30R,0.09843X0.06142*%
%ADD31R,0.07000X0.10000*%
%ADD32O,0.07000X0.10000*%
%ADD33C,0.07500*%
%ADD34O,0.04724X0.07087*%
%ADD35C,0.09843*%
%ADD36R,0.09843X0.09843*%
%ADD37C,0.07000*%
%ADD38R,0.10000X0.07000*%
%ADD39O,0.10000X0.07000*%
%ADD40R,0.07500X0.09000*%
%ADD41O,0.07500X0.09000*%
%ADD42C,0.13780*%
%ADD43R,0.06142X0.09843*%
%ADD44O,0.06142X0.09843*%
%ADD45O,0.08661X0.11811*%
%ADD46R,0.06000X0.09000*%
%ADD47O,0.06000X0.09000*%
%ADD48O,0.06142X0.09843*%
%ADD49R,0.06142X0.09843*%
%ADD50C,0.23622*%
G36*
X24675Y-363157D02*
X-405337D01*
X-405337Y66855D01*
X24675D01*
Y-363157D01*
D02*
G37*
%LPC*%
G36*
X-22671Y61336D02*
X-25742D01*
Y56414D01*
X-22671D01*
Y61336D01*
D02*
G37*
G36*
X-27742D02*
X-30813D01*
Y56414D01*
X-27742D01*
Y61336D01*
D02*
G37*
G36*
X7519Y61471D02*
Y49699D01*
X19291D01*
X19211Y50709D01*
X18741Y52670D01*
X17969Y54533D01*
X16915Y56252D01*
X15606Y57786D01*
X14073Y59095D01*
X12353Y60149D01*
X10490Y60921D01*
X8529Y61391D01*
X7519Y61471D01*
D02*
G37*
G36*
X5519D02*
X4509Y61391D01*
X2548Y60921D01*
X685Y60149D01*
X-1034Y59095D01*
X-2568Y57786D01*
X-3877Y56252D01*
X-4931Y54533D01*
X-5703Y52670D01*
X-6173Y50709D01*
X-6253Y49699D01*
X5519D01*
Y61471D01*
D02*
G37*
G36*
X-386182D02*
Y49699D01*
X-374410D01*
X-374489Y50709D01*
X-374960Y52670D01*
X-375732Y54533D01*
X-376785Y56252D01*
X-378095Y57786D01*
X-379628Y59095D01*
X-381348Y60149D01*
X-383211Y60921D01*
X-385172Y61391D01*
X-386182Y61471D01*
D02*
G37*
G36*
X-388182D02*
X-389192Y61391D01*
X-391153Y60921D01*
X-393016Y60149D01*
X-394735Y59095D01*
X-396269Y57786D01*
X-397578Y56252D01*
X-398632Y54533D01*
X-399403Y52670D01*
X-399874Y50709D01*
X-399954Y49699D01*
X-388182D01*
Y61471D01*
D02*
G37*
G36*
X-22671Y54414D02*
X-25742D01*
Y49493D01*
X-22671D01*
Y54414D01*
D02*
G37*
G36*
X-27742D02*
X-30813D01*
Y49493D01*
X-27742D01*
Y54414D01*
D02*
G37*
G36*
X-56742Y61371D02*
X-57805Y61231D01*
X-58795Y60821D01*
X-59646Y60168D01*
X-60298Y59318D01*
X-60708Y58328D01*
X-60848Y57265D01*
Y53564D01*
X-60708Y52501D01*
X-60298Y51511D01*
X-59646Y50661D01*
X-58886Y50077D01*
X-58857Y49571D01*
X-58862Y49540D01*
X-59712Y48690D01*
X-64258D01*
X-64515Y48876D01*
X-64703Y49135D01*
Y50002D01*
X-64689Y50008D01*
X-63839Y50661D01*
X-63187Y51511D01*
X-62776Y52501D01*
X-62636Y53564D01*
Y57265D01*
X-62776Y58328D01*
X-63187Y59318D01*
X-63839Y60168D01*
X-64689Y60821D01*
X-65680Y61231D01*
X-66742Y61371D01*
X-67805Y61231D01*
X-68795Y60821D01*
X-69646Y60168D01*
X-70298Y59318D01*
X-70708Y58328D01*
X-70848Y57265D01*
Y53564D01*
X-70708Y52501D01*
X-70298Y51511D01*
X-69646Y50661D01*
X-69086Y50231D01*
X-69042Y49596D01*
X-69555Y49083D01*
X-72254D01*
X-72254Y49083D01*
X-73034Y48928D01*
X-73695Y48486D01*
X-74266Y47916D01*
X-74703Y48186D01*
Y50002D01*
X-74689Y50008D01*
X-73839Y50661D01*
X-73186Y51511D01*
X-72776Y52501D01*
X-72636Y53564D01*
Y57265D01*
X-72776Y58328D01*
X-73186Y59318D01*
X-73839Y60168D01*
X-74689Y60821D01*
X-75680Y61231D01*
X-76742Y61371D01*
X-77805Y61231D01*
X-78795Y60821D01*
X-79646Y60168D01*
X-80298Y59318D01*
X-80708Y58328D01*
X-80848Y57265D01*
Y53564D01*
X-80708Y52501D01*
X-80298Y51511D01*
X-79646Y50661D01*
X-78795Y50008D01*
X-78781Y50002D01*
Y48912D01*
X-83125Y44568D01*
X-83567Y43907D01*
X-83723Y43126D01*
Y41159D01*
X-83864D01*
Y33056D01*
X-79502D01*
Y41159D01*
X-79644D01*
Y42282D01*
X-79160Y42766D01*
X-78723Y42496D01*
Y41159D01*
X-78864D01*
Y33056D01*
X-74502D01*
Y41159D01*
X-74644D01*
Y41770D01*
X-74222Y42191D01*
X-73722Y41984D01*
Y41159D01*
X-73864D01*
Y33056D01*
X-69502D01*
Y40896D01*
X-69183Y41088D01*
X-68864Y40896D01*
Y33056D01*
X-64502D01*
Y41159D01*
X-66603D01*
X-66686Y41419D01*
X-66686Y41658D01*
X-66087Y42059D01*
X-63535Y44611D01*
X-58868D01*
X-58087Y44767D01*
X-57426Y45208D01*
X-55300Y47334D01*
X-55300Y47334D01*
X-54858Y47995D01*
X-54703Y48776D01*
X-54703Y48776D01*
Y50002D01*
X-54689Y50008D01*
X-53839Y50661D01*
X-53187Y51511D01*
X-52776Y52501D01*
X-52636Y53564D01*
Y57265D01*
X-52776Y58328D01*
X-53187Y59318D01*
X-53839Y60168D01*
X-54689Y60821D01*
X-55680Y61231D01*
X-56742Y61371D01*
D02*
G37*
G36*
X-287504Y47229D02*
X-291163D01*
X-291132Y46989D01*
X-290653Y45834D01*
X-289892Y44842D01*
X-288899Y44080D01*
X-287744Y43602D01*
X-287504Y43570D01*
Y47229D01*
D02*
G37*
G36*
X-281845D02*
X-285504D01*
Y43570D01*
X-285264Y43602D01*
X-284108Y44080D01*
X-283116Y44842D01*
X-282355Y45834D01*
X-281876Y46989D01*
X-281845Y47229D01*
D02*
G37*
G36*
X-54502Y41159D02*
X-55683D01*
Y38107D01*
X-54502D01*
Y41159D01*
D02*
G37*
G36*
X-109620D02*
X-110801D01*
Y38107D01*
X-109620D01*
Y41159D01*
D02*
G37*
G36*
X-57683D02*
X-58864D01*
Y38107D01*
X-57683D01*
Y41159D01*
D02*
G37*
G36*
X-112801D02*
X-113982D01*
Y38107D01*
X-112801D01*
Y41159D01*
D02*
G37*
G36*
X-25742Y41636D02*
Y36729D01*
X-22204D01*
Y37229D01*
X-22358Y38404D01*
X-22812Y39499D01*
X-23533Y40439D01*
X-24473Y41160D01*
X-25568Y41614D01*
X-25742Y41636D01*
D02*
G37*
G36*
X-27742D02*
X-27917Y41614D01*
X-29012Y41160D01*
X-29952Y40439D01*
X-30673Y39499D01*
X-31126Y38404D01*
X-31281Y37229D01*
Y36729D01*
X-27742D01*
Y41636D01*
D02*
G37*
G36*
X19291Y47699D02*
X7519D01*
Y35927D01*
X8529Y36007D01*
X10490Y36477D01*
X12353Y37249D01*
X14073Y38303D01*
X15606Y39612D01*
X16915Y41146D01*
X17969Y42865D01*
X18741Y44728D01*
X19211Y46689D01*
X19291Y47699D01*
D02*
G37*
G36*
X5519D02*
X-6253D01*
X-6173Y46689D01*
X-5703Y44728D01*
X-4931Y42865D01*
X-3877Y41146D01*
X-2568Y39612D01*
X-1034Y38303D01*
X685Y37249D01*
X2548Y36477D01*
X4509Y36007D01*
X5519Y35927D01*
Y47699D01*
D02*
G37*
G36*
X-374410D02*
X-386182D01*
Y35927D01*
X-385172Y36007D01*
X-383211Y36477D01*
X-381348Y37249D01*
X-379628Y38303D01*
X-378095Y39612D01*
X-376785Y41146D01*
X-375732Y42865D01*
X-374960Y44728D01*
X-374489Y46689D01*
X-374410Y47699D01*
D02*
G37*
G36*
X-388182D02*
X-399954D01*
X-399874Y46689D01*
X-399403Y44728D01*
X-398632Y42865D01*
X-397578Y41146D01*
X-396269Y39612D01*
X-394735Y38303D01*
X-393016Y37249D01*
X-391153Y36477D01*
X-389192Y36007D01*
X-388182Y35927D01*
Y47699D01*
D02*
G37*
G36*
X-86742Y61371D02*
X-87805Y61231D01*
X-88795Y60821D01*
X-89646Y60168D01*
X-90298Y59318D01*
X-90708Y58328D01*
X-90848Y57265D01*
Y53564D01*
X-90708Y52501D01*
X-90298Y51511D01*
X-89646Y50661D01*
X-88795Y50008D01*
X-88722Y49978D01*
Y41159D01*
X-88864D01*
Y33056D01*
X-84502D01*
Y41159D01*
X-84644D01*
Y50043D01*
X-83839Y50661D01*
X-83187Y51511D01*
X-82776Y52501D01*
X-82636Y53564D01*
Y57265D01*
X-82776Y58328D01*
X-83187Y59318D01*
X-83839Y60168D01*
X-84689Y60821D01*
X-85680Y61231D01*
X-86742Y61371D01*
D02*
G37*
G36*
X-96742D02*
X-97805Y61231D01*
X-98795Y60821D01*
X-99646Y60168D01*
X-100298Y59318D01*
X-100708Y58328D01*
X-100848Y57265D01*
Y53564D01*
X-100708Y52501D01*
X-100298Y51511D01*
X-99646Y50661D01*
X-98795Y50008D01*
X-98782Y50002D01*
Y48305D01*
X-98626Y47524D01*
X-98184Y46863D01*
X-93722Y42401D01*
Y41159D01*
X-93864D01*
Y33056D01*
X-89502D01*
Y41159D01*
X-89644D01*
Y43246D01*
X-89799Y44026D01*
X-90241Y44687D01*
X-94703Y49149D01*
Y50002D01*
X-94689Y50008D01*
X-93839Y50661D01*
X-93186Y51511D01*
X-92776Y52501D01*
X-92636Y53564D01*
Y57265D01*
X-92776Y58328D01*
X-93186Y59318D01*
X-93839Y60168D01*
X-94689Y60821D01*
X-95680Y61231D01*
X-96742Y61371D01*
D02*
G37*
G36*
X-46742D02*
X-47805Y61231D01*
X-48795Y60821D01*
X-49646Y60168D01*
X-50298Y59318D01*
X-50708Y58328D01*
X-50848Y57265D01*
Y53564D01*
X-50708Y52501D01*
X-50298Y51511D01*
X-49646Y50661D01*
X-48795Y50008D01*
X-48781Y50002D01*
Y35601D01*
X-51444Y32938D01*
X-54051D01*
X-54502Y33056D01*
X-54502Y33438D01*
Y36107D01*
X-56683D01*
X-58864D01*
Y34185D01*
X-59364Y33918D01*
X-59502Y34010D01*
Y41159D01*
X-63864D01*
Y33056D01*
X-63722D01*
Y32961D01*
X-63567Y32180D01*
X-63125Y31519D01*
X-61063Y29456D01*
X-60401Y29015D01*
X-59621Y28859D01*
X-59621Y28859D01*
X-50600D01*
X-49819Y29015D01*
X-49158Y29456D01*
X-45300Y33314D01*
X-44858Y33975D01*
X-44703Y34756D01*
X-44703Y34756D01*
Y50002D01*
X-44689Y50008D01*
X-43839Y50661D01*
X-43187Y51511D01*
X-42776Y52501D01*
X-42636Y53564D01*
Y57265D01*
X-42776Y58328D01*
X-43187Y59318D01*
X-43839Y60168D01*
X-44689Y60821D01*
X-45680Y61231D01*
X-46742Y61371D01*
D02*
G37*
G36*
X-22204Y34729D02*
X-25742D01*
Y29822D01*
X-25568Y29845D01*
X-24473Y30299D01*
X-23533Y31020D01*
X-22812Y31960D01*
X-22358Y33055D01*
X-22204Y34229D01*
Y34729D01*
D02*
G37*
G36*
X-27742D02*
X-31281D01*
Y34229D01*
X-31126Y33055D01*
X-30673Y31960D01*
X-29952Y31020D01*
X-29012Y30299D01*
X-27917Y29845D01*
X-27742Y29822D01*
Y34729D01*
D02*
G37*
G36*
X-36742Y61371D02*
X-37805Y61231D01*
X-38795Y60821D01*
X-39646Y60168D01*
X-40298Y59318D01*
X-40708Y58328D01*
X-40848Y57265D01*
Y53564D01*
X-40708Y52501D01*
X-40298Y51511D01*
X-39646Y50661D01*
X-39291Y50389D01*
Y41729D01*
X-41242D01*
Y29729D01*
X-39291D01*
Y23697D01*
X-39952Y23191D01*
X-40459Y22530D01*
X-44012D01*
X-48281Y26799D01*
X-49108Y27352D01*
X-50084Y27546D01*
X-143120D01*
X-144095Y27352D01*
X-144922Y26799D01*
X-148604Y23118D01*
X-148762Y22881D01*
X-149262Y23032D01*
Y25301D01*
X-149417Y26081D01*
X-149859Y26743D01*
X-151514Y28397D01*
X-151323Y28859D01*
X-148864D01*
X-148083Y29015D01*
X-147422Y29456D01*
X-145360Y31519D01*
X-144918Y32180D01*
X-144830Y32621D01*
X-144620Y33056D01*
X-144620Y33056D01*
X-144620Y33056D01*
Y41111D01*
X-144620Y41159D01*
X-144559Y41401D01*
X-144362D01*
X-143983Y40926D01*
Y33056D01*
X-143841D01*
Y32961D01*
X-143685Y32180D01*
X-143243Y31519D01*
X-141181Y29456D01*
X-140520Y29015D01*
X-139739Y28859D01*
X-139739Y28859D01*
X-109655D01*
X-108874Y29015D01*
X-108213Y29456D01*
X-105300Y32369D01*
X-105300Y32369D01*
X-104858Y33031D01*
X-104703Y33811D01*
Y50002D01*
X-104689Y50008D01*
X-103839Y50661D01*
X-103187Y51511D01*
X-102776Y52501D01*
X-102636Y53564D01*
Y57265D01*
X-102776Y58328D01*
X-103187Y59318D01*
X-103839Y60168D01*
X-104689Y60821D01*
X-105680Y61231D01*
X-106742Y61371D01*
X-107805Y61231D01*
X-108795Y60821D01*
X-109646Y60168D01*
X-110298Y59318D01*
X-110708Y58328D01*
X-110848Y57265D01*
Y53564D01*
X-110708Y52501D01*
X-110298Y51511D01*
X-109646Y50661D01*
X-108795Y50008D01*
X-108782Y50002D01*
Y34656D01*
X-109158Y34279D01*
X-109620Y34470D01*
Y36107D01*
X-111801D01*
Y37107D01*
D01*
Y36107D01*
X-113982D01*
Y33462D01*
X-114301Y33276D01*
X-114620Y33462D01*
Y41159D01*
X-114762D01*
Y49978D01*
X-114689Y50008D01*
X-113839Y50661D01*
X-113187Y51511D01*
X-112776Y52501D01*
X-112636Y53564D01*
Y57265D01*
X-112776Y58328D01*
X-113187Y59318D01*
X-113839Y60168D01*
X-114689Y60821D01*
X-115680Y61231D01*
X-116742Y61371D01*
X-117805Y61231D01*
X-118795Y60821D01*
X-119646Y60168D01*
X-120298Y59318D01*
X-120708Y58328D01*
X-120848Y57265D01*
Y53564D01*
X-120708Y52501D01*
X-120298Y51511D01*
X-119646Y50661D01*
X-118841Y50043D01*
Y41159D01*
X-118983D01*
Y33462D01*
X-119301Y33276D01*
X-119620Y33462D01*
Y41159D01*
X-119762D01*
Y43126D01*
X-119918Y43907D01*
X-120360Y44568D01*
X-120360Y44568D01*
X-124703Y48912D01*
Y50002D01*
X-124689Y50008D01*
X-123839Y50661D01*
X-123187Y51511D01*
X-122776Y52501D01*
X-122636Y53564D01*
Y57265D01*
X-122776Y58328D01*
X-123187Y59318D01*
X-123839Y60168D01*
X-124689Y60821D01*
X-125680Y61231D01*
X-126742Y61371D01*
X-127805Y61231D01*
X-128795Y60821D01*
X-129646Y60168D01*
X-130298Y59318D01*
X-130708Y58328D01*
X-130848Y57265D01*
Y53564D01*
X-130708Y52501D01*
X-130298Y51511D01*
X-129646Y50661D01*
X-128795Y50008D01*
X-128781Y50002D01*
Y48108D01*
X-128875Y48028D01*
X-129253Y47872D01*
X-130261Y48880D01*
X-130922Y49322D01*
X-131702Y49477D01*
X-133614D01*
X-134113Y49976D01*
X-134080Y50475D01*
X-133839Y50661D01*
X-133186Y51511D01*
X-132776Y52501D01*
X-132636Y53564D01*
Y57265D01*
X-132776Y58328D01*
X-133186Y59318D01*
X-133839Y60168D01*
X-134689Y60821D01*
X-135680Y61231D01*
X-136742Y61371D01*
X-137805Y61231D01*
X-138795Y60821D01*
X-139646Y60168D01*
X-140298Y59318D01*
X-140708Y58328D01*
X-140848Y57265D01*
Y53564D01*
X-140708Y52501D01*
X-140298Y51511D01*
X-139646Y50661D01*
X-138795Y50008D01*
X-138781Y50002D01*
Y49722D01*
X-138676Y49190D01*
X-139014Y48690D01*
X-143772D01*
X-144623Y49540D01*
X-144627Y49571D01*
X-144599Y50077D01*
X-143839Y50661D01*
X-143186Y51511D01*
X-142776Y52501D01*
X-142636Y53564D01*
Y57265D01*
X-142776Y58328D01*
X-143186Y59318D01*
X-143839Y60168D01*
X-144689Y60821D01*
X-145680Y61231D01*
X-146742Y61371D01*
X-147805Y61231D01*
X-148795Y60821D01*
X-149646Y60168D01*
X-150298Y59318D01*
X-150708Y58328D01*
X-150848Y57265D01*
Y53564D01*
X-150708Y52501D01*
X-150298Y51511D01*
X-149646Y50661D01*
X-148795Y50008D01*
X-148782Y50002D01*
Y48776D01*
X-148707Y48402D01*
X-149118Y47902D01*
X-152905D01*
X-154543Y49540D01*
X-154563Y49604D01*
X-154531Y50129D01*
X-153839Y50661D01*
X-153187Y51511D01*
X-152776Y52501D01*
X-152636Y53564D01*
Y57265D01*
X-152776Y58328D01*
X-153187Y59318D01*
X-153839Y60168D01*
X-154689Y60821D01*
X-155680Y61231D01*
X-156742Y61371D01*
X-157805Y61231D01*
X-158795Y60821D01*
X-159646Y60168D01*
X-160298Y59318D01*
X-160708Y58328D01*
X-160848Y57265D01*
Y53564D01*
X-160708Y52501D01*
X-160298Y51511D01*
X-159646Y50661D01*
X-158795Y50008D01*
X-158782Y50002D01*
Y48856D01*
X-158626Y48075D01*
X-158184Y47414D01*
X-155192Y44421D01*
X-155192Y44421D01*
X-154530Y43979D01*
X-153750Y43824D01*
X-153750Y43824D01*
X-148917D01*
X-147301Y42208D01*
X-146640Y41767D01*
X-146097Y41658D01*
X-146146Y41159D01*
X-148983D01*
Y33663D01*
X-149708Y32938D01*
X-161318D01*
X-164703Y36323D01*
Y50002D01*
X-164689Y50008D01*
X-163839Y50661D01*
X-163187Y51511D01*
X-162776Y52501D01*
X-162636Y53564D01*
Y57265D01*
X-162776Y58328D01*
X-163187Y59318D01*
X-163839Y60168D01*
X-164689Y60821D01*
X-165680Y61231D01*
X-166742Y61371D01*
X-167805Y61231D01*
X-168795Y60821D01*
X-169646Y60168D01*
X-170298Y59318D01*
X-170708Y58328D01*
X-170848Y57265D01*
Y53564D01*
X-170708Y52501D01*
X-170298Y51511D01*
X-169646Y50661D01*
X-168795Y50008D01*
X-168781Y50002D01*
Y36013D01*
X-169166Y35697D01*
X-171803D01*
X-174703Y38598D01*
Y50002D01*
X-174689Y50008D01*
X-173839Y50661D01*
X-173187Y51511D01*
X-172776Y52501D01*
X-172636Y53564D01*
Y57265D01*
X-172776Y58328D01*
X-173187Y59318D01*
X-173839Y60168D01*
X-174689Y60821D01*
X-175680Y61231D01*
X-176742Y61371D01*
X-177805Y61231D01*
X-178795Y60821D01*
X-179646Y60168D01*
X-180298Y59318D01*
X-180708Y58328D01*
X-180848Y57265D01*
Y53564D01*
X-180708Y52501D01*
X-180298Y51511D01*
X-179646Y50661D01*
X-178795Y50008D01*
X-178781Y50002D01*
Y37753D01*
X-178626Y36973D01*
X-178184Y36312D01*
X-174089Y32216D01*
X-173428Y31774D01*
X-172647Y31619D01*
X-170010D01*
X-164540Y26149D01*
X-163878Y25706D01*
X-163098Y25551D01*
X-163098Y25551D01*
X-154436D01*
X-153340Y24456D01*
Y8771D01*
X-154270D01*
Y1271D01*
X-149350D01*
Y194D01*
X-151301D01*
Y-3032D01*
X-235171D01*
X-242310Y4107D01*
X-242885Y4548D01*
X-243554Y4825D01*
X-244272Y4919D01*
X-252535D01*
Y5896D01*
X-253465D01*
Y10299D01*
X-253555Y10753D01*
X-253101Y11035D01*
X-252399Y10497D01*
X-251244Y10018D01*
X-251004Y9986D01*
Y14646D01*
Y19305D01*
X-251244Y19274D01*
X-252399Y18795D01*
X-253392Y18034D01*
X-253965Y17287D01*
X-254465Y17456D01*
Y49555D01*
X-254620Y50336D01*
X-255062Y50997D01*
X-261019Y56954D01*
X-261680Y57396D01*
X-262461Y57551D01*
X-292673D01*
X-293454Y57396D01*
X-294115Y56954D01*
X-296504Y54565D01*
X-298893Y56954D01*
X-299554Y57396D01*
X-300335Y57551D01*
X-322047D01*
X-322828Y57396D01*
X-323489Y56954D01*
X-329446Y50997D01*
X-329888Y50335D01*
X-330043Y49555D01*
Y11299D01*
X-329888Y10519D01*
X-329446Y9858D01*
X-329043Y9455D01*
Y5896D01*
X-329972D01*
Y-1604D01*
X-324035D01*
Y5896D01*
X-324965D01*
Y10299D01*
X-325055Y10753D01*
X-324601Y11035D01*
X-323900Y10497D01*
X-322744Y10018D01*
X-322504Y9986D01*
Y14646D01*
Y19305D01*
X-322744Y19274D01*
X-323900Y18795D01*
X-324892Y18034D01*
X-325465Y17287D01*
X-325965Y17456D01*
Y48710D01*
X-321203Y53473D01*
X-306899D01*
X-306866Y52973D01*
X-307744Y52857D01*
X-308899Y52378D01*
X-309892Y51617D01*
X-310653Y50625D01*
X-311132Y49469D01*
X-311295Y48229D01*
X-311132Y46989D01*
X-310653Y45834D01*
X-309892Y44842D01*
X-308899Y44080D01*
X-308543Y43933D01*
Y35729D01*
Y27526D01*
X-308899Y27378D01*
X-309892Y26617D01*
X-310653Y25625D01*
X-311132Y24469D01*
X-311295Y23229D01*
X-311132Y21989D01*
X-310653Y20834D01*
X-309892Y19842D01*
X-308899Y19080D01*
X-308543Y18933D01*
Y10462D01*
X-308388Y9681D01*
X-307946Y9020D01*
X-298043Y-883D01*
Y-28419D01*
X-303965D01*
Y-23708D01*
X-303116Y-23057D01*
X-302355Y-22065D01*
X-301876Y-20909D01*
X-301713Y-19669D01*
X-301876Y-18429D01*
X-302355Y-17274D01*
X-303116Y-16282D01*
X-304109Y-15520D01*
X-305264Y-15042D01*
X-306504Y-14878D01*
X-307744Y-15042D01*
X-308899Y-15520D01*
X-309892Y-16282D01*
X-310653Y-17274D01*
X-311132Y-18429D01*
X-311295Y-19669D01*
X-311132Y-20909D01*
X-310653Y-22065D01*
X-309892Y-23057D01*
X-308899Y-23818D01*
X-308043Y-24173D01*
Y-32169D01*
Y-40165D01*
X-308899Y-40520D01*
X-309892Y-41282D01*
X-310653Y-42274D01*
X-311132Y-43429D01*
X-311295Y-44669D01*
X-311132Y-45909D01*
X-310653Y-47065D01*
X-309892Y-48057D01*
X-308899Y-48818D01*
X-308043Y-49173D01*
Y-54050D01*
X-307888Y-54830D01*
X-307446Y-55492D01*
X-305752Y-57186D01*
X-305943Y-57648D01*
X-325005D01*
X-339465Y-43187D01*
Y-14651D01*
X-339108Y-14503D01*
X-338116Y-13742D01*
X-337355Y-12750D01*
X-336876Y-11594D01*
X-336713Y-10354D01*
X-336876Y-9114D01*
X-337355Y-7959D01*
X-338116Y-6966D01*
X-339108Y-6205D01*
X-339465Y-6058D01*
Y-1622D01*
X-338972Y-1604D01*
Y-1604D01*
X-333035D01*
Y5896D01*
X-338972D01*
Y5896D01*
X-339465Y5914D01*
Y10349D01*
X-339108Y10497D01*
X-338116Y11258D01*
X-337355Y12250D01*
X-336876Y13406D01*
X-336713Y14646D01*
X-336876Y15886D01*
X-337355Y17041D01*
X-338116Y18034D01*
X-339108Y18795D01*
X-340264Y19274D01*
X-341504Y19437D01*
X-342744Y19274D01*
X-343899Y18795D01*
X-344892Y18034D01*
X-345653Y17041D01*
X-346132Y15886D01*
X-346295Y14646D01*
X-346132Y13406D01*
X-345653Y12250D01*
X-344892Y11258D01*
X-343899Y10497D01*
X-343543Y10349D01*
Y2146D01*
Y-6058D01*
X-343899Y-6205D01*
X-344892Y-6966D01*
X-345653Y-7959D01*
X-346132Y-9114D01*
X-346295Y-10354D01*
X-346132Y-11594D01*
X-345653Y-12750D01*
X-344892Y-13742D01*
X-343899Y-14503D01*
X-343543Y-14651D01*
Y-44032D01*
X-343388Y-44812D01*
X-342946Y-45474D01*
X-327291Y-61129D01*
X-326629Y-61571D01*
X-325849Y-61726D01*
X-283863D01*
X-281787Y-63802D01*
Y-64426D01*
X-281801Y-64432D01*
X-282651Y-65084D01*
X-283303Y-65935D01*
X-283714Y-66925D01*
X-283854Y-67988D01*
Y-71688D01*
X-283714Y-72751D01*
X-283303Y-73741D01*
X-282651Y-74592D01*
X-281801Y-75244D01*
X-280810Y-75655D01*
X-279748Y-75794D01*
X-278685Y-75655D01*
X-277695Y-75244D01*
X-276844Y-74592D01*
X-276192Y-73741D01*
X-275781Y-72751D01*
X-275641Y-71688D01*
Y-67988D01*
X-275781Y-66925D01*
X-276192Y-65935D01*
X-276844Y-65084D01*
X-277695Y-64432D01*
X-277708Y-64426D01*
Y-62957D01*
X-277854Y-62226D01*
X-277829Y-62090D01*
X-277635Y-61726D01*
X-273863D01*
X-271787Y-63802D01*
Y-64426D01*
X-271800Y-64432D01*
X-272651Y-65084D01*
X-273303Y-65935D01*
X-273713Y-66925D01*
X-273853Y-67988D01*
Y-71688D01*
X-273713Y-72751D01*
X-273303Y-73741D01*
X-272651Y-74592D01*
X-271800Y-75244D01*
X-270810Y-75655D01*
X-269747Y-75794D01*
X-268685Y-75655D01*
X-267694Y-75244D01*
X-266844Y-74592D01*
X-266192Y-73741D01*
X-265781Y-72751D01*
X-265641Y-71688D01*
Y-67988D01*
X-265781Y-66925D01*
X-266192Y-65935D01*
X-266844Y-65084D01*
X-267694Y-64432D01*
X-267708Y-64426D01*
Y-62957D01*
X-267854Y-62226D01*
X-267829Y-62090D01*
X-267635Y-61726D01*
X-263863D01*
X-261787Y-63802D01*
Y-64426D01*
X-261801Y-64432D01*
X-262651Y-65084D01*
X-263303Y-65935D01*
X-263714Y-66925D01*
X-263854Y-67988D01*
Y-71688D01*
X-263714Y-72751D01*
X-263303Y-73741D01*
X-262651Y-74592D01*
X-261801Y-75244D01*
X-260810Y-75655D01*
X-259748Y-75794D01*
X-258685Y-75655D01*
X-257695Y-75244D01*
X-256844Y-74592D01*
X-256192Y-73741D01*
X-255781Y-72751D01*
X-255642Y-71688D01*
Y-67988D01*
X-255781Y-66925D01*
X-256192Y-65935D01*
X-256844Y-65084D01*
X-257695Y-64432D01*
X-257708Y-64426D01*
Y-62957D01*
X-257854Y-62226D01*
X-257829Y-62090D01*
X-257634Y-61726D01*
X-253863D01*
X-251787Y-63802D01*
Y-64426D01*
X-251800Y-64432D01*
X-252651Y-65084D01*
X-253303Y-65935D01*
X-253713Y-66925D01*
X-253854Y-67988D01*
Y-71688D01*
X-253713Y-72751D01*
X-253303Y-73741D01*
X-252651Y-74592D01*
X-251800Y-75244D01*
X-250810Y-75655D01*
X-249747Y-75794D01*
X-248685Y-75655D01*
X-247694Y-75244D01*
X-246844Y-74592D01*
X-246192Y-73741D01*
X-245781Y-72751D01*
X-245641Y-71688D01*
Y-67988D01*
X-245781Y-66925D01*
X-246192Y-65935D01*
X-246844Y-65084D01*
X-247694Y-64432D01*
X-247708Y-64426D01*
Y-62957D01*
X-247864Y-62177D01*
X-248306Y-61515D01*
X-251576Y-58245D01*
X-252238Y-57803D01*
X-253018Y-57648D01*
X-257931D01*
X-260333Y-55245D01*
X-260995Y-54803D01*
X-261775Y-54648D01*
X-266688D01*
X-267965Y-53371D01*
Y-14651D01*
X-267608Y-14503D01*
X-266616Y-13742D01*
X-265855Y-12750D01*
X-265376Y-11594D01*
X-265213Y-10354D01*
X-265376Y-9114D01*
X-265855Y-7959D01*
X-266616Y-6966D01*
X-267608Y-6205D01*
X-267965Y-6058D01*
Y-1622D01*
X-267472Y-1604D01*
Y-1604D01*
X-261535D01*
Y5896D01*
X-267472D01*
Y5896D01*
X-267965Y5914D01*
Y10349D01*
X-267608Y10497D01*
X-266616Y11258D01*
X-265855Y12250D01*
X-265376Y13406D01*
X-265213Y14646D01*
X-265376Y15886D01*
X-265855Y17041D01*
X-266616Y18034D01*
X-267608Y18795D01*
X-268764Y19274D01*
X-270004Y19437D01*
X-271244Y19274D01*
X-272399Y18795D01*
X-273392Y18034D01*
X-274153Y17041D01*
X-274632Y15886D01*
X-274795Y14646D01*
X-274632Y13406D01*
X-274153Y12250D01*
X-273392Y11258D01*
X-272399Y10497D01*
X-272043Y10349D01*
Y1490D01*
Y-6058D01*
X-272399Y-6205D01*
X-273392Y-6966D01*
X-274153Y-7959D01*
X-274632Y-9114D01*
X-274795Y-10354D01*
X-274632Y-11594D01*
X-274153Y-12750D01*
X-273392Y-13742D01*
X-272399Y-14503D01*
X-272043Y-14651D01*
Y-54216D01*
X-272034Y-54261D01*
X-272351Y-54648D01*
X-276688D01*
X-279091Y-52245D01*
X-279752Y-51803D01*
X-280533Y-51648D01*
X-292522D01*
X-293965Y-50205D01*
Y-35919D01*
X-289035D01*
Y-28419D01*
X-289965D01*
Y-24016D01*
X-290055Y-23562D01*
X-289601Y-23280D01*
X-288899Y-23818D01*
X-287744Y-24297D01*
X-287504Y-24329D01*
Y-19669D01*
Y-15010D01*
X-287744Y-15042D01*
X-288899Y-15520D01*
X-289892Y-16282D01*
X-290465Y-17028D01*
X-290965Y-16859D01*
Y1204D01*
X-291120Y1985D01*
X-291562Y2646D01*
X-294465Y5549D01*
Y31979D01*
X-289035D01*
Y39479D01*
X-294465D01*
Y50836D01*
X-291829Y53473D01*
X-286899D01*
X-286866Y52973D01*
X-287744Y52857D01*
X-288899Y52378D01*
X-289892Y51617D01*
X-290653Y50625D01*
X-291132Y49469D01*
X-291163Y49229D01*
X-286504D01*
X-281845D01*
X-281876Y49469D01*
X-282355Y50625D01*
X-283116Y51617D01*
X-284108Y52378D01*
X-285264Y52857D01*
X-286142Y52973D01*
X-286109Y53473D01*
X-263305D01*
X-258543Y48710D01*
Y11299D01*
X-258388Y10519D01*
X-257946Y9858D01*
X-257543Y9455D01*
Y5896D01*
X-258472D01*
Y-1604D01*
X-252535D01*
Y-628D01*
X-245421D01*
X-238281Y-7767D01*
X-237707Y-8208D01*
X-237038Y-8485D01*
X-236320Y-8580D01*
X-151301D01*
Y-11806D01*
X-149350D01*
Y-17838D01*
X-150011Y-18345D01*
X-150732Y-19285D01*
X-151186Y-20379D01*
X-151340Y-21554D01*
X-151186Y-22729D01*
X-150732Y-23823D01*
X-150011Y-24764D01*
X-149071Y-25485D01*
X-147976Y-25938D01*
X-146801Y-26093D01*
X-145627Y-25938D01*
X-144532Y-25485D01*
X-143592Y-24764D01*
X-142871Y-23823D01*
X-142417Y-22729D01*
X-142263Y-21554D01*
X-142417Y-20379D01*
X-142871Y-19285D01*
X-143592Y-18345D01*
X-144252Y-17838D01*
Y-11806D01*
X-142301D01*
Y194D01*
X-144252D01*
Y1271D01*
X-139333D01*
Y8771D01*
X-140262D01*
Y9335D01*
X-140054Y9646D01*
X-139899Y10426D01*
Y11796D01*
X-139620D01*
Y19899D01*
X-143916D01*
X-144206Y20306D01*
X-142064Y22448D01*
X-118841D01*
Y19899D01*
X-118983D01*
Y11796D01*
X-114620D01*
Y19899D01*
X-114762D01*
Y22448D01*
X-94232D01*
Y15847D01*
Y8771D01*
X-99152D01*
Y7060D01*
X-107629D01*
X-109762Y9193D01*
Y11796D01*
X-109620D01*
Y19899D01*
X-113982D01*
Y11796D01*
X-113841D01*
Y8348D01*
X-113685Y7568D01*
X-113243Y6906D01*
X-109916Y3579D01*
X-109254Y3137D01*
X-108474Y2981D01*
X-99152D01*
Y1271D01*
X-94232D01*
Y194D01*
X-96183D01*
Y-11806D01*
X-94232D01*
Y-17838D01*
X-94893Y-18345D01*
X-95614Y-19285D01*
X-96068Y-20379D01*
X-96222Y-21554D01*
X-96068Y-22729D01*
X-95614Y-23823D01*
X-94893Y-24764D01*
X-93953Y-25485D01*
X-92858Y-25938D01*
X-91683Y-26093D01*
X-90509Y-25938D01*
X-89414Y-25485D01*
X-88474Y-24764D01*
X-87753Y-23823D01*
X-87299Y-22729D01*
X-87145Y-21554D01*
X-87299Y-20379D01*
X-87753Y-19285D01*
X-88474Y-18345D01*
X-89134Y-17838D01*
Y-11806D01*
X-87183D01*
Y194D01*
X-89134D01*
Y1271D01*
X-84215D01*
Y2981D01*
X-84064D01*
X-83284Y3137D01*
X-82622Y3579D01*
X-80241Y5960D01*
X-79799Y6621D01*
X-79644Y7402D01*
Y11796D01*
X-79502D01*
Y19899D01*
X-83864D01*
Y11796D01*
X-83723D01*
Y8790D01*
X-84215Y8771D01*
Y8771D01*
X-89134D01*
Y11408D01*
X-88864Y11796D01*
X-88634Y11796D01*
X-84502D01*
Y19899D01*
X-88634D01*
X-88864Y19899D01*
X-89134Y20287D01*
Y22448D01*
X-63722D01*
Y19899D01*
X-63864D01*
Y11796D01*
X-59502D01*
Y19899D01*
X-59644D01*
Y22448D01*
X-51140D01*
X-46871Y18179D01*
X-46044Y17626D01*
X-45068Y17432D01*
X-40459D01*
X-39952Y16772D01*
X-39291Y16265D01*
Y11234D01*
X-47245Y3280D01*
X-47798Y2453D01*
X-47992Y1477D01*
Y-39927D01*
X-70574Y-62509D01*
X-140370D01*
X-141346Y-62703D01*
X-142173Y-63256D01*
X-199805Y-120888D01*
X-355650D01*
X-356625Y-121082D01*
X-357452Y-121635D01*
X-361550Y-125732D01*
X-362102Y-126559D01*
X-362297Y-127535D01*
Y-134626D01*
X-362957Y-135133D01*
X-363678Y-136073D01*
X-364132Y-137167D01*
X-364286Y-138342D01*
X-364132Y-139517D01*
X-363678Y-140611D01*
X-362957Y-141551D01*
X-362297Y-142058D01*
Y-148090D01*
X-364247D01*
Y-160090D01*
X-362297D01*
Y-164812D01*
X-362651Y-165084D01*
X-363303Y-165935D01*
X-363714Y-166925D01*
X-363761Y-167289D01*
X-377882D01*
Y-166338D01*
X-386382D01*
Y-173311D01*
X-392857D01*
X-395789Y-170379D01*
Y-41724D01*
X-387764Y-33699D01*
X-375247D01*
X-373264Y-35682D01*
Y-38669D01*
X-373144Y-39582D01*
X-373131Y-39613D01*
Y-39779D01*
X-373015Y-40657D01*
X-372677Y-41475D01*
X-372138Y-42177D01*
X-371435Y-42716D01*
X-370617Y-43055D01*
X-369740Y-43170D01*
X-368862Y-43055D01*
X-368044Y-42716D01*
X-367342Y-42177D01*
X-366803Y-41475D01*
X-366464Y-40657D01*
X-366349Y-39779D01*
Y-39642D01*
X-366324Y-39582D01*
X-366204Y-38669D01*
Y-34220D01*
X-366324Y-33306D01*
X-366676Y-32455D01*
X-367237Y-31724D01*
X-371289Y-27673D01*
X-372020Y-27112D01*
X-372871Y-26759D01*
X-373785Y-26639D01*
X-389227D01*
X-390140Y-26759D01*
X-390992Y-27112D01*
X-391723Y-27673D01*
X-401816Y-37765D01*
X-402377Y-38497D01*
X-402730Y-39348D01*
X-402850Y-40262D01*
Y-171128D01*
X-402730Y-172041D01*
X-402377Y-172893D01*
X-401816Y-173624D01*
X-401085Y-174185D01*
X-400233Y-174538D01*
X-400182Y-174544D01*
X-396250Y-178477D01*
X-395623Y-178958D01*
X-394893Y-179260D01*
X-394110Y-179363D01*
X-389656D01*
Y-187664D01*
X-389501Y-188444D01*
X-389059Y-189106D01*
X-385696Y-192469D01*
Y-193173D01*
X-386195Y-193343D01*
X-386461Y-192997D01*
X-387401Y-192275D01*
X-388496Y-191822D01*
X-388671Y-191799D01*
Y-196206D01*
X-389671D01*
D01*
X-388671D01*
Y-200613D01*
X-388496Y-200590D01*
X-387401Y-200137D01*
X-386461Y-199415D01*
X-386195Y-199069D01*
X-385696Y-199239D01*
Y-203757D01*
X-385540Y-204538D01*
X-385098Y-205199D01*
X-382342Y-207955D01*
X-381681Y-208397D01*
X-380900Y-208552D01*
X-376172D01*
X-374764Y-209960D01*
X-374971Y-210460D01*
X-379910D01*
Y-210975D01*
X-380299Y-211241D01*
X-386237D01*
Y-217178D01*
X-380299D01*
X-379910Y-217445D01*
Y-217960D01*
X-374278D01*
Y-220427D01*
X-374123Y-221207D01*
X-373681Y-221869D01*
X-369953Y-225597D01*
Y-226208D01*
X-370910D01*
Y-233708D01*
X-364973D01*
Y-226208D01*
X-365875D01*
Y-224752D01*
X-366030Y-223972D01*
X-366472Y-223310D01*
X-370200Y-219583D01*
Y-217960D01*
X-364973D01*
Y-210460D01*
X-365875D01*
Y-209657D01*
X-366030Y-208877D01*
X-366472Y-208215D01*
X-372616Y-202071D01*
X-373277Y-201629D01*
X-374058Y-201474D01*
X-378617D01*
Y-199276D01*
X-378117Y-199107D01*
X-377880Y-199415D01*
X-376940Y-200137D01*
X-375845Y-200590D01*
X-374671Y-200745D01*
X-373496Y-200590D01*
X-372401Y-200137D01*
X-371879Y-199736D01*
X-365641D01*
Y-201706D01*
X-364421D01*
Y-210409D01*
X-364301Y-211322D01*
X-363948Y-212174D01*
X-363387Y-212905D01*
X-352071Y-224221D01*
Y-242176D01*
X-364973D01*
Y-241956D01*
X-370910D01*
Y-243825D01*
X-370999Y-243941D01*
X-371351Y-244792D01*
X-371472Y-245706D01*
X-371351Y-246620D01*
X-370999Y-247471D01*
X-370910Y-247587D01*
Y-249456D01*
X-364973D01*
Y-249236D01*
X-352071D01*
Y-284434D01*
X-354541D01*
Y-293434D01*
X-342541D01*
Y-292464D01*
X-323753D01*
Y-293434D01*
X-311753D01*
Y-292464D01*
X-292964D01*
Y-293434D01*
X-280964D01*
Y-292464D01*
X-266111D01*
X-258892Y-299684D01*
Y-316781D01*
X-258771Y-317695D01*
X-258419Y-318546D01*
X-257857Y-319277D01*
X-245993Y-331142D01*
Y-339128D01*
X-246265Y-339336D01*
X-247119Y-340450D01*
X-247423Y-341183D01*
X-257503D01*
X-257806Y-340450D01*
X-258661Y-339336D01*
X-258933Y-339128D01*
Y-337577D01*
X-259053Y-336663D01*
X-259406Y-335812D01*
X-259967Y-335081D01*
X-263031Y-332017D01*
X-263762Y-331455D01*
X-264614Y-331103D01*
X-265527Y-330983D01*
X-270526D01*
Y-328985D01*
X-280526D01*
Y-340040D01*
X-270526D01*
Y-338043D01*
X-266989D01*
X-266300Y-338733D01*
X-266265Y-339336D01*
X-267119Y-340450D01*
X-267656Y-341746D01*
X-267840Y-343138D01*
Y-346288D01*
X-267656Y-347679D01*
X-267119Y-348976D01*
X-266265Y-350090D01*
X-266283Y-350705D01*
X-266951Y-351372D01*
X-270526D01*
Y-349385D01*
X-280526D01*
Y-360440D01*
X-270526D01*
Y-358433D01*
X-265488D01*
X-264575Y-358313D01*
X-263723Y-357960D01*
X-262992Y-357399D01*
X-259928Y-354334D01*
X-259367Y-353603D01*
X-259014Y-352752D01*
X-258894Y-351838D01*
Y-350268D01*
X-258661Y-350090D01*
X-257806Y-348976D01*
X-257503Y-348243D01*
X-247423D01*
X-247119Y-348976D01*
X-246265Y-350090D01*
X-245151Y-350944D01*
X-243854Y-351481D01*
X-242463Y-351664D01*
X-241071Y-351481D01*
X-239774Y-350944D01*
X-238661Y-350090D01*
X-237806Y-348976D01*
X-237269Y-347679D01*
X-237086Y-346288D01*
Y-343138D01*
X-237269Y-341746D01*
X-237806Y-340450D01*
X-238661Y-339336D01*
X-238933Y-339128D01*
Y-329679D01*
X-239053Y-328766D01*
X-239406Y-327914D01*
X-239967Y-327183D01*
X-251831Y-315319D01*
Y-298222D01*
X-251951Y-297308D01*
X-252304Y-296457D01*
X-252865Y-295726D01*
X-262153Y-286438D01*
X-262884Y-285877D01*
X-263735Y-285524D01*
X-264649Y-285404D01*
X-280964D01*
Y-284434D01*
X-283434D01*
Y-282825D01*
X-279096Y-278487D01*
X-259696D01*
X-244325Y-293858D01*
Y-309602D01*
X-244204Y-310516D01*
X-243852Y-311367D01*
X-243291Y-312098D01*
X-217285Y-338104D01*
X-216553Y-338665D01*
X-215702Y-339018D01*
X-214788Y-339138D01*
X-33947D01*
X-33033Y-339018D01*
X-32182Y-338665D01*
X-31451Y-338104D01*
X-10855Y-317508D01*
X8765D01*
X9678Y-317388D01*
X10530Y-317035D01*
X11261Y-316474D01*
X19922Y-307813D01*
X20483Y-307082D01*
X20836Y-306230D01*
X20956Y-305316D01*
Y-276887D01*
Y-213167D01*
X20836Y-212253D01*
X20483Y-211402D01*
X19922Y-210671D01*
X17344Y-208092D01*
X16613Y-207531D01*
X15761Y-207179D01*
X14848Y-207058D01*
X10599D01*
X10044Y-206381D01*
X9367Y-205826D01*
Y-201184D01*
X9246Y-200270D01*
X8894Y-199419D01*
X8333Y-198688D01*
X5355Y-195710D01*
X4624Y-195149D01*
X3773Y-194797D01*
X2859Y-194676D01*
X-2653D01*
X-3566Y-194797D01*
X-4418Y-195149D01*
X-5149Y-195710D01*
X-8071Y-198632D01*
X-8631Y-199363D01*
X-8984Y-200215D01*
X-9104Y-201128D01*
Y-207465D01*
X-11102D01*
Y-217385D01*
X-11102Y-217465D01*
X-11295Y-217885D01*
X-14620D01*
Y-209490D01*
X-42211D01*
Y-233341D01*
X-14620D01*
Y-224946D01*
X-10893D01*
X-10880Y-224965D01*
X-11102Y-225465D01*
X-11102D01*
Y-235465D01*
X-85D01*
Y-236510D01*
X11758D01*
Y-224667D01*
X-85D01*
Y-225465D01*
X-2044D01*
Y-224812D01*
X-2164Y-223899D01*
X-2517Y-223047D01*
X-3078Y-222316D01*
X-6475Y-218919D01*
X-7206Y-218358D01*
X-8058Y-218005D01*
X-8362Y-217965D01*
X-8329Y-217465D01*
X-47D01*
Y-213204D01*
X453Y-213079D01*
X889Y-213894D01*
X1629Y-214796D01*
X2531Y-215536D01*
X3559Y-216086D01*
X4676Y-216424D01*
X5836Y-216539D01*
X6997Y-216424D01*
X8113Y-216086D01*
X9142Y-215536D01*
X10044Y-214796D01*
X10599Y-214119D01*
X13385D01*
X13896Y-214629D01*
Y-273356D01*
X10599D01*
X10044Y-272679D01*
X9367Y-272124D01*
Y-267482D01*
X9246Y-266568D01*
X8894Y-265717D01*
X8333Y-264985D01*
X5355Y-262008D01*
X4624Y-261447D01*
X3773Y-261094D01*
X2859Y-260974D01*
X-2653D01*
X-3566Y-261094D01*
X-4418Y-261447D01*
X-5149Y-262008D01*
X-8071Y-264930D01*
X-8631Y-265661D01*
X-8984Y-266512D01*
X-9104Y-267426D01*
Y-273763D01*
X-11102D01*
Y-283683D01*
X-11102Y-283763D01*
X-11295Y-284183D01*
X-14620D01*
Y-275788D01*
X-42211D01*
Y-299639D01*
X-14620D01*
Y-291244D01*
X-10893D01*
X-10880Y-291263D01*
X-11102Y-291763D01*
X-11102D01*
Y-301763D01*
X-85D01*
Y-302808D01*
X11758D01*
Y-290965D01*
X-85D01*
Y-291763D01*
X-2044D01*
Y-291110D01*
X-2164Y-290197D01*
X-2517Y-289345D01*
X-3078Y-288614D01*
X-6475Y-285217D01*
X-7206Y-284656D01*
X-8058Y-284303D01*
X-8362Y-284263D01*
X-8329Y-283763D01*
X-47D01*
Y-279502D01*
X453Y-279377D01*
X889Y-280192D01*
X1629Y-281094D01*
X2531Y-281834D01*
X3559Y-282383D01*
X4676Y-282722D01*
X5836Y-282836D01*
X6997Y-282722D01*
X8113Y-282383D01*
X9142Y-281834D01*
X10044Y-281094D01*
X10599Y-280417D01*
X13896D01*
Y-303854D01*
X7303Y-310448D01*
X-12317D01*
X-12317Y-310448D01*
X-13231Y-310568D01*
X-14082Y-310921D01*
X-14813Y-311482D01*
X-35409Y-332078D01*
X-130018D01*
X-130187Y-331578D01*
X-129953Y-331398D01*
X-127897Y-329342D01*
X-127456Y-328767D01*
X-127179Y-328099D01*
X-127084Y-327381D01*
Y-325849D01*
X-127039Y-325368D01*
X-126584Y-325368D01*
X-122677D01*
Y-317266D01*
X-127039D01*
Y-319239D01*
X-127539Y-319469D01*
X-127677Y-319350D01*
Y-317266D01*
X-132039D01*
Y-319642D01*
X-132260Y-319930D01*
X-132537Y-320599D01*
X-132632Y-321317D01*
Y-326232D01*
X-133063Y-326663D01*
X-134425D01*
X-134918Y-326170D01*
Y-324285D01*
X-133942D01*
Y-318348D01*
X-147486D01*
X-150273Y-315562D01*
Y-303686D01*
X-149417Y-302831D01*
X-148968D01*
X-148806Y-302939D01*
X-148223Y-303055D01*
X-141334D01*
X-140752Y-302939D01*
X-140258Y-302609D01*
X-139928Y-302116D01*
X-139924Y-302096D01*
X-139033D01*
X-138253Y-301941D01*
X-137591Y-301499D01*
X-135300Y-299208D01*
X-134858Y-298546D01*
X-134703Y-297766D01*
X-134703Y-297766D01*
Y-276365D01*
X-134858Y-275584D01*
X-135300Y-274923D01*
X-140611Y-269612D01*
Y-255565D01*
X-137355Y-252309D01*
X-116939D01*
Y-264189D01*
X-117868D01*
Y-271689D01*
X-111931D01*
Y-264189D01*
X-112861D01*
Y-252309D01*
X-93308D01*
X-89782Y-255835D01*
Y-264189D01*
X-90711D01*
Y-271689D01*
X-84774D01*
Y-264189D01*
X-85703D01*
Y-254991D01*
X-85858Y-254210D01*
X-86300Y-253549D01*
X-91022Y-248828D01*
X-91683Y-248386D01*
X-92463Y-248230D01*
X-138199D01*
X-138199Y-248230D01*
X-138980Y-248386D01*
X-139641Y-248828D01*
X-139641Y-248828D01*
X-144092Y-253278D01*
X-144534Y-253940D01*
X-144689Y-254720D01*
Y-270457D01*
X-144534Y-271237D01*
X-144092Y-271899D01*
X-138781Y-277209D01*
Y-296921D01*
X-139540Y-297680D01*
X-140183Y-297616D01*
X-140258Y-297505D01*
X-140752Y-297175D01*
X-141334Y-297059D01*
X-148223D01*
X-148806Y-297175D01*
X-148968Y-297283D01*
X-150566D01*
X-151284Y-297378D01*
X-151953Y-297655D01*
X-152527Y-298096D01*
X-154528Y-300096D01*
X-155028Y-299889D01*
Y-291401D01*
X-149163Y-285536D01*
X-145227D01*
X-144779Y-285595D01*
X-143865Y-285475D01*
X-143014Y-285122D01*
X-142936Y-285063D01*
X-141334D01*
X-140752Y-284947D01*
X-140258Y-284617D01*
X-139928Y-284123D01*
X-139812Y-283541D01*
Y-280588D01*
X-139928Y-280006D01*
X-140258Y-279513D01*
X-140752Y-279183D01*
X-141334Y-279067D01*
X-142918D01*
X-143073Y-278948D01*
X-143924Y-278596D01*
X-144838Y-278475D01*
X-150625D01*
X-151539Y-278596D01*
X-152390Y-278948D01*
X-153121Y-279509D01*
X-161054Y-287443D01*
X-161160Y-287580D01*
X-161660Y-287410D01*
Y-282941D01*
X-161787Y-281973D01*
X-162161Y-281071D01*
X-162755Y-280297D01*
X-163529Y-279703D01*
X-164431Y-279329D01*
X-165399Y-279202D01*
X-172912D01*
Y-291061D01*
Y-302920D01*
X-165399D01*
X-164431Y-302792D01*
X-163529Y-302419D01*
X-162755Y-301824D01*
X-162588Y-301607D01*
X-162088Y-301777D01*
Y-313742D01*
X-170912D01*
Y-325742D01*
X-169943D01*
Y-332078D01*
X-213326D01*
X-237264Y-308140D01*
Y-292395D01*
X-237385Y-291482D01*
X-237737Y-290630D01*
X-238298Y-289899D01*
X-255737Y-272460D01*
X-256468Y-271899D01*
X-257320Y-271547D01*
X-258233Y-271426D01*
X-280558D01*
X-281472Y-271547D01*
X-282323Y-271899D01*
X-283054Y-272460D01*
X-289460Y-278866D01*
X-290021Y-279597D01*
X-290374Y-280449D01*
X-290494Y-281363D01*
Y-284434D01*
X-292964D01*
Y-285404D01*
X-311753D01*
Y-284434D01*
X-323753D01*
Y-285404D01*
X-342541D01*
Y-284434D01*
X-345011D01*
Y-245706D01*
Y-222759D01*
X-345131Y-221845D01*
X-345484Y-220993D01*
X-346045Y-220262D01*
X-357361Y-208946D01*
Y-201706D01*
X-356141D01*
Y-190706D01*
X-365641D01*
Y-192676D01*
X-371879D01*
X-372401Y-192275D01*
X-373496Y-191822D01*
X-374671Y-191667D01*
X-375845Y-191822D01*
X-376940Y-192275D01*
X-377880Y-192997D01*
X-378117Y-193305D01*
X-378617Y-193136D01*
Y-190382D01*
X-378772Y-189602D01*
X-379214Y-188940D01*
X-380104Y-188051D01*
Y-186338D01*
X-377882D01*
Y-179363D01*
X-376712D01*
X-367169Y-188907D01*
X-367169Y-188907D01*
X-366542Y-189388D01*
X-365812Y-189690D01*
X-365029Y-189793D01*
X-365029Y-189793D01*
X-336322D01*
X-329047Y-197068D01*
X-329040Y-197119D01*
X-328687Y-197971D01*
X-328126Y-198702D01*
X-327395Y-199263D01*
X-326544Y-199616D01*
X-325630Y-199736D01*
X-209249D01*
X-208783Y-200344D01*
X-207791Y-201105D01*
X-206635Y-201584D01*
X-205395Y-201747D01*
X-204155Y-201584D01*
X-203000Y-201105D01*
X-202007Y-200344D01*
X-201541Y-199736D01*
X-195058D01*
X-194535Y-200137D01*
X-193440Y-200590D01*
X-192266Y-200745D01*
X-191091Y-200590D01*
X-189996Y-200137D01*
X-189056Y-199415D01*
X-188335Y-198475D01*
X-187881Y-197381D01*
X-187727Y-196206D01*
X-187881Y-195031D01*
X-188335Y-193937D01*
X-189056Y-192997D01*
X-189996Y-192275D01*
X-191091Y-191822D01*
X-192266Y-191667D01*
X-193440Y-191822D01*
X-194535Y-192275D01*
X-195056Y-192675D01*
X-201541D01*
X-202007Y-192068D01*
X-203000Y-191307D01*
X-204155Y-190828D01*
X-205395Y-190665D01*
X-206635Y-190828D01*
X-207791Y-191307D01*
X-208783Y-192068D01*
X-209249Y-192675D01*
X-324881D01*
X-332929Y-184627D01*
X-333556Y-184146D01*
X-334285Y-183844D01*
X-335068Y-183741D01*
X-363776D01*
X-373319Y-174198D01*
X-373946Y-173717D01*
X-374675Y-173415D01*
X-375459Y-173311D01*
X-377882D01*
Y-172387D01*
X-363761D01*
X-363714Y-172751D01*
X-363303Y-173741D01*
X-362651Y-174592D01*
X-361801Y-175244D01*
X-360810Y-175654D01*
X-359748Y-175794D01*
X-358685Y-175654D01*
X-357695Y-175244D01*
X-356844Y-174592D01*
X-356192Y-173741D01*
X-355781Y-172751D01*
X-355642Y-171688D01*
Y-167988D01*
X-355781Y-166925D01*
X-356192Y-165935D01*
X-356844Y-165084D01*
X-357199Y-164812D01*
Y-160090D01*
X-355247D01*
Y-148090D01*
X-357199D01*
Y-142058D01*
X-356538Y-141551D01*
X-355817Y-140611D01*
X-355363Y-139517D01*
X-355209Y-138342D01*
X-355363Y-137167D01*
X-355817Y-136073D01*
X-356538Y-135133D01*
X-357199Y-134626D01*
Y-128590D01*
X-354594Y-125986D01*
X-198749D01*
X-197774Y-125792D01*
X-196947Y-125239D01*
X-139314Y-67607D01*
X-69518D01*
X-68542Y-67413D01*
X-67716Y-66861D01*
X-43641Y-42786D01*
X-43088Y-41959D01*
X-42894Y-40983D01*
Y422D01*
X-36742Y6573D01*
X-31446Y1277D01*
X-30619Y724D01*
X-29643Y530D01*
X-22118D01*
X-21142Y724D01*
X-20315Y1277D01*
X-16308Y5284D01*
X-15755Y6111D01*
X-15561Y7087D01*
Y9968D01*
X-12881Y12648D01*
X3106D01*
X6731Y9023D01*
Y4014D01*
X6367Y3966D01*
X5376Y3556D01*
X4526Y2903D01*
X4254Y2549D01*
X2968D01*
Y10837D01*
X-2968D01*
Y3337D01*
Y-3750D01*
X2968D01*
Y-2549D01*
X4254D01*
X4526Y-2903D01*
X5376Y-3556D01*
X6367Y-3966D01*
X7429Y-4106D01*
X11130D01*
X12193Y-3966D01*
X13183Y-3556D01*
X14033Y-2903D01*
X14124Y-2786D01*
X14729Y-2753D01*
X16319Y-4342D01*
Y-66225D01*
X9839Y-72704D01*
X9287Y-73532D01*
X9093Y-74507D01*
Y-87302D01*
X9287Y-88278D01*
X9839Y-89105D01*
X16319Y-95584D01*
Y-101996D01*
X14729Y-103586D01*
X14124Y-103552D01*
X14033Y-103435D01*
X13183Y-102782D01*
X12193Y-102372D01*
X11130Y-102232D01*
X7429D01*
X6367Y-102372D01*
X5376Y-102782D01*
X4526Y-103435D01*
X4254Y-103789D01*
X-807D01*
X-3485Y-101111D01*
X-4312Y-100558D01*
X-5287Y-100364D01*
X-47862D01*
X-48053Y-99902D01*
X-46698Y-98547D01*
X-46256Y-97886D01*
X-46159Y-97396D01*
X-45959Y-96964D01*
X-45959D01*
X-45959Y-96964D01*
Y-87090D01*
X-50321D01*
Y-96056D01*
X-50459Y-96148D01*
X-50959Y-95881D01*
Y-87090D01*
X-54832D01*
X-55008Y-87090D01*
X-55011Y-87090D01*
X-55390Y-86659D01*
X-55384Y-86544D01*
X-53354Y-84515D01*
X-16797D01*
X-16017Y-84359D01*
X-15356Y-83917D01*
X-1875Y-70437D01*
X-1433Y-69775D01*
X-1278Y-68995D01*
Y-55903D01*
X2586Y-52039D01*
X3868D01*
X3873Y-52053D01*
X4526Y-52903D01*
X5376Y-53556D01*
X6367Y-53966D01*
X7429Y-54106D01*
X11130D01*
X12193Y-53966D01*
X13183Y-53556D01*
X14033Y-52903D01*
X14686Y-52053D01*
X15096Y-51063D01*
X15236Y-50000D01*
X15096Y-48937D01*
X14686Y-47947D01*
X14033Y-47097D01*
X13183Y-46444D01*
X12193Y-46034D01*
X11130Y-45894D01*
X7429D01*
X6367Y-46034D01*
X5376Y-46444D01*
X4526Y-47097D01*
X3873Y-47947D01*
X3868Y-47961D01*
X1741D01*
X961Y-48116D01*
X299Y-48558D01*
X-816Y-49673D01*
X-1278Y-49482D01*
Y-45903D01*
X2586Y-42039D01*
X3868D01*
X3873Y-42053D01*
X4526Y-42903D01*
X5376Y-43556D01*
X6367Y-43966D01*
X7429Y-44106D01*
X11130D01*
X12193Y-43966D01*
X13183Y-43556D01*
X14033Y-42903D01*
X14686Y-42053D01*
X15096Y-41063D01*
X15236Y-40000D01*
X15096Y-38937D01*
X14686Y-37947D01*
X14033Y-37097D01*
X13183Y-36444D01*
X12193Y-36034D01*
X11130Y-35894D01*
X7429D01*
X6367Y-36034D01*
X5376Y-36444D01*
X4526Y-37097D01*
X3873Y-37947D01*
X3868Y-37961D01*
X1741D01*
X961Y-38116D01*
X299Y-38558D01*
X-816Y-39673D01*
X-1278Y-39482D01*
Y-35903D01*
X2586Y-32039D01*
X3868D01*
X3873Y-32053D01*
X4526Y-32903D01*
X5376Y-33556D01*
X6367Y-33966D01*
X7429Y-34106D01*
X11130D01*
X12193Y-33966D01*
X13183Y-33556D01*
X14033Y-32903D01*
X14686Y-32053D01*
X15096Y-31063D01*
X15236Y-30000D01*
X15096Y-28937D01*
X14686Y-27947D01*
X14033Y-27097D01*
X13183Y-26444D01*
X12193Y-26034D01*
X11130Y-25894D01*
X7429D01*
X6367Y-26034D01*
X5376Y-26444D01*
X4526Y-27097D01*
X3873Y-27947D01*
X3868Y-27961D01*
X1741D01*
X961Y-28116D01*
X299Y-28558D01*
X-816Y-29673D01*
X-1278Y-29482D01*
Y-25903D01*
X2586Y-22039D01*
X3868D01*
X3873Y-22053D01*
X4526Y-22903D01*
X5376Y-23556D01*
X6367Y-23966D01*
X7429Y-24106D01*
X11130D01*
X12193Y-23966D01*
X13183Y-23556D01*
X14033Y-22903D01*
X14686Y-22053D01*
X15096Y-21063D01*
X15236Y-20000D01*
X15096Y-18937D01*
X14686Y-17947D01*
X14033Y-17097D01*
X13183Y-16444D01*
X12193Y-16034D01*
X11130Y-15894D01*
X7429D01*
X6367Y-16034D01*
X5376Y-16444D01*
X4526Y-17097D01*
X3873Y-17947D01*
X3868Y-17961D01*
X1741D01*
X961Y-18116D01*
X299Y-18558D01*
X-816Y-19673D01*
X-1278Y-19482D01*
Y-15903D01*
X2586Y-12039D01*
X3868D01*
X3873Y-12053D01*
X4526Y-12903D01*
X5376Y-13556D01*
X6367Y-13966D01*
X7429Y-14106D01*
X11130D01*
X12193Y-13966D01*
X13183Y-13556D01*
X14033Y-12903D01*
X14686Y-12053D01*
X15096Y-11063D01*
X15236Y-10000D01*
X15096Y-8937D01*
X14686Y-7947D01*
X14033Y-7097D01*
X13183Y-6444D01*
X12193Y-6034D01*
X11130Y-5894D01*
X7429D01*
X6367Y-6034D01*
X5376Y-6444D01*
X4526Y-7097D01*
X3873Y-7947D01*
X3868Y-7961D01*
X1741D01*
X961Y-8116D01*
X299Y-8558D01*
X-4759Y-13616D01*
X-5201Y-14278D01*
X-5356Y-15058D01*
Y-19971D01*
X-7759Y-22374D01*
X-8201Y-23035D01*
X-8356Y-23816D01*
Y-28728D01*
X-10759Y-31131D01*
X-11201Y-31793D01*
X-11356Y-32573D01*
Y-37486D01*
X-13759Y-39888D01*
X-14201Y-40550D01*
X-14356Y-41330D01*
Y-46243D01*
X-16759Y-48646D01*
X-17201Y-49307D01*
X-17356Y-50087D01*
Y-63180D01*
X-22613Y-68436D01*
X-62199D01*
X-62979Y-68591D01*
X-63641Y-69033D01*
X-79582Y-84974D01*
X-80024Y-85636D01*
X-80179Y-86416D01*
Y-87090D01*
X-80321D01*
Y-96456D01*
X-80959D01*
Y-87090D01*
X-85321D01*
Y-96456D01*
X-85959D01*
Y-87090D01*
X-90321D01*
Y-96964D01*
X-90247D01*
X-90040Y-97464D01*
X-103036Y-110460D01*
X-112233D01*
X-112500Y-109960D01*
X-112267Y-109610D01*
X-112097Y-108759D01*
Y-107397D01*
X-114321D01*
X-116545D01*
Y-108759D01*
X-116376Y-109610D01*
X-116142Y-109960D01*
X-116409Y-110460D01*
X-117233D01*
X-117500Y-109960D01*
X-117267Y-109610D01*
X-117097Y-108759D01*
Y-104034D01*
X-117267Y-103183D01*
X-117282Y-103160D01*
Y-95777D01*
X-116353D01*
Y-88277D01*
X-122290D01*
Y-95777D01*
X-121360D01*
Y-103160D01*
X-121376Y-103183D01*
X-121545Y-104034D01*
Y-108759D01*
X-121376Y-109610D01*
X-121142Y-109960D01*
X-121409Y-110460D01*
X-122233D01*
X-122500Y-109960D01*
X-122267Y-109610D01*
X-122097Y-108759D01*
Y-104034D01*
X-122267Y-103183D01*
X-122282Y-103160D01*
Y-100806D01*
X-122437Y-100026D01*
X-122879Y-99364D01*
X-124593Y-97651D01*
Y-95777D01*
X-123663D01*
Y-88690D01*
Y-81190D01*
X-129601D01*
Y-88690D01*
Y-95777D01*
X-128671D01*
Y-98495D01*
X-128603Y-98839D01*
X-129064Y-99085D01*
X-130478Y-97671D01*
X-131139Y-97229D01*
X-131920Y-97074D01*
X-133213D01*
X-133593Y-96694D01*
Y-95777D01*
X-132664D01*
Y-88690D01*
Y-81190D01*
X-138601D01*
Y-88690D01*
Y-89987D01*
X-140581D01*
X-141361Y-90143D01*
X-142023Y-90585D01*
X-144779Y-93341D01*
X-145221Y-94002D01*
X-145376Y-94783D01*
Y-109468D01*
X-150397Y-114489D01*
X-150839Y-115151D01*
X-150994Y-115931D01*
Y-122666D01*
X-153480Y-125152D01*
X-178846D01*
X-179626Y-125307D01*
X-180287Y-125749D01*
X-192777Y-138238D01*
X-281920Y-138238D01*
X-321538D01*
X-321538Y-138238D01*
X-322319Y-138393D01*
X-322980Y-138835D01*
X-322980Y-138836D01*
X-341189Y-157044D01*
X-341631Y-157706D01*
X-341787Y-158486D01*
Y-164426D01*
X-341800Y-164432D01*
X-342651Y-165084D01*
X-343303Y-165935D01*
X-343713Y-166925D01*
X-343853Y-167988D01*
Y-171688D01*
X-343713Y-172751D01*
X-343303Y-173741D01*
X-342651Y-174592D01*
X-341800Y-175244D01*
X-340810Y-175654D01*
X-339748Y-175794D01*
X-338685Y-175654D01*
X-337695Y-175244D01*
X-336844Y-174592D01*
X-336192Y-173741D01*
X-335781Y-172751D01*
X-335642Y-171688D01*
Y-167988D01*
X-335781Y-166925D01*
X-336192Y-165935D01*
X-336844Y-165084D01*
X-337695Y-164432D01*
X-337708Y-164426D01*
Y-159331D01*
X-320694Y-142317D01*
X-281920D01*
X-277115D01*
X-276923Y-142779D01*
X-291189Y-157044D01*
X-291631Y-157706D01*
X-291787Y-158486D01*
Y-164426D01*
X-291800Y-164432D01*
X-292651Y-165084D01*
X-293303Y-165935D01*
X-293713Y-166925D01*
X-293853Y-167988D01*
Y-171688D01*
X-293713Y-172751D01*
X-293303Y-173741D01*
X-292651Y-174592D01*
X-291800Y-175244D01*
X-290810Y-175654D01*
X-289748Y-175794D01*
X-288685Y-175654D01*
X-287695Y-175244D01*
X-286844Y-174592D01*
X-286192Y-173741D01*
X-285781Y-172751D01*
X-285642Y-171688D01*
Y-167988D01*
X-285781Y-166925D01*
X-286192Y-165935D01*
X-286844Y-165084D01*
X-287695Y-164432D01*
X-287708Y-164426D01*
Y-159331D01*
X-273993Y-145616D01*
X-270414D01*
X-270223Y-146078D01*
X-281189Y-157044D01*
X-281631Y-157706D01*
X-281787Y-158486D01*
Y-164426D01*
X-281801Y-164432D01*
X-282651Y-165084D01*
X-283303Y-165935D01*
X-283714Y-166925D01*
X-283854Y-167988D01*
Y-171688D01*
X-283714Y-172751D01*
X-283303Y-173741D01*
X-282651Y-174592D01*
X-281801Y-175244D01*
X-280810Y-175654D01*
X-279748Y-175794D01*
X-278685Y-175654D01*
X-277695Y-175244D01*
X-276844Y-174592D01*
X-276192Y-173741D01*
X-275781Y-172751D01*
X-275641Y-171688D01*
Y-167988D01*
X-275781Y-166925D01*
X-276192Y-165935D01*
X-276844Y-165084D01*
X-277695Y-164432D01*
X-277708Y-164426D01*
Y-159331D01*
X-266993Y-148616D01*
X-263414D01*
X-263223Y-149078D01*
X-271189Y-157044D01*
X-271631Y-157706D01*
X-271787Y-158486D01*
Y-164426D01*
X-271800Y-164432D01*
X-272651Y-165084D01*
X-273303Y-165935D01*
X-273713Y-166925D01*
X-273853Y-167988D01*
Y-171688D01*
X-273713Y-172751D01*
X-273303Y-173741D01*
X-272651Y-174592D01*
X-271800Y-175244D01*
X-270810Y-175654D01*
X-269747Y-175794D01*
X-268685Y-175654D01*
X-267694Y-175244D01*
X-266844Y-174592D01*
X-266192Y-173741D01*
X-265781Y-172751D01*
X-265641Y-171688D01*
Y-167988D01*
X-265781Y-166925D01*
X-266192Y-165935D01*
X-266844Y-165084D01*
X-267694Y-164432D01*
X-267708Y-164426D01*
Y-159331D01*
X-260317Y-151940D01*
X-256738D01*
X-256547Y-152402D01*
X-261189Y-157044D01*
X-261631Y-157706D01*
X-261787Y-158486D01*
Y-164426D01*
X-261801Y-164432D01*
X-262651Y-165084D01*
X-263303Y-165935D01*
X-263714Y-166925D01*
X-263854Y-167988D01*
Y-171688D01*
X-263714Y-172751D01*
X-263303Y-173741D01*
X-262651Y-174592D01*
X-261801Y-175244D01*
X-260810Y-175654D01*
X-259748Y-175794D01*
X-258685Y-175654D01*
X-257695Y-175244D01*
X-256844Y-174592D01*
X-256192Y-173741D01*
X-255781Y-172751D01*
X-255642Y-171688D01*
Y-167988D01*
X-255781Y-166925D01*
X-256192Y-165935D01*
X-256844Y-165084D01*
X-257695Y-164432D01*
X-257708Y-164426D01*
Y-159331D01*
X-253516Y-155139D01*
X-220134Y-155139D01*
X-219943Y-155601D01*
X-221452Y-157110D01*
X-226365D01*
X-227145Y-157265D01*
X-227807Y-157707D01*
X-231189Y-161090D01*
X-231631Y-161751D01*
X-231787Y-162532D01*
Y-164426D01*
X-231801Y-164432D01*
X-232651Y-165084D01*
X-233303Y-165935D01*
X-233714Y-166925D01*
X-233854Y-167988D01*
Y-171688D01*
X-233714Y-172751D01*
X-233303Y-173741D01*
X-232651Y-174592D01*
X-231801Y-175244D01*
X-230810Y-175654D01*
X-229748Y-175794D01*
X-228685Y-175654D01*
X-227695Y-175244D01*
X-226844Y-174592D01*
X-226192Y-173741D01*
X-225781Y-172751D01*
X-225641Y-171688D01*
Y-167988D01*
X-225781Y-166925D01*
X-226192Y-165935D01*
X-226844Y-165084D01*
X-227695Y-164432D01*
X-227708Y-164426D01*
Y-163376D01*
X-225520Y-161188D01*
X-221786D01*
X-221550Y-161629D01*
X-221631Y-161751D01*
X-221787Y-162532D01*
Y-164426D01*
X-221800Y-164432D01*
X-222651Y-165084D01*
X-223303Y-165935D01*
X-223713Y-166925D01*
X-223853Y-167988D01*
Y-171688D01*
X-223713Y-172751D01*
X-223303Y-173741D01*
X-222651Y-174592D01*
X-221800Y-175244D01*
X-220810Y-175654D01*
X-219747Y-175794D01*
X-218685Y-175654D01*
X-217694Y-175244D01*
X-216844Y-174592D01*
X-216192Y-173741D01*
X-215781Y-172751D01*
X-215641Y-171688D01*
Y-167988D01*
X-215781Y-166925D01*
X-216192Y-165935D01*
X-216844Y-165084D01*
X-217694Y-164432D01*
X-217708Y-164426D01*
Y-163376D01*
X-215520Y-161188D01*
X-212010D01*
X-203556Y-169643D01*
Y-175579D01*
X-203400Y-176360D01*
X-202958Y-177021D01*
X-198078Y-181902D01*
X-197416Y-182344D01*
X-196636Y-182499D01*
X-196636Y-182499D01*
X-142601D01*
X-141069Y-184031D01*
Y-199929D01*
X-140914Y-200710D01*
X-140472Y-201371D01*
X-134366Y-207477D01*
X-133704Y-207919D01*
X-132924Y-208074D01*
X-132924Y-208074D01*
X-118526D01*
X-116911Y-209689D01*
Y-212141D01*
X-117868D01*
Y-219641D01*
X-111931D01*
Y-212141D01*
X-112833D01*
Y-208844D01*
X-112909Y-208461D01*
X-112592Y-208074D01*
X-91369D01*
X-89754Y-209689D01*
Y-212141D01*
X-90711D01*
Y-219641D01*
X-84774D01*
Y-212141D01*
X-85676D01*
Y-208844D01*
X-85831Y-208064D01*
X-86273Y-207402D01*
X-89082Y-204593D01*
X-89744Y-204151D01*
X-90524Y-203996D01*
X-112594D01*
X-114997Y-201593D01*
X-115658Y-201151D01*
X-116439Y-200996D01*
X-130837D01*
X-133991Y-197842D01*
Y-181944D01*
X-133991Y-181944D01*
X-134146Y-181164D01*
X-134588Y-180502D01*
X-139072Y-176018D01*
X-139734Y-175576D01*
X-140514Y-175420D01*
X-177852D01*
X-177926Y-174920D01*
X-177812Y-174886D01*
X-176783Y-174336D01*
X-175882Y-173596D01*
X-175142Y-172694D01*
X-174592Y-171666D01*
X-174253Y-170550D01*
X-174139Y-169389D01*
X-174253Y-168228D01*
X-174592Y-167112D01*
X-175142Y-166083D01*
X-175882Y-165182D01*
X-176783Y-164442D01*
X-177812Y-163892D01*
X-178928Y-163553D01*
X-180089Y-163439D01*
X-181250Y-163553D01*
X-182366Y-163892D01*
X-183394Y-164442D01*
X-184296Y-165182D01*
X-185036Y-166083D01*
X-185586Y-167112D01*
X-185924Y-168228D01*
X-186039Y-169389D01*
X-185924Y-170550D01*
X-185586Y-171666D01*
X-185036Y-172694D01*
X-184296Y-173596D01*
X-183394Y-174336D01*
X-182366Y-174886D01*
X-182251Y-174920D01*
X-182326Y-175420D01*
X-194549D01*
X-196477Y-173492D01*
Y-167556D01*
X-196477Y-167556D01*
X-196633Y-166775D01*
X-197075Y-166114D01*
X-207588Y-155601D01*
X-207396Y-155139D01*
X-186894D01*
X-186113Y-154983D01*
X-185452Y-154541D01*
X-172663Y-141753D01*
X-49016Y-141753D01*
X-48236Y-141598D01*
X-47574Y-141156D01*
X-41698Y-135280D01*
X-41698Y-135280D01*
X-41256Y-134618D01*
X-41101Y-133838D01*
Y-133578D01*
X-40959D01*
Y-123704D01*
X-45321D01*
Y-132789D01*
X-45459Y-132881D01*
X-45959Y-132613D01*
Y-123704D01*
X-50321D01*
Y-133064D01*
X-50459Y-133156D01*
X-50959Y-132889D01*
Y-129641D01*
X-52140D01*
Y-133578D01*
X-51376D01*
X-51196Y-133578D01*
X-50988Y-134078D01*
X-51386Y-134476D01*
X-144729Y-134476D01*
X-144920Y-134014D01*
X-141513Y-130607D01*
X-141071Y-129945D01*
X-140916Y-129165D01*
Y-119261D01*
X-139193Y-117538D01*
X-128115D01*
X-127963Y-118038D01*
X-128289Y-118256D01*
X-131123Y-121090D01*
X-131676Y-121917D01*
X-131870Y-122893D01*
Y-128641D01*
X-131676Y-129616D01*
X-131545Y-129812D01*
Y-131003D01*
X-131376Y-131854D01*
X-130894Y-132576D01*
X-130172Y-133057D01*
X-129321Y-133227D01*
X-128470Y-133057D01*
X-127749Y-132576D01*
X-127267Y-131854D01*
X-127097Y-131003D01*
Y-130237D01*
X-127045Y-130197D01*
X-126545Y-130443D01*
Y-131003D01*
X-126376Y-131854D01*
X-125894Y-132576D01*
X-125172Y-133057D01*
X-124321Y-133227D01*
X-123470Y-133057D01*
X-122749Y-132576D01*
X-122267Y-131854D01*
X-122097Y-131003D01*
Y-126279D01*
X-122267Y-125427D01*
X-122749Y-124706D01*
X-123470Y-124224D01*
X-124321Y-124055D01*
X-125172Y-124224D01*
X-125894Y-124706D01*
X-126272Y-125273D01*
X-126772Y-125121D01*
Y-123949D01*
X-125431Y-122607D01*
X-100689D01*
Y-128641D01*
X-100495Y-129616D01*
X-100321Y-129876D01*
Y-133578D01*
X-95959D01*
Y-130168D01*
X-95578Y-129940D01*
X-95321Y-130112D01*
Y-133578D01*
X-90959D01*
Y-123704D01*
X-95091D01*
X-95321Y-123704D01*
X-95591Y-123316D01*
Y-121114D01*
X-82021Y-107544D01*
X-66245D01*
X-66037Y-108044D01*
X-79582Y-121589D01*
X-80024Y-122250D01*
X-80179Y-123030D01*
Y-123704D01*
X-80321D01*
Y-133578D01*
X-75959D01*
Y-123977D01*
X-75821Y-123899D01*
X-75321Y-124190D01*
Y-133578D01*
X-70959D01*
Y-123977D01*
X-70821Y-123899D01*
X-70321Y-124190D01*
Y-133578D01*
X-65959D01*
Y-123977D01*
X-65821Y-123899D01*
X-65321Y-124190D01*
Y-133578D01*
X-60959D01*
Y-123977D01*
X-60821Y-123899D01*
X-60321Y-124190D01*
Y-133578D01*
X-55959D01*
Y-123977D01*
X-55821Y-123899D01*
X-55321Y-124190D01*
Y-127641D01*
X-54140D01*
Y-123704D01*
X-54725D01*
X-54913Y-123493D01*
X-55025Y-123204D01*
X-54994Y-123146D01*
X-17063D01*
X-11356Y-128852D01*
Y-133765D01*
X-11201Y-134546D01*
X-10759Y-135207D01*
X-8356Y-137610D01*
Y-142523D01*
X-8201Y-143303D01*
X-7759Y-143965D01*
X-5356Y-146367D01*
Y-151280D01*
X-5201Y-152060D01*
X-4759Y-152722D01*
X299Y-157780D01*
X961Y-158222D01*
X1741Y-158377D01*
X3868D01*
X3873Y-158391D01*
X4526Y-159241D01*
X5376Y-159894D01*
X6367Y-160304D01*
X7429Y-160444D01*
X11130D01*
X12193Y-160304D01*
X13183Y-159894D01*
X14033Y-159241D01*
X14686Y-158391D01*
X15096Y-157401D01*
X15236Y-156338D01*
X15096Y-155275D01*
X14686Y-154285D01*
X14033Y-153435D01*
X13183Y-152782D01*
X12193Y-152372D01*
X11130Y-152232D01*
X7429D01*
X6367Y-152372D01*
X5376Y-152782D01*
X4526Y-153435D01*
X3873Y-154285D01*
X3868Y-154299D01*
X2586D01*
X-1278Y-150435D01*
Y-146856D01*
X-816Y-146665D01*
X299Y-147780D01*
X961Y-148222D01*
X1741Y-148377D01*
X3868D01*
X3873Y-148391D01*
X4526Y-149241D01*
X5376Y-149894D01*
X6367Y-150304D01*
X7429Y-150444D01*
X11130D01*
X12193Y-150304D01*
X13183Y-149894D01*
X14033Y-149241D01*
X14686Y-148391D01*
X15096Y-147401D01*
X15236Y-146338D01*
X15096Y-145275D01*
X14686Y-144285D01*
X14033Y-143435D01*
X13183Y-142782D01*
X12193Y-142372D01*
X11130Y-142232D01*
X7429D01*
X6367Y-142372D01*
X5376Y-142782D01*
X4526Y-143435D01*
X3873Y-144285D01*
X3868Y-144299D01*
X2586D01*
X-1278Y-140435D01*
Y-136856D01*
X-816Y-136665D01*
X299Y-137780D01*
X961Y-138222D01*
X1741Y-138377D01*
X3868D01*
X3873Y-138391D01*
X4526Y-139241D01*
X5376Y-139894D01*
X6367Y-140304D01*
X7429Y-140444D01*
X11130D01*
X12193Y-140304D01*
X13183Y-139894D01*
X14033Y-139241D01*
X14686Y-138391D01*
X15096Y-137401D01*
X15236Y-136338D01*
X15096Y-135275D01*
X14686Y-134285D01*
X14033Y-133435D01*
X13183Y-132782D01*
X12193Y-132372D01*
X11130Y-132232D01*
X7429D01*
X6367Y-132372D01*
X5376Y-132782D01*
X4526Y-133435D01*
X3873Y-134285D01*
X3868Y-134299D01*
X2586D01*
X-1278Y-130435D01*
Y-126856D01*
X-816Y-126665D01*
X299Y-127780D01*
X299Y-127780D01*
X961Y-128222D01*
X1741Y-128377D01*
X3868D01*
X3873Y-128391D01*
X4526Y-129241D01*
X5376Y-129894D01*
X6367Y-130304D01*
X7429Y-130444D01*
X11130D01*
X12193Y-130304D01*
X13183Y-129894D01*
X14033Y-129241D01*
X14686Y-128391D01*
X15096Y-127401D01*
X15236Y-126338D01*
X15096Y-125275D01*
X14686Y-124285D01*
X14033Y-123435D01*
X13183Y-122782D01*
X12193Y-122372D01*
X11130Y-122232D01*
X7429D01*
X6367Y-122372D01*
X5376Y-122782D01*
X4526Y-123435D01*
X3873Y-124285D01*
X3868Y-124299D01*
X2586D01*
X-2874Y-118839D01*
X-2683Y-118377D01*
X3868D01*
X3873Y-118391D01*
X4526Y-119241D01*
X5376Y-119894D01*
X6367Y-120304D01*
X7429Y-120444D01*
X11130D01*
X12193Y-120304D01*
X13183Y-119894D01*
X14033Y-119241D01*
X14686Y-118391D01*
X15096Y-117401D01*
X15236Y-116338D01*
X15096Y-115275D01*
X14686Y-114285D01*
X14033Y-113435D01*
X13183Y-112782D01*
X12193Y-112372D01*
X11130Y-112232D01*
X7429D01*
X6367Y-112372D01*
X5376Y-112782D01*
X4526Y-113435D01*
X3873Y-114285D01*
X3868Y-114299D01*
X-3172D01*
X-9806Y-107665D01*
X-10467Y-107223D01*
X-11248Y-107068D01*
X-48841D01*
X-49048Y-106568D01*
X-47943Y-105462D01*
X-6343D01*
X-3665Y-108140D01*
X-2838Y-108693D01*
X-1863Y-108887D01*
X4254D01*
X4526Y-109241D01*
X5376Y-109894D01*
X6367Y-110304D01*
X7429Y-110444D01*
X11130D01*
X12193Y-110304D01*
X13183Y-109894D01*
X14033Y-109241D01*
X14305Y-108887D01*
X15582D01*
X16557Y-108693D01*
X17384Y-108140D01*
X20670Y-104854D01*
X21223Y-104027D01*
X21417Y-103052D01*
Y-94528D01*
X21223Y-93553D01*
X20670Y-92726D01*
X14191Y-86246D01*
Y-75563D01*
X20670Y-69083D01*
X21223Y-68256D01*
X21417Y-67281D01*
Y-3286D01*
X21223Y-2311D01*
X20670Y-1484D01*
X17384Y1802D01*
X16557Y2355D01*
X15582Y2549D01*
X14305D01*
X14033Y2903D01*
X13183Y3556D01*
X12193Y3966D01*
X11829Y4014D01*
Y10079D01*
X11635Y11054D01*
X11082Y11881D01*
X5964Y16999D01*
X5137Y17552D01*
X4162Y17746D01*
X-13937D01*
X-14912Y17552D01*
X-15739Y16999D01*
X-19913Y12826D01*
X-20465Y11999D01*
X-20659Y11024D01*
Y8142D01*
X-23174Y5628D01*
X-28588D01*
X-34193Y11234D01*
Y16265D01*
X-33533Y16772D01*
X-32812Y17712D01*
X-32358Y18807D01*
X-32204Y19981D01*
X-32358Y21156D01*
X-32812Y22251D01*
X-33533Y23191D01*
X-34193Y23697D01*
Y29729D01*
X-32242D01*
Y41729D01*
X-34193D01*
Y50389D01*
X-33839Y50661D01*
X-33187Y51511D01*
X-32776Y52501D01*
X-32636Y53564D01*
Y57265D01*
X-32776Y58328D01*
X-33187Y59318D01*
X-33839Y60168D01*
X-34689Y60821D01*
X-35680Y61231D01*
X-36742Y61371D01*
D02*
G37*
G36*
X-285504Y27889D02*
Y24229D01*
X-281845D01*
X-281876Y24469D01*
X-282355Y25625D01*
X-283116Y26617D01*
X-284108Y27378D01*
X-285264Y27857D01*
X-285504Y27889D01*
D02*
G37*
G36*
X-287504D02*
X-287744Y27857D01*
X-288899Y27378D01*
X-289892Y26617D01*
X-290653Y25625D01*
X-291132Y24469D01*
X-291163Y24229D01*
X-287504D01*
Y27889D01*
D02*
G37*
G36*
X-20742Y24388D02*
Y20981D01*
X-17335D01*
X-17358Y21156D01*
X-17812Y22251D01*
X-18533Y23191D01*
X-19473Y23912D01*
X-20568Y24365D01*
X-20742Y24388D01*
D02*
G37*
G36*
X-22742Y24388D02*
X-22917Y24365D01*
X-24012Y23912D01*
X-24952Y23191D01*
X-25673Y22251D01*
X-26127Y21156D01*
X-26149Y20981D01*
X-22742D01*
Y24388D01*
D02*
G37*
G36*
X-287504Y22229D02*
X-291163D01*
X-291132Y21989D01*
X-290653Y20834D01*
X-289892Y19842D01*
X-288899Y19080D01*
X-287744Y18602D01*
X-287504Y18570D01*
Y22229D01*
D02*
G37*
G36*
X-281845D02*
X-285504D01*
Y18570D01*
X-285264Y18602D01*
X-284108Y19080D01*
X-283116Y19842D01*
X-282355Y20834D01*
X-281876Y21989D01*
X-281845Y22229D01*
D02*
G37*
G36*
X-74502Y19899D02*
X-75683D01*
Y16848D01*
X-74502D01*
Y19899D01*
D02*
G37*
G36*
X-129620D02*
X-130801D01*
Y16848D01*
X-129620D01*
Y19899D01*
D02*
G37*
G36*
X-77683D02*
X-78864D01*
Y16848D01*
X-77683D01*
Y19899D01*
D02*
G37*
G36*
X-132801D02*
X-133983D01*
Y16848D01*
X-132801D01*
Y19899D01*
D02*
G37*
G36*
X-249004Y19305D02*
Y15646D01*
X-245345D01*
X-245376Y15886D01*
X-245855Y17041D01*
X-246616Y18034D01*
X-247608Y18795D01*
X-248764Y19274D01*
X-249004Y19305D01*
D02*
G37*
G36*
X-320504D02*
Y15646D01*
X-316845D01*
X-316876Y15886D01*
X-317355Y17041D01*
X-318116Y18034D01*
X-319109Y18795D01*
X-320264Y19274D01*
X-320504Y19305D01*
D02*
G37*
G36*
X-22742Y18981D02*
X-26149D01*
X-26127Y18807D01*
X-25673Y17712D01*
X-24952Y16772D01*
X-24012Y16051D01*
X-22917Y15597D01*
X-22742Y15574D01*
Y18981D01*
D02*
G37*
G36*
X-17335D02*
X-20742D01*
Y15574D01*
X-20568Y15597D01*
X-19473Y16051D01*
X-18533Y16772D01*
X-17812Y17712D01*
X-17358Y18807D01*
X-17335Y18981D01*
D02*
G37*
G36*
X-54502Y19899D02*
X-58864D01*
Y11796D01*
X-54502D01*
Y19899D01*
D02*
G37*
G36*
X-74502Y14848D02*
X-75683D01*
Y11796D01*
X-74502D01*
Y14848D01*
D02*
G37*
G36*
X-77683D02*
X-78864D01*
Y11796D01*
X-77683D01*
Y14848D01*
D02*
G37*
G36*
X-129620D02*
X-130801D01*
Y11796D01*
X-129620D01*
Y14848D01*
D02*
G37*
G36*
X-132801D02*
X-133983D01*
Y11796D01*
X-132801D01*
Y14848D01*
D02*
G37*
G36*
X-64502Y19899D02*
X-68864D01*
Y11796D01*
X-68864Y11796D01*
X-68864D01*
X-68894Y11667D01*
X-69419Y11613D01*
X-69502Y11796D01*
Y19899D01*
X-73864D01*
Y11796D01*
X-73722D01*
Y10865D01*
X-73567Y10084D01*
X-73125Y9423D01*
X-64694Y992D01*
Y-36700D01*
X-73061Y-45066D01*
X-77434D01*
Y-43105D01*
X-81683D01*
X-85934D01*
Y-45066D01*
X-119843D01*
X-119892Y-44566D01*
X-119505Y-44489D01*
X-118843Y-44047D01*
X-113331Y-38535D01*
X-112889Y-37874D01*
X-112734Y-37093D01*
X-112734Y-37093D01*
Y3079D01*
X-112734Y3079D01*
X-112889Y3859D01*
X-113331Y4521D01*
X-113331Y4521D01*
X-119762Y10952D01*
Y11796D01*
X-119620D01*
Y19899D01*
X-123983D01*
Y11796D01*
X-123983Y11796D01*
X-123983D01*
X-124012Y11667D01*
X-124537Y11613D01*
X-124620Y11796D01*
Y19899D01*
X-128982D01*
Y11796D01*
X-128982D01*
X-128997Y11530D01*
X-129279Y11138D01*
X-134270D01*
X-134484Y11353D01*
X-134620Y11796D01*
X-134620Y11796D01*
X-134620D01*
X-134620Y11796D01*
Y19899D01*
X-138982D01*
Y11796D01*
X-138841D01*
Y10786D01*
X-138685Y10006D01*
X-138243Y9344D01*
X-136556Y7657D01*
X-135895Y7215D01*
X-135114Y7060D01*
X-130123D01*
X-122812Y-251D01*
Y-33764D01*
X-123615Y-34566D01*
X-132615D01*
X-135518Y-31664D01*
X-136179Y-31222D01*
X-136960Y-31066D01*
X-152586D01*
X-153367Y-31222D01*
X-154028Y-31664D01*
X-156931Y-34566D01*
X-180487D01*
X-181268Y-34721D01*
X-181929Y-35163D01*
X-188926Y-42160D01*
X-189368Y-42821D01*
X-189523Y-43602D01*
Y-74366D01*
X-202328Y-87171D01*
X-279748Y-87171D01*
X-283403D01*
X-287708Y-82866D01*
Y-75250D01*
X-287695Y-75244D01*
X-286844Y-74592D01*
X-286192Y-73741D01*
X-285781Y-72751D01*
X-285642Y-71688D01*
Y-67988D01*
X-285781Y-66925D01*
X-286192Y-65935D01*
X-286844Y-65084D01*
X-287695Y-64432D01*
X-288685Y-64021D01*
X-289748Y-63882D01*
X-290810Y-64021D01*
X-291800Y-64432D01*
X-292651Y-65084D01*
X-293303Y-65935D01*
X-293713Y-66925D01*
X-293853Y-67988D01*
Y-71688D01*
X-293713Y-72751D01*
X-293303Y-73741D01*
X-292651Y-74592D01*
X-291800Y-75244D01*
X-291787Y-75250D01*
Y-82377D01*
X-292249Y-82568D01*
X-297708Y-77109D01*
Y-75250D01*
X-297694Y-75244D01*
X-296844Y-74592D01*
X-296192Y-73741D01*
X-295781Y-72751D01*
X-295641Y-71688D01*
Y-67988D01*
X-295781Y-66925D01*
X-296192Y-65935D01*
X-296844Y-65084D01*
X-297694Y-64432D01*
X-298685Y-64021D01*
X-299747Y-63882D01*
X-300810Y-64021D01*
X-301800Y-64432D01*
X-302651Y-65084D01*
X-303303Y-65935D01*
X-303713Y-66925D01*
X-303854Y-67988D01*
Y-71688D01*
X-303713Y-72751D01*
X-303303Y-73741D01*
X-302651Y-74592D01*
X-301800Y-75244D01*
X-301787Y-75250D01*
Y-76877D01*
X-302287Y-77248D01*
X-302748Y-77157D01*
X-305654D01*
X-307354Y-75457D01*
X-307321Y-74958D01*
X-306844Y-74592D01*
X-306192Y-73741D01*
X-305781Y-72751D01*
X-305642Y-71688D01*
Y-67988D01*
X-305781Y-66925D01*
X-306192Y-65935D01*
X-306844Y-65084D01*
X-307695Y-64432D01*
X-308685Y-64021D01*
X-309748Y-63882D01*
X-310810Y-64021D01*
X-311801Y-64432D01*
X-312651Y-65084D01*
X-313303Y-65935D01*
X-313714Y-66925D01*
X-313854Y-67988D01*
Y-71688D01*
X-313714Y-72751D01*
X-313303Y-73741D01*
X-312651Y-74592D01*
X-311801Y-75244D01*
X-311787Y-75250D01*
Y-75947D01*
X-311631Y-76727D01*
X-311189Y-77389D01*
X-307941Y-80638D01*
X-307941Y-80638D01*
X-307279Y-81080D01*
X-306499Y-81235D01*
X-303592D01*
X-288175Y-96653D01*
X-287513Y-97095D01*
X-286733Y-97250D01*
X-279748D01*
X-198999Y-97250D01*
X-198218Y-97095D01*
X-197557Y-96653D01*
X-180042Y-79138D01*
X-180042Y-79138D01*
X-179600Y-78476D01*
X-179445Y-77696D01*
Y-46932D01*
X-177157Y-44644D01*
X-156182D01*
Y-50106D01*
X-156027Y-50886D01*
X-155585Y-51547D01*
X-153912Y-53221D01*
X-153912Y-53221D01*
X-153250Y-53663D01*
X-152470Y-53818D01*
X-139090D01*
X-138310Y-53663D01*
X-137648Y-53221D01*
X-136572Y-52145D01*
X-85934D01*
Y-54105D01*
X-81683D01*
X-77434D01*
Y-52145D01*
X-70974D01*
X-70193Y-51989D01*
X-69532Y-51547D01*
X-58213Y-40229D01*
X-57771Y-39567D01*
X-57616Y-38787D01*
Y3079D01*
X-57616Y3079D01*
X-57771Y3859D01*
X-58213Y4521D01*
X-58213Y4521D01*
X-64644Y10952D01*
Y11796D01*
X-64502D01*
Y19899D01*
D02*
G37*
G36*
X-245345Y13646D02*
X-249004D01*
Y9986D01*
X-248764Y10018D01*
X-247608Y10497D01*
X-246616Y11258D01*
X-245855Y12250D01*
X-245376Y13406D01*
X-245345Y13646D01*
D02*
G37*
G36*
X-316845D02*
X-320504D01*
Y9986D01*
X-320264Y10018D01*
X-319109Y10497D01*
X-318116Y11258D01*
X-317355Y12250D01*
X-316876Y13406D01*
X-316845Y13646D01*
D02*
G37*
G36*
X-6032Y10837D02*
X-8000D01*
Y8087D01*
X-6032D01*
Y10837D01*
D02*
G37*
G36*
X-10000D02*
X-11969D01*
Y8087D01*
X-10000D01*
Y10837D01*
D02*
G37*
G36*
X-6032Y6087D02*
X-11969D01*
Y3337D01*
Y1000D01*
X-6032D01*
Y3337D01*
Y6087D01*
D02*
G37*
G36*
Y-1000D02*
X-8000D01*
Y-3750D01*
X-6032D01*
Y-1000D01*
D02*
G37*
G36*
X-10000D02*
X-11969D01*
Y-3750D01*
X-10000D01*
Y-1000D01*
D02*
G37*
G36*
X-80683Y101D02*
Y-4806D01*
X-77144D01*
Y-4306D01*
X-77299Y-3131D01*
X-77753Y-2037D01*
X-78474Y-1097D01*
X-79414Y-375D01*
X-80509Y78D01*
X-80683Y101D01*
D02*
G37*
G36*
X-82683D02*
X-82858Y78D01*
X-83953Y-375D01*
X-84893Y-1097D01*
X-85614Y-2037D01*
X-86067Y-3131D01*
X-86222Y-4306D01*
Y-4806D01*
X-82683D01*
Y101D01*
D02*
G37*
G36*
X-135801D02*
Y-4806D01*
X-132263D01*
Y-4306D01*
X-132417Y-3131D01*
X-132871Y-2037D01*
X-133592Y-1097D01*
X-134532Y-375D01*
X-135627Y78D01*
X-135801Y101D01*
D02*
G37*
G36*
X-137801D02*
X-137976Y78D01*
X-139071Y-375D01*
X-140011Y-1097D01*
X-140732Y-2037D01*
X-141186Y-3131D01*
X-141340Y-4306D01*
Y-4806D01*
X-137801D01*
Y101D01*
D02*
G37*
G36*
X-249004Y-5695D02*
Y-9354D01*
X-245345D01*
X-245376Y-9114D01*
X-245855Y-7959D01*
X-246616Y-6966D01*
X-247608Y-6205D01*
X-248764Y-5726D01*
X-249004Y-5695D01*
D02*
G37*
G36*
X-320504D02*
Y-9354D01*
X-316845D01*
X-316876Y-9114D01*
X-317355Y-7959D01*
X-318116Y-6966D01*
X-319109Y-6205D01*
X-320264Y-5726D01*
X-320504Y-5695D01*
D02*
G37*
G36*
X-251004Y-5695D02*
X-251244Y-5726D01*
X-252399Y-6205D01*
X-253392Y-6966D01*
X-254153Y-7959D01*
X-254632Y-9114D01*
X-254663Y-9354D01*
X-251004D01*
Y-5695D01*
D02*
G37*
G36*
X-322504D02*
X-322744Y-5726D01*
X-323900Y-6205D01*
X-324892Y-6966D01*
X-325653Y-7959D01*
X-326132Y-9114D01*
X-326163Y-9354D01*
X-322504D01*
Y-5695D01*
D02*
G37*
G36*
X-77144Y-6806D02*
X-80683D01*
Y-11713D01*
X-80509Y-11690D01*
X-79414Y-11237D01*
X-78474Y-10515D01*
X-77753Y-9576D01*
X-77299Y-8481D01*
X-77144Y-7306D01*
Y-6806D01*
D02*
G37*
G36*
X-82683D02*
X-86222D01*
Y-7306D01*
X-86067Y-8481D01*
X-85614Y-9576D01*
X-84893Y-10515D01*
X-83953Y-11237D01*
X-82858Y-11690D01*
X-82683Y-11713D01*
Y-6806D01*
D02*
G37*
G36*
X-132263D02*
X-135801D01*
Y-11713D01*
X-135627Y-11690D01*
X-134532Y-11237D01*
X-133592Y-10515D01*
X-132871Y-9576D01*
X-132417Y-8481D01*
X-132263Y-7306D01*
Y-6806D01*
D02*
G37*
G36*
X-137801D02*
X-141340D01*
Y-7306D01*
X-141186Y-8481D01*
X-140732Y-9576D01*
X-140011Y-10515D01*
X-139071Y-11237D01*
X-137976Y-11690D01*
X-137801Y-11713D01*
Y-6806D01*
D02*
G37*
G36*
X-251004Y-11354D02*
X-254663D01*
X-254632Y-11594D01*
X-254153Y-12750D01*
X-253392Y-13742D01*
X-252399Y-14503D01*
X-251244Y-14982D01*
X-251004Y-15014D01*
Y-11354D01*
D02*
G37*
G36*
X-322504D02*
X-326163D01*
X-326132Y-11594D01*
X-325653Y-12750D01*
X-324892Y-13742D01*
X-323900Y-14503D01*
X-322744Y-14982D01*
X-322504Y-15014D01*
Y-11354D01*
D02*
G37*
G36*
X-245345D02*
X-249004D01*
Y-15014D01*
X-248764Y-14982D01*
X-247608Y-14503D01*
X-246616Y-13742D01*
X-245855Y-12750D01*
X-245376Y-11594D01*
X-245345Y-11354D01*
D02*
G37*
G36*
X-316845D02*
X-320504D01*
Y-15014D01*
X-320264Y-14982D01*
X-319109Y-14503D01*
X-318116Y-13742D01*
X-317355Y-12750D01*
X-316876Y-11594D01*
X-316845Y-11354D01*
D02*
G37*
G36*
X-285504Y-15010D02*
Y-18669D01*
X-281845D01*
X-281876Y-18429D01*
X-282355Y-17274D01*
X-283116Y-16282D01*
X-284108Y-15520D01*
X-285264Y-15042D01*
X-285504Y-15010D01*
D02*
G37*
G36*
X-75683Y-17147D02*
Y-20554D01*
X-72276D01*
X-72299Y-20379D01*
X-72753Y-19285D01*
X-73474Y-18345D01*
X-74414Y-17623D01*
X-75509Y-17170D01*
X-75683Y-17147D01*
D02*
G37*
G36*
X-130801D02*
Y-20554D01*
X-127394D01*
X-127417Y-20379D01*
X-127871Y-19285D01*
X-128592Y-18345D01*
X-129532Y-17623D01*
X-130627Y-17170D01*
X-130801Y-17147D01*
D02*
G37*
G36*
X-77683Y-17147D02*
X-77858Y-17170D01*
X-78953Y-17623D01*
X-79893Y-18345D01*
X-80614Y-19285D01*
X-81068Y-20379D01*
X-81090Y-20554D01*
X-77683D01*
Y-17147D01*
D02*
G37*
G36*
X-132801D02*
X-132976Y-17170D01*
X-134071Y-17623D01*
X-135011Y-18345D01*
X-135732Y-19285D01*
X-136186Y-20379D01*
X-136209Y-20554D01*
X-132801D01*
Y-17147D01*
D02*
G37*
G36*
X-281845Y-20669D02*
X-285504D01*
Y-24329D01*
X-285264Y-24297D01*
X-284108Y-23818D01*
X-283116Y-23057D01*
X-282355Y-22065D01*
X-281876Y-20909D01*
X-281845Y-20669D01*
D02*
G37*
G36*
X-72276Y-22554D02*
X-75683D01*
Y-25961D01*
X-75509Y-25938D01*
X-74414Y-25485D01*
X-73474Y-24764D01*
X-72753Y-23823D01*
X-72299Y-22729D01*
X-72276Y-22554D01*
D02*
G37*
G36*
X-127394D02*
X-130801D01*
Y-25961D01*
X-130627Y-25938D01*
X-129532Y-25485D01*
X-128592Y-24764D01*
X-127871Y-23823D01*
X-127417Y-22729D01*
X-127394Y-22554D01*
D02*
G37*
G36*
X-77683D02*
X-81090D01*
X-81068Y-22729D01*
X-80614Y-23823D01*
X-79893Y-24764D01*
X-78953Y-25485D01*
X-77858Y-25938D01*
X-77683Y-25961D01*
Y-22554D01*
D02*
G37*
G36*
X-132801D02*
X-136209D01*
X-136186Y-22729D01*
X-135732Y-23823D01*
X-135011Y-24764D01*
X-134071Y-25485D01*
X-132976Y-25938D01*
X-132801Y-25961D01*
Y-22554D01*
D02*
G37*
G36*
X-77434Y-38605D02*
X-80683D01*
Y-41105D01*
X-77434D01*
Y-38605D01*
D02*
G37*
G36*
X-82683D02*
X-85934D01*
Y-41105D01*
X-82683D01*
Y-38605D01*
D02*
G37*
G36*
X-285504Y-40010D02*
Y-43669D01*
X-281845D01*
X-281876Y-43429D01*
X-282355Y-42274D01*
X-283116Y-41282D01*
X-284108Y-40520D01*
X-285264Y-40042D01*
X-285504Y-40010D01*
D02*
G37*
G36*
X-287504D02*
X-287744Y-40042D01*
X-288899Y-40520D01*
X-289892Y-41282D01*
X-290653Y-42274D01*
X-291132Y-43429D01*
X-291163Y-43669D01*
X-287504D01*
Y-40010D01*
D02*
G37*
G36*
X-281845Y-45669D02*
X-285504D01*
Y-49329D01*
X-285264Y-49297D01*
X-284108Y-48818D01*
X-283116Y-48057D01*
X-282355Y-47065D01*
X-281876Y-45909D01*
X-281845Y-45669D01*
D02*
G37*
G36*
X-287504D02*
X-291163D01*
X-291132Y-45909D01*
X-290653Y-47065D01*
X-289892Y-48057D01*
X-288899Y-48818D01*
X-287744Y-49297D01*
X-287504Y-49329D01*
Y-45669D01*
D02*
G37*
G36*
X-376464Y-55261D02*
X-378432D01*
Y-58011D01*
X-376464D01*
Y-55261D01*
D02*
G37*
G36*
X-380433D02*
X-382401D01*
Y-58011D01*
X-380433D01*
Y-55261D01*
D02*
G37*
G36*
X-77434Y-56105D02*
X-80683D01*
Y-58605D01*
X-77434D01*
Y-56105D01*
D02*
G37*
G36*
X-82683D02*
X-85934D01*
Y-58605D01*
X-82683D01*
Y-56105D01*
D02*
G37*
G36*
X15201Y-55929D02*
X10280D01*
Y-59000D01*
X15201D01*
Y-55929D01*
D02*
G37*
G36*
X8280D02*
X3358D01*
Y-59000D01*
X8280D01*
Y-55929D01*
D02*
G37*
G36*
X-376464Y-60011D02*
X-378432D01*
Y-62761D01*
X-376464D01*
Y-60011D01*
D02*
G37*
G36*
X-380433D02*
X-382401D01*
Y-62761D01*
X-380433D01*
Y-60011D01*
D02*
G37*
G36*
X15201Y-61000D02*
X10280D01*
Y-64071D01*
X15201D01*
Y-61000D01*
D02*
G37*
G36*
X8280D02*
X3358D01*
Y-64071D01*
X8280D01*
Y-61000D01*
D02*
G37*
G36*
X-359748Y-63882D02*
X-360810Y-64021D01*
X-361801Y-64432D01*
X-362651Y-65084D01*
X-363203Y-65803D01*
X-365433D01*
Y-64310D01*
X-375432D01*
Y-75366D01*
X-365433D01*
Y-73873D01*
X-363203D01*
X-362651Y-74592D01*
X-361801Y-75244D01*
X-360810Y-75655D01*
X-359748Y-75794D01*
X-358685Y-75655D01*
X-357695Y-75244D01*
X-356844Y-74592D01*
X-356192Y-73741D01*
X-355781Y-72751D01*
X-355642Y-71688D01*
Y-67988D01*
X-355781Y-66925D01*
X-356192Y-65935D01*
X-356844Y-65084D01*
X-357695Y-64432D01*
X-358685Y-64021D01*
X-359748Y-63882D01*
D02*
G37*
G36*
X-348747Y-64013D02*
Y-68838D01*
X-345641D01*
Y-67988D01*
X-345781Y-66925D01*
X-346192Y-65935D01*
X-346844Y-65084D01*
X-347694Y-64432D01*
X-348685Y-64021D01*
X-348747Y-64013D01*
D02*
G37*
G36*
X-350747Y-64013D02*
X-350810Y-64021D01*
X-351800Y-64432D01*
X-352651Y-65084D01*
X-353303Y-65935D01*
X-353713Y-66925D01*
X-353854Y-67988D01*
Y-68838D01*
X-350747D01*
Y-64013D01*
D02*
G37*
G36*
X-86172Y-71347D02*
X-88140D01*
Y-74098D01*
X-86172D01*
Y-71347D01*
D02*
G37*
G36*
X-90140D02*
X-92109D01*
Y-74098D01*
X-90140D01*
Y-71347D01*
D02*
G37*
G36*
X-359897Y-34025D02*
X-360775Y-34141D01*
X-361593Y-34480D01*
X-362295Y-35019D01*
X-362834Y-35721D01*
X-363173Y-36539D01*
X-363288Y-37417D01*
Y-39779D01*
X-363173Y-40657D01*
X-362834Y-41475D01*
X-362671Y-41687D01*
Y-45654D01*
X-365581Y-48564D01*
X-384932D01*
X-385650Y-48659D01*
X-386319Y-48936D01*
X-386894Y-49377D01*
X-390322Y-52805D01*
X-390763Y-53380D01*
X-391040Y-54049D01*
X-391135Y-54766D01*
Y-55261D01*
X-391401D01*
Y-62761D01*
X-391206D01*
Y-64310D01*
X-393432D01*
Y-75366D01*
X-383433D01*
Y-64310D01*
X-385659D01*
Y-62761D01*
X-385464D01*
Y-55792D01*
X-383784Y-54112D01*
X-364433D01*
X-363715Y-54017D01*
X-363046Y-53740D01*
X-362471Y-53299D01*
X-357936Y-48764D01*
X-357495Y-48189D01*
X-357218Y-47521D01*
X-357123Y-46803D01*
Y-41687D01*
X-356960Y-41475D01*
X-356622Y-40657D01*
X-356506Y-39779D01*
Y-37417D01*
X-356622Y-36539D01*
X-356960Y-35721D01*
X-357499Y-35019D01*
X-358202Y-34480D01*
X-359019Y-34141D01*
X-359897Y-34025D01*
D02*
G37*
G36*
X-345641Y-70838D02*
X-348747D01*
Y-75663D01*
X-348685Y-75655D01*
X-347694Y-75244D01*
X-346844Y-74592D01*
X-346192Y-73741D01*
X-345781Y-72751D01*
X-345641Y-71688D01*
Y-70838D01*
D02*
G37*
G36*
X-350747D02*
X-353854D01*
Y-71688D01*
X-353713Y-72751D01*
X-353303Y-73741D01*
X-352651Y-74592D01*
X-351800Y-75244D01*
X-350810Y-75655D01*
X-350747Y-75663D01*
Y-70838D01*
D02*
G37*
G36*
X-215677Y-63917D02*
X-223818D01*
Y-75759D01*
X-215677D01*
Y-63917D01*
D02*
G37*
G36*
X-229748Y-63882D02*
X-230810Y-64021D01*
X-231801Y-64432D01*
X-232651Y-65084D01*
X-233303Y-65935D01*
X-233714Y-66925D01*
X-233854Y-67988D01*
Y-71688D01*
X-233714Y-72751D01*
X-233303Y-73741D01*
X-232651Y-74592D01*
X-231801Y-75244D01*
X-230810Y-75655D01*
X-229748Y-75794D01*
X-228685Y-75655D01*
X-227695Y-75244D01*
X-226844Y-74592D01*
X-226192Y-73741D01*
X-225781Y-72751D01*
X-225641Y-71688D01*
Y-67988D01*
X-225781Y-66925D01*
X-226192Y-65935D01*
X-226844Y-65084D01*
X-227695Y-64432D01*
X-228685Y-64021D01*
X-229748Y-63882D01*
D02*
G37*
G36*
X-239748D02*
X-240810Y-64021D01*
X-241800Y-64432D01*
X-242651Y-65084D01*
X-243303Y-65935D01*
X-243713Y-66925D01*
X-243853Y-67988D01*
Y-71688D01*
X-243713Y-72751D01*
X-243303Y-73741D01*
X-242651Y-74592D01*
X-241800Y-75244D01*
X-240810Y-75655D01*
X-239748Y-75794D01*
X-238685Y-75655D01*
X-237695Y-75244D01*
X-236844Y-74592D01*
X-236192Y-73741D01*
X-235781Y-72751D01*
X-235642Y-71688D01*
Y-67988D01*
X-235781Y-66925D01*
X-236192Y-65935D01*
X-236844Y-65084D01*
X-237695Y-64432D01*
X-238685Y-64021D01*
X-239748Y-63882D01*
D02*
G37*
G36*
X-319747D02*
X-320810Y-64021D01*
X-321800Y-64432D01*
X-322651Y-65084D01*
X-323303Y-65935D01*
X-323713Y-66925D01*
X-323853Y-67988D01*
Y-71688D01*
X-323713Y-72751D01*
X-323303Y-73741D01*
X-322651Y-74592D01*
X-321800Y-75244D01*
X-320810Y-75655D01*
X-319747Y-75794D01*
X-318685Y-75655D01*
X-317694Y-75244D01*
X-316844Y-74592D01*
X-316192Y-73741D01*
X-315781Y-72751D01*
X-315641Y-71688D01*
Y-67988D01*
X-315781Y-66925D01*
X-316192Y-65935D01*
X-316844Y-65084D01*
X-317694Y-64432D01*
X-318685Y-64021D01*
X-319747Y-63882D01*
D02*
G37*
G36*
X-329748D02*
X-330810Y-64021D01*
X-331801Y-64432D01*
X-332651Y-65084D01*
X-333303Y-65935D01*
X-333714Y-66925D01*
X-333854Y-67988D01*
Y-71688D01*
X-333714Y-72751D01*
X-333303Y-73741D01*
X-332651Y-74592D01*
X-331801Y-75244D01*
X-330810Y-75655D01*
X-329748Y-75794D01*
X-328685Y-75655D01*
X-327695Y-75244D01*
X-326844Y-74592D01*
X-326192Y-73741D01*
X-325781Y-72751D01*
X-325641Y-71688D01*
Y-67988D01*
X-325781Y-66925D01*
X-326192Y-65935D01*
X-326844Y-65084D01*
X-327695Y-64432D01*
X-328685Y-64021D01*
X-329748Y-63882D01*
D02*
G37*
G36*
X-339748D02*
X-340810Y-64021D01*
X-341800Y-64432D01*
X-342651Y-65084D01*
X-343303Y-65935D01*
X-343713Y-66925D01*
X-343853Y-67988D01*
Y-71688D01*
X-343713Y-72751D01*
X-343303Y-73741D01*
X-342651Y-74592D01*
X-341800Y-75244D01*
X-340810Y-75655D01*
X-339748Y-75794D01*
X-338685Y-75655D01*
X-337695Y-75244D01*
X-336844Y-74592D01*
X-336192Y-73741D01*
X-335781Y-72751D01*
X-335642Y-71688D01*
Y-67988D01*
X-335781Y-66925D01*
X-336192Y-65935D01*
X-336844Y-65084D01*
X-337695Y-64432D01*
X-338685Y-64021D01*
X-339748Y-63882D01*
D02*
G37*
G36*
X-86172Y-76098D02*
X-92109D01*
Y-78847D01*
Y-81184D01*
X-86172D01*
Y-78847D01*
Y-76098D01*
D02*
G37*
G36*
Y-83184D02*
X-88140D01*
Y-85934D01*
X-86172D01*
Y-83184D01*
D02*
G37*
G36*
X-90140D02*
X-92109D01*
Y-85934D01*
X-90140D01*
Y-83184D01*
D02*
G37*
G36*
X-95171Y-71347D02*
X-101109D01*
Y-78847D01*
Y-85934D01*
X-100179D01*
Y-87090D01*
X-100321D01*
Y-89987D01*
X-107353D01*
Y-88277D01*
X-113290D01*
Y-95777D01*
X-107353D01*
Y-94066D01*
X-100321D01*
Y-96964D01*
X-95959D01*
Y-87090D01*
X-96101D01*
Y-85934D01*
X-95171D01*
Y-78847D01*
Y-71347D01*
D02*
G37*
G36*
X-40959Y-87090D02*
X-42140D01*
Y-91027D01*
X-40959D01*
Y-87090D01*
D02*
G37*
G36*
X-44140D02*
X-45321D01*
Y-91027D01*
X-44140D01*
Y-87090D01*
D02*
G37*
G36*
X-40959Y-93027D02*
X-42140D01*
Y-96964D01*
X-40959D01*
Y-93027D01*
D02*
G37*
G36*
X-44140D02*
X-45321D01*
Y-96964D01*
X-44140D01*
Y-93027D01*
D02*
G37*
G36*
X-90959Y-87090D02*
X-95321D01*
Y-96964D01*
X-90959D01*
Y-87090D01*
D02*
G37*
G36*
X-113321Y-102079D02*
Y-105397D01*
X-112097D01*
Y-104034D01*
X-112267Y-103183D01*
X-112749Y-102462D01*
X-113321Y-102079D01*
D02*
G37*
G36*
X-115321Y-102079D02*
X-115894Y-102462D01*
X-116376Y-103183D01*
X-116545Y-104034D01*
Y-105397D01*
X-115321D01*
Y-102079D01*
D02*
G37*
G36*
X-52140Y-123704D02*
Y-127641D01*
X-50959D01*
Y-123704D01*
X-52140D01*
D02*
G37*
G36*
X-114321Y-124055D02*
X-115172Y-124224D01*
X-115894Y-124706D01*
X-116376Y-125427D01*
X-116545Y-126279D01*
Y-131003D01*
X-116376Y-131854D01*
X-115894Y-132576D01*
X-115172Y-133057D01*
X-114321Y-133227D01*
X-113470Y-133057D01*
X-112749Y-132576D01*
X-112267Y-131854D01*
X-112097Y-131003D01*
Y-126279D01*
X-112267Y-125427D01*
X-112749Y-124706D01*
X-113470Y-124224D01*
X-114321Y-124055D01*
D02*
G37*
G36*
X-119321D02*
X-120172Y-124224D01*
X-120894Y-124706D01*
X-121376Y-125427D01*
X-121545Y-126279D01*
Y-131003D01*
X-121376Y-131854D01*
X-120894Y-132576D01*
X-120172Y-133057D01*
X-119321Y-133227D01*
X-118470Y-133057D01*
X-117749Y-132576D01*
X-117267Y-131854D01*
X-117097Y-131003D01*
Y-126279D01*
X-117267Y-125427D01*
X-117749Y-124706D01*
X-118470Y-124224D01*
X-119321Y-124055D01*
D02*
G37*
G36*
X-80959Y-123704D02*
X-85321D01*
Y-133578D01*
X-80959D01*
Y-123704D01*
D02*
G37*
G36*
X-85959D02*
X-90321D01*
Y-133578D01*
X-85959D01*
Y-123704D01*
D02*
G37*
G36*
X-54140Y-129641D02*
X-55321D01*
Y-133578D01*
X-54140D01*
Y-129641D01*
D02*
G37*
G36*
X-373747Y-133935D02*
Y-137342D01*
X-370340D01*
X-370363Y-137167D01*
X-370817Y-136073D01*
X-371538Y-135133D01*
X-372478Y-134411D01*
X-373573Y-133958D01*
X-373747Y-133935D01*
D02*
G37*
G36*
X-375747D02*
X-375922Y-133958D01*
X-377017Y-134411D01*
X-377957Y-135133D01*
X-378678Y-136073D01*
X-379132Y-137167D01*
X-379155Y-137342D01*
X-375747D01*
Y-133935D01*
D02*
G37*
G36*
X-370340Y-139342D02*
X-373747D01*
Y-142749D01*
X-373573Y-142726D01*
X-372478Y-142273D01*
X-371538Y-141551D01*
X-370817Y-140611D01*
X-370363Y-139517D01*
X-370340Y-139342D01*
D02*
G37*
G36*
X-375747D02*
X-379155D01*
X-379132Y-139517D01*
X-378678Y-140611D01*
X-377957Y-141551D01*
X-377017Y-142273D01*
X-375922Y-142726D01*
X-375747Y-142749D01*
Y-139342D01*
D02*
G37*
G36*
X-368747Y-148183D02*
Y-153090D01*
X-365209D01*
Y-152590D01*
X-365363Y-151415D01*
X-365817Y-150321D01*
X-366538Y-149381D01*
X-367478Y-148659D01*
X-368573Y-148206D01*
X-368747Y-148183D01*
D02*
G37*
G36*
X-370747D02*
X-370922Y-148206D01*
X-372017Y-148659D01*
X-372957Y-149381D01*
X-373678Y-150321D01*
X-374132Y-151415D01*
X-374286Y-152590D01*
Y-153090D01*
X-370747D01*
Y-148183D01*
D02*
G37*
G36*
X-365209Y-155090D02*
X-368747D01*
Y-159997D01*
X-368573Y-159974D01*
X-367478Y-159521D01*
X-366538Y-158799D01*
X-365817Y-157859D01*
X-365363Y-156765D01*
X-365209Y-155590D01*
Y-155090D01*
D02*
G37*
G36*
X-370747D02*
X-374286D01*
Y-155590D01*
X-374132Y-156765D01*
X-373678Y-157859D01*
X-372957Y-158799D01*
X-372017Y-159521D01*
X-370922Y-159974D01*
X-370747Y-159997D01*
Y-155090D01*
D02*
G37*
G36*
X15201Y-162267D02*
X10280D01*
Y-165338D01*
X15201D01*
Y-162267D01*
D02*
G37*
G36*
X8280D02*
X3358D01*
Y-165338D01*
X8280D01*
Y-162267D01*
D02*
G37*
G36*
X-348747Y-164013D02*
Y-168838D01*
X-345641D01*
Y-167988D01*
X-345781Y-166925D01*
X-346192Y-165935D01*
X-346844Y-165084D01*
X-347694Y-164432D01*
X-348685Y-164022D01*
X-348747Y-164013D01*
D02*
G37*
G36*
X-350747D02*
X-350810Y-164022D01*
X-351800Y-164432D01*
X-352651Y-165084D01*
X-353303Y-165935D01*
X-353713Y-166925D01*
X-353854Y-167988D01*
Y-168838D01*
X-350747D01*
Y-164013D01*
D02*
G37*
G36*
X15201Y-167338D02*
X10280D01*
Y-170409D01*
X15201D01*
Y-167338D01*
D02*
G37*
G36*
X8280D02*
X3358D01*
Y-170409D01*
X8280D01*
Y-167338D01*
D02*
G37*
G36*
X-23396Y-163439D02*
X-24557Y-163553D01*
X-25673Y-163892D01*
X-26702Y-164442D01*
X-27603Y-165182D01*
X-28343Y-166083D01*
X-28893Y-167112D01*
X-29232Y-168228D01*
X-29346Y-169389D01*
X-29232Y-170550D01*
X-28893Y-171666D01*
X-28343Y-172694D01*
X-27603Y-173596D01*
X-26702Y-174336D01*
X-25673Y-174886D01*
X-24557Y-175224D01*
X-23396Y-175339D01*
X-22235Y-175224D01*
X-21119Y-174886D01*
X-20090Y-174336D01*
X-19189Y-173596D01*
X-18449Y-172694D01*
X-17899Y-171666D01*
X-17560Y-170550D01*
X-17446Y-169389D01*
X-17560Y-168228D01*
X-17899Y-167112D01*
X-18449Y-166083D01*
X-19189Y-165182D01*
X-20090Y-164442D01*
X-21119Y-163892D01*
X-22235Y-163553D01*
X-23396Y-163439D01*
D02*
G37*
G36*
X-345641Y-170838D02*
X-348747D01*
Y-175663D01*
X-348685Y-175654D01*
X-347694Y-175244D01*
X-346844Y-174592D01*
X-346192Y-173741D01*
X-345781Y-172751D01*
X-345641Y-171688D01*
Y-170838D01*
D02*
G37*
G36*
X-350747D02*
X-353854D01*
Y-171688D01*
X-353713Y-172751D01*
X-353303Y-173741D01*
X-352651Y-174592D01*
X-351800Y-175244D01*
X-350810Y-175654D01*
X-350747Y-175663D01*
Y-170838D01*
D02*
G37*
G36*
X-239748Y-163882D02*
X-240810Y-164022D01*
X-241800Y-164432D01*
X-242651Y-165084D01*
X-243303Y-165935D01*
X-243713Y-166925D01*
X-243853Y-167988D01*
Y-171688D01*
X-243713Y-172751D01*
X-243303Y-173741D01*
X-242651Y-174592D01*
X-241800Y-175244D01*
X-240810Y-175654D01*
X-239748Y-175794D01*
X-238685Y-175654D01*
X-237695Y-175244D01*
X-236844Y-174592D01*
X-236192Y-173741D01*
X-235781Y-172751D01*
X-235642Y-171688D01*
Y-167988D01*
X-235781Y-166925D01*
X-236192Y-165935D01*
X-236844Y-165084D01*
X-237695Y-164432D01*
X-238685Y-164022D01*
X-239748Y-163882D01*
D02*
G37*
G36*
X-249747D02*
X-250810Y-164022D01*
X-251800Y-164432D01*
X-252651Y-165084D01*
X-253303Y-165935D01*
X-253713Y-166925D01*
X-253854Y-167988D01*
Y-171688D01*
X-253713Y-172751D01*
X-253303Y-173741D01*
X-252651Y-174592D01*
X-251800Y-175244D01*
X-250810Y-175654D01*
X-249747Y-175794D01*
X-248685Y-175654D01*
X-247694Y-175244D01*
X-246844Y-174592D01*
X-246192Y-173741D01*
X-245781Y-172751D01*
X-245641Y-171688D01*
Y-167988D01*
X-245781Y-166925D01*
X-246192Y-165935D01*
X-246844Y-165084D01*
X-247694Y-164432D01*
X-248685Y-164022D01*
X-249747Y-163882D01*
D02*
G37*
G36*
X-299747D02*
X-300810Y-164022D01*
X-301800Y-164432D01*
X-302651Y-165084D01*
X-303303Y-165935D01*
X-303713Y-166925D01*
X-303854Y-167988D01*
Y-171688D01*
X-303713Y-172751D01*
X-303303Y-173741D01*
X-302651Y-174592D01*
X-301800Y-175244D01*
X-300810Y-175654D01*
X-299747Y-175794D01*
X-298685Y-175654D01*
X-297694Y-175244D01*
X-296844Y-174592D01*
X-296192Y-173741D01*
X-295781Y-172751D01*
X-295641Y-171688D01*
Y-167988D01*
X-295781Y-166925D01*
X-296192Y-165935D01*
X-296844Y-165084D01*
X-297694Y-164432D01*
X-298685Y-164022D01*
X-299747Y-163882D01*
D02*
G37*
G36*
X-309748D02*
X-310810Y-164022D01*
X-311801Y-164432D01*
X-312651Y-165084D01*
X-313303Y-165935D01*
X-313714Y-166925D01*
X-313854Y-167988D01*
Y-171688D01*
X-313714Y-172751D01*
X-313303Y-173741D01*
X-312651Y-174592D01*
X-311801Y-175244D01*
X-310810Y-175654D01*
X-309748Y-175794D01*
X-308685Y-175654D01*
X-307695Y-175244D01*
X-306844Y-174592D01*
X-306192Y-173741D01*
X-305781Y-172751D01*
X-305642Y-171688D01*
Y-167988D01*
X-305781Y-166925D01*
X-306192Y-165935D01*
X-306844Y-165084D01*
X-307695Y-164432D01*
X-308685Y-164022D01*
X-309748Y-163882D01*
D02*
G37*
G36*
X-319747D02*
X-320810Y-164022D01*
X-321800Y-164432D01*
X-322651Y-165084D01*
X-323303Y-165935D01*
X-323713Y-166925D01*
X-323853Y-167988D01*
Y-171688D01*
X-323713Y-172751D01*
X-323303Y-173741D01*
X-322651Y-174592D01*
X-321800Y-175244D01*
X-320810Y-175654D01*
X-319747Y-175794D01*
X-318685Y-175654D01*
X-317694Y-175244D01*
X-316844Y-174592D01*
X-316192Y-173741D01*
X-315781Y-172751D01*
X-315641Y-171688D01*
Y-167988D01*
X-315781Y-166925D01*
X-316192Y-165935D01*
X-316844Y-165084D01*
X-317694Y-164432D01*
X-318685Y-164022D01*
X-319747Y-163882D01*
D02*
G37*
G36*
X-329748D02*
X-330810Y-164022D01*
X-331801Y-164432D01*
X-332651Y-165084D01*
X-333303Y-165935D01*
X-333714Y-166925D01*
X-333854Y-167988D01*
Y-171688D01*
X-333714Y-172751D01*
X-333303Y-173741D01*
X-332651Y-174592D01*
X-331801Y-175244D01*
X-330810Y-175654D01*
X-329748Y-175794D01*
X-328685Y-175654D01*
X-327695Y-175244D01*
X-326844Y-174592D01*
X-326192Y-173741D01*
X-325781Y-172751D01*
X-325641Y-171688D01*
Y-167988D01*
X-325781Y-166925D01*
X-326192Y-165935D01*
X-326844Y-165084D01*
X-327695Y-164432D01*
X-328685Y-164022D01*
X-329748Y-163882D01*
D02*
G37*
G36*
X-390671Y-191799D02*
X-390845Y-191822D01*
X-391940Y-192275D01*
X-392880Y-192997D01*
X-393601Y-193937D01*
X-394055Y-195031D01*
X-394078Y-195206D01*
X-390671D01*
Y-191799D01*
D02*
G37*
G36*
Y-197206D02*
X-394078D01*
X-394055Y-197381D01*
X-393601Y-198475D01*
X-392880Y-199415D01*
X-391940Y-200137D01*
X-390845Y-200590D01*
X-390671Y-200613D01*
Y-197206D01*
D02*
G37*
G36*
X-342143Y-190530D02*
X-343690Y-190682D01*
X-345177Y-191133D01*
X-346548Y-191866D01*
X-347749Y-192852D01*
X-348735Y-194053D01*
X-349468Y-195424D01*
X-349919Y-196911D01*
X-350071Y-198458D01*
X-349919Y-200005D01*
X-349468Y-201492D01*
X-348735Y-202863D01*
X-347749Y-204064D01*
X-346548Y-205050D01*
X-345177Y-205782D01*
X-343690Y-206234D01*
X-342143Y-206386D01*
X-340597Y-206234D01*
X-339109Y-205782D01*
X-337739Y-205050D01*
X-336537Y-204064D01*
X-335551Y-202863D01*
X-334819Y-201492D01*
X-334367Y-200005D01*
X-334215Y-198458D01*
X-334367Y-196911D01*
X-334819Y-195424D01*
X-335551Y-194053D01*
X-336537Y-192852D01*
X-337739Y-191866D01*
X-339109Y-191133D01*
X-340597Y-190682D01*
X-342143Y-190530D01*
D02*
G37*
G36*
X-191266Y-206799D02*
Y-210206D01*
X-187858D01*
X-187881Y-210031D01*
X-188335Y-208937D01*
X-189056Y-207997D01*
X-189996Y-207275D01*
X-191091Y-206822D01*
X-191266Y-206799D01*
D02*
G37*
G36*
X-193266D02*
X-193440Y-206822D01*
X-194535Y-207275D01*
X-195475Y-207997D01*
X-196196Y-208937D01*
X-196650Y-210031D01*
X-196673Y-210206D01*
X-193266D01*
Y-206799D01*
D02*
G37*
G36*
X-47199Y-209471D02*
X-52809D01*
Y-211439D01*
X-47199D01*
Y-209471D01*
D02*
G37*
G36*
X-54809D02*
X-60419D01*
Y-211439D01*
X-54809D01*
Y-209471D01*
D02*
G37*
G36*
X-388174Y-211241D02*
X-390142D01*
Y-213210D01*
X-388174D01*
Y-211241D01*
D02*
G37*
G36*
X-392142D02*
X-394110D01*
Y-213210D01*
X-392142D01*
Y-211241D01*
D02*
G37*
G36*
X-47199Y-213439D02*
X-52809D01*
Y-215407D01*
X-47199D01*
Y-213439D01*
D02*
G37*
G36*
X-54809D02*
X-60419D01*
Y-215407D01*
X-54809D01*
Y-213439D01*
D02*
G37*
G36*
X-187858Y-212206D02*
X-191266D01*
Y-215613D01*
X-191091Y-215590D01*
X-189996Y-215137D01*
X-189056Y-214415D01*
X-188335Y-213475D01*
X-187881Y-212381D01*
X-187858Y-212206D01*
D02*
G37*
G36*
X-193266D02*
X-196673D01*
X-196650Y-212381D01*
X-196196Y-213475D01*
X-195475Y-214415D01*
X-194535Y-215137D01*
X-193440Y-215590D01*
X-193266Y-215613D01*
Y-212206D01*
D02*
G37*
G36*
X-388174Y-215210D02*
X-390142D01*
Y-217178D01*
X-388174D01*
Y-215210D01*
D02*
G37*
G36*
X-392142D02*
X-394110D01*
Y-217178D01*
X-392142D01*
Y-215210D01*
D02*
G37*
G36*
X-61104Y-219555D02*
X-63073D01*
Y-222305D01*
X-61104D01*
Y-219555D01*
D02*
G37*
G36*
X-65073D02*
X-67041D01*
Y-222305D01*
X-65073D01*
Y-219555D01*
D02*
G37*
G36*
X-105742Y-223284D02*
Y-227687D01*
X-102708D01*
Y-227187D01*
X-102845Y-226143D01*
X-103248Y-225169D01*
X-103890Y-224334D01*
X-104725Y-223693D01*
X-105698Y-223290D01*
X-105742Y-223284D01*
D02*
G37*
G36*
X-107742D02*
X-107787Y-223290D01*
X-108760Y-223693D01*
X-109595Y-224334D01*
X-110236Y-225169D01*
X-110639Y-226143D01*
X-110777Y-227187D01*
Y-227687D01*
X-107742D01*
Y-223284D01*
D02*
G37*
G36*
X-132900D02*
Y-227687D01*
X-129865D01*
Y-227187D01*
X-130003Y-226143D01*
X-130406Y-225169D01*
X-131047Y-224334D01*
X-131883Y-223693D01*
X-132856Y-223290D01*
X-132900Y-223284D01*
D02*
G37*
G36*
X-134900D02*
X-134944Y-223290D01*
X-135917Y-223693D01*
X-136753Y-224334D01*
X-137394Y-225169D01*
X-137797Y-226143D01*
X-137934Y-227187D01*
Y-227687D01*
X-134900D01*
Y-223284D01*
D02*
G37*
G36*
X-388174Y-226990D02*
X-390142D01*
Y-228958D01*
X-388174D01*
Y-226990D01*
D02*
G37*
G36*
X-392142D02*
X-394110D01*
Y-228958D01*
X-392142D01*
Y-226990D01*
D02*
G37*
G36*
X-388174Y-230958D02*
X-390142D01*
Y-232927D01*
X-388174D01*
Y-230958D01*
D02*
G37*
G36*
X-392142D02*
X-394110D01*
Y-232927D01*
X-392142D01*
Y-230958D01*
D02*
G37*
G36*
X-61104Y-224305D02*
X-64073D01*
X-67041D01*
Y-226642D01*
X-67042D01*
Y-234142D01*
X-61105D01*
Y-232431D01*
X-60419D01*
Y-233360D01*
X-47199D01*
Y-227423D01*
X-60419D01*
Y-228353D01*
X-61105D01*
Y-227055D01*
X-61104D01*
Y-224305D01*
D02*
G37*
G36*
X-373973Y-226208D02*
X-379910D01*
Y-226723D01*
X-380299Y-226990D01*
X-386237D01*
Y-232927D01*
X-380299D01*
X-379910Y-233193D01*
Y-233708D01*
X-373973D01*
Y-226208D01*
D02*
G37*
G36*
X-134900Y-229687D02*
X-137934D01*
Y-230187D01*
X-137797Y-231231D01*
X-137394Y-232204D01*
X-136753Y-233040D01*
X-135917Y-233681D01*
X-134944Y-234084D01*
X-134900Y-234090D01*
Y-229687D01*
D02*
G37*
G36*
X-102708Y-229687D02*
X-105742D01*
Y-234090D01*
X-105698Y-234084D01*
X-104725Y-233681D01*
X-103890Y-233040D01*
X-103248Y-232204D01*
X-102845Y-231231D01*
X-102708Y-230187D01*
Y-229687D01*
D02*
G37*
G36*
X-107742D02*
X-110777D01*
Y-230187D01*
X-110639Y-231231D01*
X-110236Y-232204D01*
X-109595Y-233040D01*
X-108760Y-233681D01*
X-107787Y-234084D01*
X-107742Y-234090D01*
Y-229687D01*
D02*
G37*
G36*
X-129865Y-229687D02*
X-132900D01*
Y-234090D01*
X-132856Y-234084D01*
X-131883Y-233681D01*
X-131047Y-233040D01*
X-130406Y-232204D01*
X-130003Y-231231D01*
X-129865Y-230187D01*
Y-229687D01*
D02*
G37*
G36*
X-93774Y-212141D02*
X-99711D01*
Y-219641D01*
X-98782D01*
Y-223187D01*
X-100742D01*
Y-234187D01*
X-92742D01*
Y-223187D01*
X-94703D01*
Y-219641D01*
X-93774D01*
Y-212141D01*
D02*
G37*
G36*
X-120931D02*
X-126868D01*
Y-219641D01*
X-125939D01*
Y-223187D01*
X-127900D01*
Y-234187D01*
X-119900D01*
Y-223187D01*
X-121861D01*
Y-219641D01*
X-120931D01*
Y-212141D01*
D02*
G37*
G36*
X-388174Y-242738D02*
X-390142D01*
Y-244706D01*
X-388174D01*
Y-242738D01*
D02*
G37*
G36*
X-392142D02*
X-394110D01*
Y-244706D01*
X-392142D01*
Y-242738D01*
D02*
G37*
G36*
X-388174Y-246706D02*
X-390142D01*
Y-248675D01*
X-388174D01*
Y-246706D01*
D02*
G37*
G36*
X-392142D02*
X-394110D01*
Y-248675D01*
X-392142D01*
Y-246706D01*
D02*
G37*
G36*
X-373973Y-241956D02*
X-379910D01*
Y-242471D01*
X-380299Y-242738D01*
X-386237D01*
Y-248675D01*
X-380299D01*
X-379910Y-248941D01*
Y-249456D01*
X-373973D01*
Y-241956D01*
D02*
G37*
G36*
X-105742Y-253284D02*
Y-257687D01*
X-102708D01*
Y-257187D01*
X-102845Y-256143D01*
X-103248Y-255170D01*
X-103890Y-254334D01*
X-104725Y-253693D01*
X-105698Y-253290D01*
X-105742Y-253284D01*
D02*
G37*
G36*
X-107742D02*
X-107787Y-253290D01*
X-108760Y-253693D01*
X-109595Y-254334D01*
X-110236Y-255170D01*
X-110639Y-256143D01*
X-110777Y-257187D01*
Y-257687D01*
X-107742D01*
Y-253284D01*
D02*
G37*
G36*
X-132900D02*
Y-257687D01*
X-129865D01*
Y-257187D01*
X-130003Y-256143D01*
X-130406Y-255170D01*
X-131047Y-254334D01*
X-131883Y-253693D01*
X-132856Y-253290D01*
X-132900Y-253284D01*
D02*
G37*
G36*
X-134900D02*
X-134944Y-253290D01*
X-135917Y-253693D01*
X-136753Y-254334D01*
X-137394Y-255170D01*
X-137797Y-256143D01*
X-137934Y-257187D01*
Y-257687D01*
X-134900D01*
Y-253284D01*
D02*
G37*
G36*
X-204395Y-258301D02*
Y-262710D01*
X-200637D01*
X-200767Y-261720D01*
X-201246Y-260564D01*
X-202007Y-259572D01*
X-203000Y-258811D01*
X-204155Y-258332D01*
X-204395Y-258301D01*
D02*
G37*
G36*
X-206395D02*
X-206635Y-258332D01*
X-207791Y-258811D01*
X-208783Y-259572D01*
X-209544Y-260564D01*
X-210023Y-261720D01*
X-210153Y-262710D01*
X-206395D01*
Y-258301D01*
D02*
G37*
G36*
X-359891D02*
Y-262710D01*
X-356133D01*
X-356263Y-261720D01*
X-356742Y-260564D01*
X-357503Y-259572D01*
X-358496Y-258811D01*
X-359651Y-258332D01*
X-359891Y-258301D01*
D02*
G37*
G36*
X-361891D02*
X-362131Y-258332D01*
X-363287Y-258811D01*
X-364279Y-259572D01*
X-365040Y-260564D01*
X-365519Y-261720D01*
X-365649Y-262710D01*
X-361891D01*
Y-258301D01*
D02*
G37*
G36*
X-134900Y-259687D02*
X-137934D01*
Y-260187D01*
X-137797Y-261231D01*
X-137394Y-262204D01*
X-136753Y-263040D01*
X-135917Y-263681D01*
X-134944Y-264084D01*
X-134900Y-264090D01*
Y-259687D01*
D02*
G37*
G36*
X-102708Y-259687D02*
X-105742D01*
Y-264090D01*
X-105698Y-264084D01*
X-104725Y-263681D01*
X-103890Y-263040D01*
X-103248Y-262204D01*
X-102845Y-261231D01*
X-102708Y-260187D01*
Y-259687D01*
D02*
G37*
G36*
X-107742D02*
X-110777D01*
Y-260187D01*
X-110639Y-261231D01*
X-110236Y-262204D01*
X-109595Y-263040D01*
X-108760Y-263681D01*
X-107787Y-264084D01*
X-107742Y-264090D01*
Y-259687D01*
D02*
G37*
G36*
X-129865Y-259687D02*
X-132900D01*
Y-264090D01*
X-132856Y-264084D01*
X-131883Y-263681D01*
X-131047Y-263040D01*
X-130406Y-262204D01*
X-130003Y-261231D01*
X-129865Y-260187D01*
Y-259687D01*
D02*
G37*
G36*
X-200637Y-264710D02*
X-204395D01*
Y-269119D01*
X-204155Y-269088D01*
X-203000Y-268609D01*
X-202007Y-267848D01*
X-201246Y-266855D01*
X-200767Y-265700D01*
X-200637Y-264710D01*
D02*
G37*
G36*
X-206395D02*
X-210153D01*
X-210023Y-265700D01*
X-209544Y-266855D01*
X-208783Y-267848D01*
X-207791Y-268609D01*
X-206635Y-269088D01*
X-206395Y-269119D01*
Y-264710D01*
D02*
G37*
G36*
X-356133D02*
X-359891D01*
Y-269119D01*
X-359651Y-269088D01*
X-358496Y-268609D01*
X-357503Y-267848D01*
X-356742Y-266855D01*
X-356263Y-265700D01*
X-356133Y-264710D01*
D02*
G37*
G36*
X-361891D02*
X-365649D01*
X-365519Y-265700D01*
X-365040Y-266855D01*
X-364279Y-267848D01*
X-363287Y-268609D01*
X-362131Y-269088D01*
X-361891Y-269119D01*
Y-264710D01*
D02*
G37*
G36*
X-224143Y-253530D02*
X-225690Y-253682D01*
X-227177Y-254134D01*
X-228548Y-254866D01*
X-229749Y-255852D01*
X-230735Y-257053D01*
X-231468Y-258424D01*
X-231919Y-259911D01*
X-232071Y-261458D01*
X-231919Y-263005D01*
X-231468Y-264492D01*
X-230735Y-265862D01*
X-229749Y-267064D01*
X-228548Y-268050D01*
X-227177Y-268782D01*
X-225690Y-269234D01*
X-224143Y-269386D01*
X-222597Y-269234D01*
X-221109Y-268782D01*
X-219739Y-268050D01*
X-218537Y-267064D01*
X-217551Y-265862D01*
X-216819Y-264492D01*
X-216368Y-263005D01*
X-216215Y-261458D01*
X-216368Y-259911D01*
X-216819Y-258424D01*
X-217551Y-257053D01*
X-218537Y-255852D01*
X-219739Y-254866D01*
X-221109Y-254134D01*
X-222597Y-253682D01*
X-224143Y-253530D01*
D02*
G37*
G36*
X-123900Y-253152D02*
X-124944Y-253290D01*
X-125917Y-253693D01*
X-126753Y-254334D01*
X-127394Y-255170D01*
X-127797Y-256143D01*
X-127934Y-257187D01*
Y-260187D01*
X-127797Y-261231D01*
X-127394Y-262204D01*
X-126753Y-263040D01*
X-125939Y-263664D01*
Y-264189D01*
X-126868D01*
Y-271689D01*
X-126868Y-271689D01*
X-126868D01*
X-127001Y-272149D01*
X-131300Y-276448D01*
X-131742Y-277109D01*
X-131897Y-277890D01*
Y-296006D01*
X-132039D01*
Y-304108D01*
X-127677D01*
Y-296006D01*
X-127819D01*
Y-278734D01*
X-122458Y-273373D01*
X-122016Y-272712D01*
X-121861Y-271931D01*
Y-271689D01*
X-120931D01*
Y-264189D01*
X-121861D01*
Y-263664D01*
X-121047Y-263040D01*
X-120406Y-262204D01*
X-120003Y-261231D01*
X-119865Y-260187D01*
Y-257187D01*
X-120003Y-256143D01*
X-120406Y-255170D01*
X-121047Y-254334D01*
X-121883Y-253693D01*
X-122856Y-253290D01*
X-123900Y-253152D01*
D02*
G37*
G36*
X-47199Y-275768D02*
X-52809D01*
Y-277737D01*
X-47199D01*
Y-275768D01*
D02*
G37*
G36*
X-54809D02*
X-60419D01*
Y-277737D01*
X-54809D01*
Y-275768D01*
D02*
G37*
G36*
X-47199Y-279737D02*
X-52809D01*
Y-281705D01*
X-47199D01*
Y-279737D01*
D02*
G37*
G36*
X-54809D02*
X-60419D01*
Y-281705D01*
X-54809D01*
Y-279737D01*
D02*
G37*
G36*
X-61104Y-285853D02*
X-63073D01*
Y-288603D01*
X-61104D01*
Y-285853D01*
D02*
G37*
G36*
X-65073D02*
X-67041D01*
Y-288603D01*
X-65073D01*
Y-285853D01*
D02*
G37*
G36*
X-174912Y-279202D02*
X-182426D01*
X-183394Y-279329D01*
X-184296Y-279703D01*
X-185070Y-280297D01*
X-185664Y-281071D01*
X-186038Y-281973D01*
X-186165Y-282941D01*
Y-290061D01*
X-174912D01*
Y-279202D01*
D02*
G37*
G36*
X-379999Y-288126D02*
Y-292978D01*
X-375148D01*
X-375164Y-292817D01*
X-375502Y-291701D01*
X-376052Y-290672D01*
X-376792Y-289771D01*
X-377694Y-289031D01*
X-378722Y-288481D01*
X-379838Y-288142D01*
X-379999Y-288126D01*
D02*
G37*
G36*
X-381999Y-288126D02*
X-382160Y-288142D01*
X-383276Y-288481D01*
X-384305Y-289031D01*
X-385206Y-289771D01*
X-385946Y-290672D01*
X-386496Y-291701D01*
X-386835Y-292817D01*
X-386851Y-292978D01*
X-381999D01*
Y-288126D01*
D02*
G37*
G36*
X-97677Y-296006D02*
X-98858D01*
Y-299057D01*
X-97677D01*
Y-296006D01*
D02*
G37*
G36*
X-100858D02*
X-102039D01*
Y-299057D01*
X-100858D01*
Y-296006D01*
D02*
G37*
G36*
X-61104Y-290603D02*
X-64073D01*
X-67041D01*
Y-292940D01*
X-67042D01*
Y-300440D01*
X-61105D01*
Y-298729D01*
X-60419D01*
Y-299658D01*
X-47199D01*
Y-293721D01*
X-60419D01*
Y-294651D01*
X-61105D01*
Y-293353D01*
X-61104D01*
Y-290603D01*
D02*
G37*
G36*
X-381999Y-294978D02*
X-386851D01*
X-386835Y-295139D01*
X-386496Y-296255D01*
X-385946Y-297284D01*
X-385206Y-298185D01*
X-384305Y-298925D01*
X-383276Y-299475D01*
X-382160Y-299814D01*
X-381999Y-299829D01*
Y-294978D01*
D02*
G37*
G36*
X-375148D02*
X-379999D01*
Y-299829D01*
X-379838Y-299814D01*
X-378722Y-299475D01*
X-377694Y-298925D01*
X-376792Y-298185D01*
X-376052Y-297284D01*
X-375502Y-296255D01*
X-375164Y-295139D01*
X-375148Y-294978D01*
D02*
G37*
G36*
X-174912Y-292061D02*
X-186165D01*
Y-299181D01*
X-186038Y-300149D01*
X-185664Y-301050D01*
X-185070Y-301824D01*
X-184296Y-302419D01*
X-183394Y-302792D01*
X-182426Y-302920D01*
X-174912D01*
Y-292061D01*
D02*
G37*
G36*
X-285464Y-299395D02*
X-285964D01*
Y-302934D01*
X-281057D01*
X-281080Y-302760D01*
X-281534Y-301665D01*
X-282255Y-300725D01*
X-283195Y-300004D01*
X-284290Y-299550D01*
X-285464Y-299395D01*
D02*
G37*
G36*
X-316253D02*
X-316753D01*
Y-302934D01*
X-311845D01*
X-311869Y-302760D01*
X-312322Y-301665D01*
X-313043Y-300725D01*
X-313983Y-300004D01*
X-315078Y-299550D01*
X-316253Y-299395D01*
D02*
G37*
G36*
X-347041D02*
X-347541D01*
Y-302934D01*
X-342634D01*
X-342657Y-302760D01*
X-343110Y-301665D01*
X-343832Y-300725D01*
X-344772Y-300004D01*
X-345866Y-299550D01*
X-347041Y-299395D01*
D02*
G37*
G36*
X-287964D02*
X-288464D01*
X-289639Y-299550D01*
X-290734Y-300004D01*
X-291674Y-300725D01*
X-292395Y-301665D01*
X-292848Y-302760D01*
X-292871Y-302934D01*
X-287964D01*
Y-299395D01*
D02*
G37*
G36*
X-318753D02*
X-319253D01*
X-320427Y-299550D01*
X-321522Y-300004D01*
X-322462Y-300725D01*
X-323183Y-301665D01*
X-323637Y-302760D01*
X-323660Y-302934D01*
X-318753D01*
Y-299395D01*
D02*
G37*
G36*
X-349541D02*
X-350041D01*
X-351216Y-299550D01*
X-352311Y-300004D01*
X-353251Y-300725D01*
X-353972Y-301665D01*
X-354425Y-302760D01*
X-354448Y-302934D01*
X-349541D01*
Y-299395D01*
D02*
G37*
G36*
X-97677Y-301057D02*
X-98858D01*
Y-304108D01*
X-97677D01*
Y-301057D01*
D02*
G37*
G36*
X-100858D02*
X-102039D01*
Y-304108D01*
X-100858D01*
Y-301057D01*
D02*
G37*
G36*
X-102677Y-296006D02*
X-107039D01*
Y-304108D01*
X-102677D01*
Y-296006D01*
D02*
G37*
G36*
X-107677D02*
X-112039D01*
Y-304108D01*
X-107677D01*
Y-296006D01*
D02*
G37*
G36*
X-96742Y-253152D02*
X-97787Y-253290D01*
X-98760Y-253693D01*
X-99595Y-254334D01*
X-100236Y-255170D01*
X-100639Y-256143D01*
X-100777Y-257187D01*
Y-260187D01*
X-100639Y-261231D01*
X-100236Y-262204D01*
X-99595Y-263040D01*
X-98782Y-263664D01*
Y-264189D01*
X-99711D01*
Y-271689D01*
X-98782D01*
Y-276192D01*
X-102645Y-280056D01*
X-113900D01*
X-114680Y-280211D01*
X-115342Y-280654D01*
X-121300Y-286612D01*
X-121742Y-287273D01*
X-121897Y-288054D01*
Y-296006D01*
X-122039D01*
Y-304108D01*
X-117677D01*
Y-296006D01*
X-117819D01*
Y-288898D01*
X-113055Y-284135D01*
X-101801D01*
X-101020Y-283979D01*
X-100359Y-283537D01*
X-95301Y-278479D01*
X-94858Y-277818D01*
X-94703Y-277037D01*
Y-271689D01*
X-93774D01*
Y-264189D01*
X-94703D01*
Y-263664D01*
X-93889Y-263040D01*
X-93248Y-262204D01*
X-92845Y-261231D01*
X-92708Y-260187D01*
Y-257187D01*
X-92845Y-256143D01*
X-93248Y-255170D01*
X-93889Y-254334D01*
X-94725Y-253693D01*
X-95698Y-253290D01*
X-96742Y-253152D01*
D02*
G37*
G36*
X-70104Y-219555D02*
X-76041D01*
Y-226642D01*
X-76042D01*
Y-234142D01*
X-75321D01*
X-75199Y-234642D01*
X-76485Y-235928D01*
X-78878D01*
X-79658Y-236083D01*
X-80320Y-236525D01*
X-82441Y-238646D01*
X-82883Y-239308D01*
X-83038Y-240088D01*
Y-301299D01*
X-86718Y-304978D01*
X-111895D01*
X-112397Y-304476D01*
X-112677Y-304108D01*
X-112677D01*
X-112677Y-304108D01*
Y-296006D01*
X-117039D01*
Y-304108D01*
X-117039D01*
X-116959Y-304439D01*
X-117237Y-304954D01*
X-117384Y-304978D01*
X-121895D01*
X-122397Y-304476D01*
X-122677Y-304108D01*
X-122677D01*
X-122677Y-304108D01*
Y-296006D01*
X-127039D01*
Y-304108D01*
X-126897D01*
Y-304899D01*
X-126742Y-305679D01*
X-126300Y-306341D01*
X-124181Y-308459D01*
X-123520Y-308902D01*
X-122739Y-309057D01*
X-117826D01*
X-115424Y-311459D01*
X-114762Y-311901D01*
X-113982Y-312057D01*
X-84630D01*
X-83850Y-311901D01*
X-83188Y-311459D01*
X-78033Y-306304D01*
X-75640D01*
X-74860Y-306149D01*
X-74198Y-305707D01*
X-71631Y-303140D01*
X-71189Y-302478D01*
X-71034Y-301698D01*
Y-300440D01*
X-70105D01*
Y-293353D01*
X-70104D01*
Y-285853D01*
X-76041D01*
Y-292940D01*
X-76042D01*
Y-300440D01*
X-75321D01*
X-75199Y-300940D01*
X-76485Y-302226D01*
X-78473D01*
X-78890Y-302155D01*
X-78960Y-301738D01*
Y-240933D01*
X-78033Y-240006D01*
X-75640D01*
X-74860Y-239851D01*
X-74198Y-239409D01*
X-71631Y-236842D01*
X-71189Y-236180D01*
X-71034Y-235400D01*
Y-234142D01*
X-70105D01*
Y-227055D01*
X-70104D01*
Y-219555D01*
D02*
G37*
G36*
X-281057Y-304934D02*
X-285964D01*
Y-308473D01*
X-285464D01*
X-284290Y-308318D01*
X-283195Y-307865D01*
X-282255Y-307144D01*
X-281534Y-306204D01*
X-281080Y-305109D01*
X-281057Y-304934D01*
D02*
G37*
G36*
X-287964D02*
X-292871D01*
X-292848Y-305109D01*
X-292395Y-306204D01*
X-291674Y-307144D01*
X-290734Y-307865D01*
X-289639Y-308318D01*
X-288464Y-308473D01*
X-287964D01*
Y-304934D01*
D02*
G37*
G36*
X-311845D02*
X-316753D01*
Y-308473D01*
X-316253D01*
X-315078Y-308318D01*
X-313983Y-307865D01*
X-313043Y-307144D01*
X-312322Y-306204D01*
X-311869Y-305109D01*
X-311845Y-304934D01*
D02*
G37*
G36*
X-318753D02*
X-323660D01*
X-323637Y-305109D01*
X-323183Y-306204D01*
X-322462Y-307144D01*
X-321522Y-307865D01*
X-320427Y-308318D01*
X-319253Y-308473D01*
X-318753D01*
Y-304934D01*
D02*
G37*
G36*
X-342634D02*
X-347541D01*
Y-308473D01*
X-347041D01*
X-345866Y-308318D01*
X-344772Y-307865D01*
X-343832Y-307144D01*
X-343110Y-306204D01*
X-342657Y-305109D01*
X-342634Y-304934D01*
D02*
G37*
G36*
X-349541D02*
X-354448D01*
X-354425Y-305109D01*
X-353972Y-306204D01*
X-353251Y-307144D01*
X-352311Y-307865D01*
X-351216Y-308318D01*
X-350041Y-308473D01*
X-349541D01*
Y-304934D01*
D02*
G37*
G36*
X-133942Y-309348D02*
X-136692D01*
Y-311317D01*
X-133942D01*
Y-309348D01*
D02*
G37*
G36*
X-145779D02*
X-148529D01*
Y-311317D01*
X-145779D01*
Y-309348D01*
D02*
G37*
G36*
X-133942Y-313317D02*
X-136692D01*
Y-315285D01*
X-133942D01*
Y-313317D01*
D02*
G37*
G36*
X-138692Y-309348D02*
X-143779D01*
Y-312317D01*
Y-315285D01*
X-138692D01*
Y-312317D01*
Y-309348D01*
D02*
G37*
G36*
X-145779Y-313317D02*
X-148529D01*
Y-315285D01*
X-145779D01*
Y-313317D01*
D02*
G37*
G36*
X-180412Y-313835D02*
Y-318742D01*
X-176874D01*
Y-318242D01*
X-177028Y-317067D01*
X-177482Y-315972D01*
X-178203Y-315033D01*
X-179143Y-314311D01*
X-180238Y-313858D01*
X-180412Y-313835D01*
D02*
G37*
G36*
X-182412D02*
X-182587Y-313858D01*
X-183682Y-314311D01*
X-184622Y-315033D01*
X-185343Y-315972D01*
X-185797Y-317067D01*
X-185951Y-318242D01*
Y-318742D01*
X-182412D01*
Y-313835D01*
D02*
G37*
G36*
X-97677Y-317266D02*
X-102039D01*
Y-325368D01*
X-97677D01*
Y-317266D01*
D02*
G37*
G36*
X-102677D02*
X-107039D01*
Y-325368D01*
X-102677D01*
Y-317266D01*
D02*
G37*
G36*
X-107677D02*
X-112039D01*
Y-325368D01*
X-107677D01*
Y-317266D01*
D02*
G37*
G36*
X-112677D02*
X-117039D01*
Y-325368D01*
X-112677D01*
Y-317266D01*
D02*
G37*
G36*
X-117677D02*
X-122039D01*
Y-325368D01*
X-117677D01*
Y-317266D01*
D02*
G37*
G36*
X-176874Y-320742D02*
X-180412D01*
Y-325649D01*
X-180238Y-325626D01*
X-179143Y-325173D01*
X-178203Y-324451D01*
X-177482Y-323511D01*
X-177028Y-322417D01*
X-176874Y-321242D01*
Y-320742D01*
D02*
G37*
G36*
X-182412D02*
X-185951D01*
Y-321242D01*
X-185797Y-322417D01*
X-185343Y-323511D01*
X-184622Y-324451D01*
X-183682Y-325173D01*
X-182587Y-325626D01*
X-182412Y-325649D01*
Y-320742D01*
D02*
G37*
G36*
X-288526Y-328985D02*
X-292526D01*
Y-333513D01*
X-288526D01*
Y-328985D01*
D02*
G37*
G36*
X-294526D02*
X-298526D01*
Y-333513D01*
X-294526D01*
Y-328985D01*
D02*
G37*
G36*
X-288526Y-335513D02*
X-292526D01*
Y-340040D01*
X-288526D01*
Y-335513D01*
D02*
G37*
G36*
X-294526D02*
X-298526D01*
Y-340040D01*
X-294526D01*
Y-335513D01*
D02*
G37*
G36*
X7519Y-332230D02*
Y-344002D01*
X19291D01*
X19211Y-342991D01*
X18741Y-341031D01*
X17969Y-339168D01*
X16915Y-337448D01*
X15606Y-335915D01*
X14073Y-334605D01*
X12353Y-333552D01*
X10490Y-332780D01*
X8529Y-332309D01*
X7519Y-332230D01*
D02*
G37*
G36*
X5519D02*
X4509Y-332309D01*
X2548Y-332780D01*
X685Y-333552D01*
X-1034Y-334605D01*
X-2568Y-335915D01*
X-3877Y-337448D01*
X-4931Y-339168D01*
X-5703Y-341031D01*
X-6173Y-342991D01*
X-6253Y-344002D01*
X5519D01*
Y-332230D01*
D02*
G37*
G36*
X-386182D02*
Y-344002D01*
X-374410D01*
X-374489Y-342991D01*
X-374960Y-341031D01*
X-375732Y-339168D01*
X-376785Y-337448D01*
X-378095Y-335915D01*
X-379628Y-334605D01*
X-381348Y-333552D01*
X-383211Y-332780D01*
X-385172Y-332309D01*
X-386182Y-332230D01*
D02*
G37*
G36*
X-388182D02*
X-389192Y-332309D01*
X-391153Y-332780D01*
X-393016Y-333552D01*
X-394735Y-334605D01*
X-396269Y-335915D01*
X-397578Y-337448D01*
X-398632Y-339168D01*
X-399403Y-341031D01*
X-399874Y-342991D01*
X-399954Y-344002D01*
X-388182D01*
Y-332230D01*
D02*
G37*
G36*
X-375078Y-308057D02*
X-386920D01*
Y-319899D01*
X-375078D01*
Y-318012D01*
X-370767D01*
X-363726Y-325053D01*
Y-335193D01*
X-363727Y-335193D01*
X-363589Y-336237D01*
X-363186Y-337210D01*
X-362545Y-338046D01*
X-352702Y-347888D01*
X-351867Y-348529D01*
X-350894Y-348932D01*
X-349850Y-349070D01*
X-331073D01*
X-330291Y-350090D01*
X-329177Y-350944D01*
X-327880Y-351481D01*
X-326489Y-351664D01*
X-325097Y-351481D01*
X-323800Y-350944D01*
X-322687Y-350090D01*
X-321832Y-348976D01*
X-321738Y-348747D01*
X-311240D01*
X-311145Y-348976D01*
X-310291Y-350090D01*
X-309177Y-350944D01*
X-307880Y-351481D01*
X-306489Y-351664D01*
X-305097Y-351481D01*
X-303800Y-350944D01*
X-302687Y-350090D01*
X-301832Y-348976D01*
X-301295Y-347679D01*
X-301112Y-346288D01*
Y-343138D01*
X-301295Y-341746D01*
X-301832Y-340450D01*
X-302687Y-339336D01*
X-303800Y-338482D01*
X-305097Y-337945D01*
X-306489Y-337761D01*
X-307880Y-337945D01*
X-309177Y-338482D01*
X-310291Y-339336D01*
X-311145Y-340450D01*
X-311240Y-340678D01*
X-321738D01*
X-321832Y-340450D01*
X-322687Y-339336D01*
X-323800Y-338482D01*
X-325097Y-337945D01*
X-326489Y-337761D01*
X-327880Y-337945D01*
X-329177Y-338482D01*
X-330291Y-339336D01*
X-331145Y-340450D01*
X-331373Y-341001D01*
X-348178D01*
X-355658Y-333522D01*
Y-323382D01*
X-355795Y-322337D01*
X-356198Y-321364D01*
X-356839Y-320529D01*
X-366243Y-311125D01*
X-367078Y-310484D01*
X-368052Y-310081D01*
X-369096Y-309943D01*
X-369096Y-309943D01*
X-375078D01*
Y-308057D01*
D02*
G37*
G36*
X-288526Y-349385D02*
X-292526D01*
Y-353913D01*
X-288526D01*
Y-349385D01*
D02*
G37*
G36*
X-294526D02*
X-298526D01*
Y-353913D01*
X-294526D01*
Y-349385D01*
D02*
G37*
G36*
X19291Y-346002D02*
X7519D01*
Y-357774D01*
X8529Y-357694D01*
X10490Y-357224D01*
X12353Y-356452D01*
X14073Y-355398D01*
X15606Y-354088D01*
X16915Y-352555D01*
X17969Y-350836D01*
X18741Y-348973D01*
X19211Y-347012D01*
X19291Y-346002D01*
D02*
G37*
G36*
X5519D02*
X-6253D01*
X-6173Y-347012D01*
X-5703Y-348973D01*
X-4931Y-350836D01*
X-3877Y-352555D01*
X-2568Y-354088D01*
X-1034Y-355398D01*
X685Y-356452D01*
X2548Y-357224D01*
X4509Y-357694D01*
X5519Y-357774D01*
Y-346002D01*
D02*
G37*
G36*
X-374410D02*
X-386182D01*
Y-357774D01*
X-385172Y-357694D01*
X-383211Y-357224D01*
X-381348Y-356452D01*
X-379628Y-355398D01*
X-378095Y-354088D01*
X-376785Y-352555D01*
X-375732Y-350836D01*
X-374960Y-348973D01*
X-374489Y-347012D01*
X-374410Y-346002D01*
D02*
G37*
G36*
X-388182D02*
X-399954D01*
X-399874Y-347012D01*
X-399403Y-348973D01*
X-398632Y-350836D01*
X-397578Y-352555D01*
X-396269Y-354088D01*
X-394735Y-355398D01*
X-393016Y-356452D01*
X-391153Y-357224D01*
X-389192Y-357694D01*
X-388182Y-357774D01*
Y-346002D01*
D02*
G37*
G36*
X-288526Y-355913D02*
X-292526D01*
Y-360440D01*
X-288526D01*
Y-355913D01*
D02*
G37*
G36*
X-294526D02*
X-298526D01*
Y-360440D01*
X-294526D01*
Y-355913D01*
D02*
G37*
%LPD*%
G36*
X-295484Y38349D02*
X-295424Y38009D01*
X-295324Y37709D01*
X-295184Y37449D01*
X-295004Y37229D01*
X-294784Y37049D01*
X-294524Y36909D01*
X-294224Y36809D01*
X-293884Y36749D01*
X-293504Y36729D01*
Y34729D01*
X-293884Y34709D01*
X-294224Y34649D01*
X-294524Y34549D01*
X-294784Y34409D01*
X-295004Y34229D01*
X-295184Y34009D01*
X-295324Y33749D01*
X-295424Y33449D01*
X-295484Y33109D01*
X-295504Y32729D01*
X-297504Y35729D01*
X-295504Y38729D01*
X-295484Y38349D01*
D02*
G37*
G36*
X-305484D02*
X-305424Y38009D01*
X-305324Y37709D01*
X-305184Y37449D01*
X-305004Y37229D01*
X-304784Y37049D01*
X-304524Y36909D01*
X-304224Y36809D01*
X-303884Y36749D01*
X-303504Y36729D01*
Y34729D01*
X-303884Y34709D01*
X-304224Y34649D01*
X-304524Y34549D01*
X-304784Y34409D01*
X-305004Y34229D01*
X-305184Y34009D01*
X-305324Y33749D01*
X-305424Y33449D01*
X-305484Y33109D01*
X-305504Y32729D01*
X-307504Y35729D01*
X-305504Y38729D01*
X-305484Y38349D01*
D02*
G37*
G36*
X-340484Y4766D02*
X-340424Y4426D01*
X-340324Y4126D01*
X-340184Y3866D01*
X-340004Y3646D01*
X-339784Y3466D01*
X-339524Y3326D01*
X-339224Y3226D01*
X-338884Y3166D01*
X-338504Y3146D01*
Y1146D01*
X-338884Y1126D01*
X-339224Y1066D01*
X-339524Y966D01*
X-339784Y826D01*
X-340004Y646D01*
X-340184Y426D01*
X-340324Y166D01*
X-340424Y-134D01*
X-340484Y-474D01*
X-340504Y-854D01*
X-342504Y2146D01*
X-340504Y5146D01*
X-340484Y4766D01*
D02*
G37*
G36*
X-268984Y4110D02*
X-268924Y3770D01*
X-268824Y3470D01*
X-268684Y3210D01*
X-268504Y2990D01*
X-268284Y2810D01*
X-268024Y2670D01*
X-267724Y2569D01*
X-267384Y2510D01*
X-267004Y2489D01*
Y490D01*
X-267384Y470D01*
X-267724Y410D01*
X-268024Y310D01*
X-268284Y170D01*
X-268504Y-10D01*
X-268684Y-230D01*
X-268824Y-490D01*
X-268924Y-790D01*
X-268984Y-1130D01*
X-269004Y-1510D01*
X-271004Y1490D01*
X-269004Y4490D01*
X-268984Y4110D01*
D02*
G37*
G36*
X-304984Y-29549D02*
X-304924Y-29889D01*
X-304824Y-30189D01*
X-304684Y-30449D01*
X-304504Y-30669D01*
X-304284Y-30849D01*
X-304024Y-30989D01*
X-303724Y-31089D01*
X-303384Y-31149D01*
X-303004Y-31169D01*
Y-33169D01*
X-303384Y-33189D01*
X-303724Y-33249D01*
X-304024Y-33349D01*
X-304284Y-33489D01*
X-304504Y-33669D01*
X-304684Y-33889D01*
X-304824Y-34149D01*
X-304924Y-34449D01*
X-304984Y-34789D01*
X-305004Y-35169D01*
X-307004Y-32169D01*
X-305004Y-29169D01*
X-304984Y-29549D01*
D02*
G37*
D10*
X-264504Y2146D02*
D03*
X-255504D02*
D03*
X-301004Y35729D02*
D03*
X-292004D02*
D03*
X-301004Y-32169D02*
D03*
X-292004D02*
D03*
X-336004Y2146D02*
D03*
X-327004D02*
D03*
X-119321Y-92027D02*
D03*
X-110321D02*
D03*
X-98140Y-75098D02*
D03*
X-89140D02*
D03*
Y-82184D02*
D03*
X-98140D02*
D03*
X-9000Y0D02*
D03*
X0D02*
D03*
X-126632Y-92027D02*
D03*
X-135632D02*
D03*
X-96183Y5021D02*
D03*
X-87183D02*
D03*
X-151301D02*
D03*
X-142301D02*
D03*
X-388433Y-59011D02*
D03*
X-379433D02*
D03*
X-135632Y-84940D02*
D03*
X-126632D02*
D03*
X-73073Y-223305D02*
D03*
X-64073D02*
D03*
X-64073Y-230392D02*
D03*
X-73073D02*
D03*
X-73073Y-289603D02*
D03*
X-64073D02*
D03*
X-64073Y-296690D02*
D03*
X-73073D02*
D03*
X-9000Y7087D02*
D03*
X0D02*
D03*
X-367941Y-214210D02*
D03*
X-376941D02*
D03*
X-367941Y-229958D02*
D03*
X-376941D02*
D03*
X-367941Y-245706D02*
D03*
X-376941D02*
D03*
X-123900Y-267939D02*
D03*
X-114900D02*
D03*
X-96742D02*
D03*
X-87742D02*
D03*
X-123900Y-215892D02*
D03*
X-114900D02*
D03*
X-96742D02*
D03*
X-87742D02*
D03*
D11*
X-114321Y-128641D02*
D03*
X-119321D02*
D03*
X-124321D02*
D03*
X-129321D02*
D03*
X-114321Y-106397D02*
D03*
X-119321D02*
D03*
X-124321D02*
D03*
X-129321D02*
D03*
D12*
X-98140Y-128641D02*
D03*
X-93140D02*
D03*
X-88140D02*
D03*
X-83140D02*
D03*
X-78140D02*
D03*
X-73140D02*
D03*
X-68140D02*
D03*
X-63140D02*
D03*
X-58140D02*
D03*
X-53140D02*
D03*
X-48140D02*
D03*
X-43140D02*
D03*
Y-92027D02*
D03*
X-48140D02*
D03*
X-53140D02*
D03*
X-58140D02*
D03*
X-63140D02*
D03*
X-68140D02*
D03*
X-73140D02*
D03*
X-78140D02*
D03*
X-83140D02*
D03*
X-88140D02*
D03*
X-93140D02*
D03*
X-98140D02*
D03*
D13*
X-81683Y-55105D02*
D03*
Y-42105D02*
D03*
X-382132Y-169838D02*
D03*
Y-182838D02*
D03*
D14*
X-148072Y-38105D02*
D03*
Y-47106D02*
D03*
X-144779Y-321317D02*
D03*
Y-312317D02*
D03*
X-137692Y-321317D02*
D03*
Y-312317D02*
D03*
D15*
X-91683Y15847D02*
D03*
X-86683D02*
D03*
X-56683Y37107D02*
D03*
Y15847D02*
D03*
X-61683D02*
D03*
X-66683D02*
D03*
X-71683D02*
D03*
X-76683D02*
D03*
X-81683D02*
D03*
X-61683Y37107D02*
D03*
X-66683D02*
D03*
X-71683D02*
D03*
X-76683D02*
D03*
X-81683D02*
D03*
X-86683D02*
D03*
X-91683D02*
D03*
X-146801Y15847D02*
D03*
X-141801D02*
D03*
X-111801Y37107D02*
D03*
Y15847D02*
D03*
X-116801D02*
D03*
X-121801D02*
D03*
X-126801D02*
D03*
X-131801D02*
D03*
X-136801D02*
D03*
X-116801Y37107D02*
D03*
X-121801D02*
D03*
X-126801D02*
D03*
X-131801D02*
D03*
X-136801D02*
D03*
X-141801D02*
D03*
X-146801D02*
D03*
X-99858Y-321317D02*
D03*
X-104858D02*
D03*
X-109858D02*
D03*
X-114858D02*
D03*
X-119858D02*
D03*
X-124858D02*
D03*
X-129858D02*
D03*
X-99858Y-300057D02*
D03*
X-104858D02*
D03*
X-109858D02*
D03*
X-114858D02*
D03*
X-119858D02*
D03*
X-124858D02*
D03*
X-129858D02*
D03*
D16*
X-5574Y-230465D02*
D03*
Y-212465D02*
D03*
Y-296763D02*
D03*
Y-278763D02*
D03*
D17*
X-144779Y-282065D02*
D03*
X-144779Y-300057D02*
D03*
D18*
X-173912Y-291061D02*
D03*
D19*
X-28416Y-287713D02*
D03*
Y-221415D02*
D03*
D20*
X-53809Y-278737D02*
D03*
Y-296690D02*
D03*
Y-212439D02*
D03*
Y-230392D02*
D03*
D21*
X-383268Y-245706D02*
D03*
X-391142D02*
D03*
X-383268Y-214210D02*
D03*
X-391142D02*
D03*
X-383268Y-229958D02*
D03*
X-391142D02*
D03*
D22*
X-388433Y-69838D02*
D03*
X-370432D02*
D03*
X-293526Y-354913D02*
D03*
X-275526D02*
D03*
X-293526Y-334513D02*
D03*
X-275526D02*
D03*
D23*
X-73073Y-296690D02*
X-73073Y-296689D01*
Y-289603D01*
X-382143Y-188895D02*
Y-182838D01*
X-201484Y-89211D02*
X-187484Y-75211D01*
X-200241Y-92211D02*
X-184484Y-76453D01*
X-198999Y-95211D02*
X-181484Y-77696D01*
X-328004Y49555D02*
X-322047Y55512D01*
X-300335D01*
X-296504Y51681D01*
X-292673Y55512D01*
X-262461D01*
X-256504Y49555D01*
X-255504Y2146D02*
Y10299D01*
X-256504Y11299D02*
X-255504Y10299D01*
X-256504Y11299D02*
Y49555D01*
X-328004Y11299D02*
Y49555D01*
Y11299D02*
X-327004Y10299D01*
Y2146D02*
Y10299D01*
X-296504Y35729D02*
Y51681D01*
Y4704D02*
Y35729D01*
X-292004D01*
X-293367Y-53687D02*
X-280533D01*
X-303367Y-56687D02*
X-281775D01*
X-325849Y-59687D02*
X-283018D01*
X-296004Y-51050D02*
X-293367Y-53687D01*
X-306004Y-54050D02*
X-303367Y-56687D01*
X-341504Y-44032D02*
X-325849Y-59687D01*
X-296504Y4704D02*
X-293004Y1204D01*
X-292004Y-32169D02*
Y-24016D01*
X-293004Y-23016D02*
X-292004Y-24016D01*
X-293004Y-23016D02*
Y1204D01*
X-296004Y-51050D02*
Y-38D01*
X-306504Y35729D02*
Y48229D01*
Y23229D02*
Y35729D01*
X-301004D01*
X-270004Y1490D02*
Y13990D01*
Y-11011D02*
Y1490D01*
X-264504D01*
X-306004Y-32169D02*
Y-19669D01*
Y-44669D02*
Y-32169D01*
X-300504D01*
X-306504Y10462D02*
X-296004Y-38D01*
X-341504Y2146D02*
Y14646D01*
Y-10354D02*
Y2146D01*
X-336004D01*
X-136742Y-297766D02*
Y-276365D01*
X-139033Y-300057D02*
X-136742Y-297766D01*
X-144779Y-300057D02*
X-139033D01*
X-142650Y-270457D02*
X-136742Y-276365D01*
X-119858Y-288054D02*
X-113900Y-282096D01*
X-119858Y-300057D02*
Y-288054D01*
X-113900Y-282096D02*
X-101801D01*
X-123900Y-271931D02*
Y-267939D01*
X-129858Y-277890D02*
X-123900Y-271931D01*
X-129858Y-300057D02*
Y-277890D01*
X-142650Y-270457D02*
Y-254720D01*
X-87742Y-267939D02*
X-87742Y-267939D01*
X-87742Y-267939D02*
Y-254991D01*
X-138199Y-250270D02*
X-114900D01*
X-142650Y-254720D02*
X-138199Y-250270D01*
X-114900Y-267939D02*
Y-250270D01*
X-92463D01*
X-87742Y-254991D01*
X-3317Y-68995D02*
Y-55058D01*
X-16797Y-82475D02*
X-3317Y-68995D01*
X-54199Y-82475D02*
X-16797D01*
X-6317Y-67752D02*
Y-53815D01*
X-56199Y-79475D02*
X-18040D01*
X-6317Y-67752D01*
X-19283Y-76475D02*
X-9317Y-66510D01*
X-12317Y-65267D02*
Y-51330D01*
X-20525Y-73475D02*
X-12317Y-65267D01*
X-15317Y-64025D02*
Y-50087D01*
X-21768Y-70475D02*
X-15317Y-64025D01*
X1741Y-50000D02*
X9280D01*
X-3317Y-45058D02*
X1741Y-40000D01*
X9280D01*
X-3317Y-35058D02*
X1741Y-30000D01*
X9280D01*
X-3317Y-25058D02*
X1741Y-20000D01*
X9280D01*
X-3317Y-15058D02*
X1741Y-10000D01*
X9280D01*
X-3317Y-50815D02*
Y-45058D01*
Y-40815D02*
Y-35058D01*
X-6317Y-43815D02*
X-3317Y-40815D01*
X-6317Y-49573D02*
Y-43815D01*
X-3317Y-30815D02*
Y-25058D01*
X-6317Y-33815D02*
X-3317Y-30815D01*
X-6317Y-39573D02*
Y-33815D01*
X-9317Y-42573D02*
X-6317Y-39573D01*
X-9317Y-48330D02*
Y-42573D01*
X-12317Y-51330D02*
X-9317Y-48330D01*
X-3317Y-20816D02*
Y-15058D01*
X-6317Y-23816D02*
X-3317Y-20816D01*
X-6317Y-29573D02*
Y-23816D01*
X-9317Y-32573D02*
X-6317Y-29573D01*
X-9317Y-38330D02*
Y-32573D01*
X-12317Y-41330D02*
X-9317Y-38330D01*
X-12317Y-47087D02*
Y-41330D01*
X-15317Y-50087D02*
X-12317Y-47087D01*
X-3317Y-55058D02*
X1741Y-50000D01*
X-6317Y-53815D02*
X-3317Y-50815D01*
X-9317Y-66510D02*
Y-52573D01*
X-6317Y-49573D01*
X-64216Y-109107D02*
X-11248D01*
X-4016Y-116338D02*
X9280D01*
X-11248Y-109107D02*
X-4016Y-116338D01*
X-12490Y-112107D02*
X1741Y-126338D01*
X-62216Y-112107D02*
X-12490D01*
X-13733Y-115107D02*
X-3317Y-125523D01*
X-60216Y-115107D02*
X-13733D01*
X-58216Y-118107D02*
X-14976D01*
X-6317Y-126765D01*
X-16218Y-121107D02*
X-9317Y-128008D01*
X-56216Y-121107D02*
X-16218D01*
X-9317Y-133765D02*
Y-128008D01*
Y-133765D02*
X-6317Y-136765D01*
Y-142523D02*
Y-136765D01*
Y-142523D02*
X-3317Y-145523D01*
Y-151280D02*
Y-145523D01*
X-6317Y-132523D02*
Y-126765D01*
Y-132523D02*
X-3317Y-135523D01*
Y-141280D02*
Y-135523D01*
Y-131280D02*
Y-125523D01*
X1741Y-156338D02*
X9280D01*
X-3317Y-151280D02*
X1741Y-156338D01*
Y-146338D02*
X9280D01*
X-3317Y-141280D02*
X1741Y-146338D01*
Y-136338D02*
X9280D01*
X-3317Y-131280D02*
X1741Y-136338D01*
Y-126338D02*
X9280D01*
X-209923Y-156149D02*
X-198516Y-167556D01*
X-217608Y-156149D02*
X-209923D01*
X-198516Y-174337D02*
Y-167556D01*
Y-174337D02*
X-195393Y-177460D01*
X-140514D01*
X-196636Y-180460D02*
X-141757D01*
X-201517Y-175579D02*
X-196636Y-180460D01*
X-211166Y-159149D02*
X-201517Y-168798D01*
Y-175579D02*
Y-168798D01*
X-220608Y-159149D02*
X-217608Y-156149D01*
X-226365Y-159149D02*
X-220608D01*
X-229748Y-169838D02*
Y-162532D01*
X-226365Y-159149D01*
X-219747Y-162532D02*
X-216365Y-159149D01*
X-219747Y-169838D02*
Y-162532D01*
X-216365Y-159149D02*
X-211166D01*
X-140514Y-177460D02*
X-136030Y-181944D01*
X-141757Y-180460D02*
X-139030Y-183187D01*
Y-199929D02*
Y-183187D01*
X-132924Y-206035D02*
X-117681D01*
X-139030Y-199929D02*
X-132924Y-206035D01*
X-131681Y-203035D02*
X-116439D01*
X-136030Y-198687D02*
X-131681Y-203035D01*
X-136030Y-198687D02*
Y-181944D01*
X-113439Y-206035D02*
X-90524D01*
X-116439Y-203035D02*
X-113439Y-206035D01*
X-117681D02*
X-114872Y-208844D01*
Y-215891D02*
Y-208844D01*
X-90524Y-206035D02*
X-87715Y-208844D01*
Y-215891D02*
Y-208844D01*
X-281920Y-140277D02*
X-191932Y-140277D01*
X-321538Y-140277D02*
X-281920D01*
X-339748Y-158486D02*
X-321538Y-140277D01*
X-339748Y-169838D02*
Y-158486D01*
X-191932Y-140277D02*
X-178846Y-127191D01*
X-152635D01*
X-148955Y-123511D01*
Y-115931D01*
X-140038Y-115499D02*
X-100949D01*
X-142955Y-118416D02*
X-140038Y-115499D01*
X-142955Y-129165D02*
Y-118416D01*
X-146981Y-133191D02*
X-142955Y-129165D01*
X-176210Y-133191D02*
X-146981D01*
X-189596Y-146576D02*
X-176210Y-133191D01*
X-148224Y-130191D02*
X-145955Y-127922D01*
X-177452Y-130191D02*
X-148224D01*
X-190838Y-143577D02*
X-177452Y-130191D01*
X-148955Y-115931D02*
X-143337Y-110313D01*
Y-94783D01*
X-140581Y-92027D01*
X-135632D01*
X-100949Y-115499D02*
X-86945Y-101495D01*
X-52530D01*
X-102191Y-112499D02*
X-88188Y-98495D01*
X-141280Y-112499D02*
X-102191D01*
X-145955Y-117174D02*
X-141280Y-112499D01*
X-48140Y-97105D02*
Y-92027D01*
X-52530Y-101495D02*
X-48140Y-97105D01*
X-53140Y-97105D02*
Y-92027D01*
X-54530Y-98495D02*
X-53140Y-97105D01*
X-88188Y-98495D02*
X-54530D01*
X-58140Y-123030D02*
X-56216Y-121107D01*
X-58140Y-128641D02*
Y-123030D01*
X-78140D02*
X-64216Y-109107D01*
X-73140Y-123030D02*
X-62216Y-112107D01*
X-68140Y-123030D02*
X-60216Y-115107D01*
X-63140Y-123030D02*
X-58216Y-118107D01*
X-186894Y-153099D02*
X-173508Y-139714D01*
X-145955Y-127922D02*
Y-117174D01*
X-289748Y-158486D02*
X-274838Y-143577D01*
X-261704D01*
X-289748Y-169838D02*
Y-158486D01*
X-279748D02*
X-267838Y-146577D01*
X-260462D01*
X-279748Y-169838D02*
Y-158486D01*
X-269747D02*
X-261162Y-149901D01*
X-259085D01*
X-269747Y-169838D02*
Y-158486D01*
X-254361Y-153099D02*
X-186894Y-153099D01*
X-259748Y-169838D02*
Y-158486D01*
X-254361Y-153099D01*
X-261704Y-143577D02*
X-190838Y-143577D01*
X-260462Y-146577D02*
X-189596Y-146576D01*
X-259085Y-149901D02*
X-188219Y-149901D01*
X-174833Y-136515D01*
X-173508Y-139714D02*
X-49016Y-139714D01*
X-174833Y-136515D02*
X-50542Y-136515D01*
X-48140Y-134113D01*
Y-128641D01*
X-43140Y-133838D02*
Y-128641D01*
X-49016Y-139714D02*
X-43140Y-133838D01*
X-134057Y-99113D02*
X-131920D01*
X-135632Y-97539D02*
X-134057Y-99113D01*
X-135632Y-97539D02*
Y-92027D01*
X-129321Y-106397D02*
Y-101712D01*
X-131920Y-99113D02*
X-129321Y-101712D01*
X-135632Y-92027D02*
Y-84940D01*
X-124321Y-106397D02*
Y-100806D01*
X-126632Y-98495D02*
X-124321Y-100806D01*
X-126632Y-98495D02*
Y-92027D01*
Y-84940D01*
X-119321Y-106397D02*
Y-92027D01*
X-110321D02*
X-98140D01*
Y-82184D02*
Y-75098D01*
Y-92027D02*
Y-82184D01*
X-62199Y-70475D02*
X-21768D01*
X-78140Y-86416D02*
X-62199Y-70475D01*
X-60199Y-73475D02*
X-20525D01*
X-73140Y-86416D02*
X-60199Y-73475D01*
X-58199Y-76475D02*
X-19283D01*
X-68140Y-86416D02*
X-58199Y-76475D01*
X-63140Y-86416D02*
X-56199Y-79475D01*
X-78140Y-92027D02*
Y-86416D01*
X-73140Y-92027D02*
Y-86416D01*
X-68140Y-92027D02*
Y-86416D01*
X-63140Y-92027D02*
Y-86416D01*
X-58140Y-92027D02*
Y-86416D01*
X-54199Y-82475D01*
X-78140Y-128641D02*
Y-123030D01*
X-73140Y-128641D02*
Y-123030D01*
X-68140Y-128641D02*
Y-123030D01*
X-63140Y-128641D02*
Y-123030D01*
X-61683Y15847D02*
Y24997D01*
X-116801Y15847D02*
Y24997D01*
X-187484Y-75211D02*
Y-43602D01*
X-64073Y-296690D02*
X-53809D01*
X-64073Y-230392D02*
X-53809D01*
X-73073D02*
X-73073Y-230392D01*
Y-223305D01*
X-80999Y-240088D02*
X-78878Y-237967D01*
X-80999Y-302144D02*
Y-240088D01*
X-85873Y-307017D02*
X-80999Y-302144D01*
X-78878Y-237967D02*
X-75640D01*
X-73073Y-235400D01*
Y-230392D01*
Y-301698D02*
Y-296690D01*
X-75640Y-304265D02*
X-73073Y-301698D01*
X-78878Y-304265D02*
X-75640D01*
X-84630Y-310017D02*
X-78878Y-304265D01*
X-113982Y-310017D02*
X-84630D01*
X-116982Y-307017D02*
X-113982Y-310017D01*
X-122739Y-307017D02*
X-116982D01*
X-124858Y-304899D02*
Y-300057D01*
Y-304899D02*
X-122739Y-307017D01*
X-112739D02*
X-85873D01*
X-114858Y-304899D02*
X-112739Y-307017D01*
X-114858Y-304899D02*
Y-300057D01*
X-96742Y-228687D02*
Y-215892D01*
X-123900Y-228687D02*
Y-215892D01*
X-101801Y-282096D02*
X-96742Y-277037D01*
Y-267939D01*
Y-258687D01*
X-123900Y-267939D02*
Y-258687D01*
X-341504Y-44032D02*
Y-10354D01*
X-269747Y-69838D02*
Y-62957D01*
X-263018Y-59687D02*
X-259748Y-62957D01*
Y-69838D02*
Y-62957D01*
X-253018Y-59687D02*
X-249747Y-62957D01*
Y-69838D02*
Y-62957D01*
X-306004Y-54050D02*
Y-44669D01*
X-306504Y10462D02*
Y23229D01*
X-268775Y-59687D02*
X-263018D01*
X-271775Y-56687D02*
X-268775Y-59687D01*
X-277533Y-56687D02*
X-271775D01*
X-281775D02*
X-278775Y-59687D01*
X-283018D02*
X-279748Y-62957D01*
Y-69838D02*
Y-62957D01*
X-278775Y-59687D02*
X-273018D01*
X-269747Y-62957D01*
X-280533Y-53687D02*
X-277533Y-56687D01*
X-258775Y-59687D02*
X-253018D01*
X-261775Y-56687D02*
X-258775Y-59687D01*
X-270004Y-54216D02*
Y-11011D01*
Y-54216D02*
X-267533Y-56687D01*
X-261775D01*
X-383268Y-245706D02*
X-376941D01*
X-383268Y-229958D02*
X-376941D01*
X-383268Y-214210D02*
X-376941D01*
X-289748Y-83711D02*
Y-69838D01*
Y-83711D02*
X-284247Y-89211D01*
X-306499Y-79196D02*
X-302748D01*
X-309748Y-75947D02*
X-306499Y-79196D01*
X-309748Y-75947D02*
Y-69838D01*
X-286733Y-95211D02*
X-279748D01*
X-302748Y-79196D02*
X-286733Y-95211D01*
X-299747Y-77953D02*
X-285490Y-92211D01*
X-299747Y-77953D02*
Y-69838D01*
X-285490Y-92211D02*
X-200241Y-92211D01*
X-284247Y-89211D02*
X-279748D01*
Y-95211D02*
X-198999Y-95211D01*
X-279748Y-89211D02*
X-201484Y-89211D01*
X-184484Y-76453D02*
Y-44844D01*
X-181484Y-77696D02*
Y-46087D01*
X-179245Y-39605D02*
X-154844D01*
X-86683Y37107D02*
Y55355D01*
X-86742Y55414D02*
X-86683Y55355D01*
X-66742Y49012D02*
Y55414D01*
X-76742Y48067D02*
Y55414D01*
X-81683Y43126D02*
X-76742Y48067D01*
X-81683Y37107D02*
Y43126D01*
X-96742Y48305D02*
Y55414D01*
Y48305D02*
X-91683Y43246D01*
Y37107D02*
Y43246D01*
X-71683Y37107D02*
Y42496D01*
X-76683Y37107D02*
Y42614D01*
X-71683Y42496D02*
X-70679Y43501D01*
X-67529D01*
X-64380Y46650D01*
X-76683Y42614D02*
X-72254Y47044D01*
X-68710D01*
X-66742Y49012D01*
X-56742Y48776D02*
Y55414D01*
X-58868Y46650D02*
X-56742Y48776D01*
X-64380Y46650D02*
X-58868D01*
X-116801Y37107D02*
Y55355D01*
X-116742Y55414D01*
X-121801Y37107D02*
Y43126D01*
X-126742Y48067D02*
X-121801Y43126D01*
X-126742Y48067D02*
Y55414D01*
X-148072Y45863D02*
X-145860Y43650D01*
X-146742Y48776D02*
Y55414D01*
Y48776D02*
X-144617Y46650D01*
X-153750Y45863D02*
X-148072D01*
X-156742Y48856D02*
X-153750Y45863D01*
X-156742Y48856D02*
Y55414D01*
X-136742Y49722D02*
Y55414D01*
X-144617Y46650D02*
X-137914D01*
X-135307Y44044D01*
X-145860Y43650D02*
X-139156D01*
X-136801Y41296D01*
Y37107D02*
Y41296D01*
X-135307Y44044D02*
X-133820D01*
X-131801Y42025D01*
Y37107D02*
Y42025D01*
X-126801Y37107D02*
Y42537D01*
X-136742Y49722D02*
X-134458Y47438D01*
X-131702D01*
X-126801Y42537D01*
X-166742Y35478D02*
Y55414D01*
X-146801Y32961D02*
Y37107D01*
X-176742Y37753D02*
Y55414D01*
Y37753D02*
X-172647Y33658D01*
X-169166D01*
X-136801Y10786D02*
Y15847D01*
Y10786D02*
X-135114Y9099D01*
X-129279D01*
X-126801Y10865D02*
Y15847D01*
X-66683Y10107D02*
X-59655Y3079D01*
X-66683Y10107D02*
Y15847D01*
X-71683Y10865D02*
X-62655Y1836D01*
X-71683Y10865D02*
Y15847D01*
X-111801D02*
X-111773Y15819D01*
X-114773Y-37093D02*
Y3079D01*
X-120285Y-42605D02*
X-114773Y-37093D01*
X-117773Y-35851D02*
Y1836D01*
X-121528Y-39605D02*
X-117773Y-35851D01*
X-120773Y-34608D02*
Y594D01*
X-122770Y-36605D02*
X-120773Y-34608D01*
X-133460Y-36605D02*
X-122770D01*
X-136395Y-39605D02*
X-121528D01*
X-136960Y-33105D02*
X-133460Y-36605D01*
X-154143Y-42605D02*
X-120285D01*
X-154844Y-39605D02*
X-153344Y-38105D01*
X-152586Y-33105D02*
X-136960D01*
X-156086Y-36605D02*
X-152586Y-33105D01*
X-153344Y-38105D02*
X-148072D01*
X-137895D01*
X-136395Y-39605D01*
X-129279Y9099D02*
X-120773Y594D01*
X-126801Y10865D02*
X-117773Y1836D01*
X-121801Y10107D02*
X-114773Y3079D01*
X-121801Y10107D02*
Y15847D01*
X-81683Y7402D02*
Y15847D01*
X-84064Y5021D02*
X-81683Y7402D01*
X-87183Y5021D02*
X-84064D01*
X-111801Y8348D02*
Y15847D01*
Y8348D02*
X-108474Y5021D01*
X-96183D01*
X-141938Y15711D02*
X-141801Y15847D01*
X-141938Y10426D02*
Y15711D01*
X-142301Y10063D02*
X-141938Y10426D01*
X-142301Y5021D02*
Y10063D01*
X-141801Y32961D02*
Y37107D01*
X-106742Y33811D02*
Y55414D01*
X-141801Y32961D02*
X-139739Y30898D01*
X-109655D01*
X-106742Y33811D01*
X-169166Y33658D02*
X-163098Y27591D01*
X-166742Y35478D02*
X-162163Y30898D01*
X-148864D01*
X-146801Y32961D01*
X-163098Y27591D02*
X-153591D01*
X-151301Y25301D01*
Y5021D02*
Y25301D01*
X-61683Y32961D02*
X-59621Y30898D01*
X-61683Y32961D02*
Y37107D01*
X-46742Y34756D02*
Y55414D01*
X-50600Y30898D02*
X-46742Y34756D01*
X-59621Y30898D02*
X-50600D01*
X-59655Y-38787D02*
Y3079D01*
X-70974Y-50106D02*
X-59655Y-38787D01*
X-62655Y-37544D02*
Y1836D01*
X-72216Y-47106D02*
X-62655Y-37544D01*
X-148072Y-47106D02*
X-72216D01*
X-180487Y-36605D02*
X-156086D01*
X-137417Y-50106D02*
X-70974D01*
X-139090Y-51779D02*
X-137417Y-50106D01*
X-154143D02*
Y-42605D01*
Y-50106D02*
X-152470Y-51779D01*
X-139090D01*
X-187484Y-43602D02*
X-180487Y-36605D01*
X-184484Y-44844D02*
X-179245Y-39605D01*
X-181484Y-46087D02*
X-178002Y-42605D01*
X-154143D01*
X-372239Y-220427D02*
X-367914Y-224752D01*
X-383656Y-203757D02*
X-380900Y-206513D01*
X-375327D01*
X-372239Y-209601D01*
Y-220427D02*
Y-209601D01*
X-383656Y-203757D02*
Y-191625D01*
X-387617Y-187664D02*
X-383656Y-191625D01*
X-387617Y-187664D02*
Y-176337D01*
X-367914Y-229958D02*
Y-224752D01*
X-380656Y-202427D02*
Y-190382D01*
X-382143Y-188895D02*
X-380656Y-190382D01*
X-367914Y-214210D02*
Y-209657D01*
X-374058Y-203513D02*
X-367914Y-209657D01*
X-379570Y-203513D02*
X-374058D01*
X-380656Y-202427D02*
X-379570Y-203513D01*
D24*
X-236320Y-5806D02*
X-146801D01*
X-244272Y2146D02*
X-236320Y-5806D01*
X-255504Y2146D02*
X-244272D01*
X-148440Y-321317D02*
X-144779D01*
X-153046Y-316710D02*
X-148440Y-321317D01*
X-153046Y-316710D02*
Y-302537D01*
X-150566Y-300057D01*
X-144779D01*
X-135574Y-329437D02*
X-131915D01*
X-137692Y-327319D02*
X-135574Y-329437D01*
X-137692Y-327319D02*
Y-321317D01*
X-129858Y-327381D02*
Y-321317D01*
X-131915Y-329437D02*
X-129858Y-327381D01*
X-144779Y-321317D02*
X-137692D01*
X-388433Y-69838D02*
Y-59251D01*
X-388361Y-59180D01*
Y-54766D01*
X-384932Y-51338D01*
X-364433D01*
X-359897Y-46803D01*
Y-38838D01*
D25*
X-370432Y-69838D02*
X-359748D01*
X-349850Y-345035D02*
X-326811D01*
X-359692Y-335193D02*
X-349850Y-345035D01*
X-359692Y-335193D02*
Y-323382D01*
X-369096Y-313978D02*
X-359692Y-323382D01*
X-326811Y-345035D02*
X-326489Y-344713D01*
X-380999Y-313978D02*
X-369096D01*
X-326489Y-344713D02*
X-306489D01*
D26*
X-262424Y-351838D02*
Y-344713D01*
X5836Y-276887D02*
X17426D01*
Y-213167D01*
Y-305316D02*
Y-276887D01*
X14848Y-210589D02*
X17426Y-213167D01*
X8765Y-313978D02*
X17426Y-305316D01*
X-5574Y-278763D02*
Y-267426D01*
X5836Y-276887D02*
Y-267482D01*
X-5574Y-267426D02*
X-2653Y-264504D01*
X2859D01*
X5836Y-267482D01*
X-5451Y-296886D02*
X5836D01*
X-5574Y-296763D02*
X-5451Y-296886D01*
X-28416Y-287713D02*
X-8971D01*
X-5574Y-291110D01*
Y-296763D02*
Y-291110D01*
X2859Y-198206D02*
X5836Y-201184D01*
X-2653Y-198206D02*
X2859D01*
X-5574Y-201128D02*
X-2653Y-198206D01*
X5836Y-210589D02*
Y-201184D01*
X-5574Y-212465D02*
Y-201128D01*
Y-230465D02*
Y-224812D01*
X-8971Y-221415D02*
X-5574Y-224812D01*
X-28416Y-221415D02*
X-8971D01*
X-5574Y-230465D02*
X-5451Y-230589D01*
X5836D01*
X-158558Y-316710D02*
Y-289939D01*
X-161590Y-319742D02*
X-158558Y-316710D01*
X-166412Y-319742D02*
X-161590D01*
X-150625Y-282006D02*
X-144838D01*
X-158558Y-289939D02*
X-150625Y-282006D01*
X-144838D02*
X-144779Y-282065D01*
X-166412Y-335608D02*
Y-319742D01*
Y-335608D02*
X-33947D01*
X-214788D02*
X-166412D01*
X-286964Y-288934D02*
Y-281363D01*
X5836Y-210589D02*
X14848D01*
X-12317Y-313978D02*
X8765D01*
X-33947Y-335608D02*
X-12317Y-313978D01*
X-240794Y-309602D02*
X-214788Y-335608D01*
X-240794Y-309602D02*
Y-292395D01*
X-325630Y-196206D02*
X-205318D01*
X-192188D01*
X-399320Y-171128D02*
Y-40262D01*
X-389227Y-30169D01*
X-373785D01*
X-369734Y-34220D01*
Y-38669D02*
Y-34220D01*
X-286964Y-281363D02*
X-280558Y-274956D01*
X-374671Y-196206D02*
X-360891D01*
X-275526Y-334513D02*
X-265527D01*
X-262463Y-337577D01*
Y-344713D02*
Y-337577D01*
X-265488Y-354903D02*
X-262424Y-351838D01*
X-275487Y-354903D02*
X-265488D01*
X-242463Y-344713D02*
Y-329679D01*
X-286964Y-288934D02*
X-264649D01*
X-262463Y-344713D02*
X-262424D01*
X-242463D01*
X-317753Y-288934D02*
X-286964D01*
X-348541D02*
X-317753D01*
X-360891Y-210409D02*
X-348541Y-222759D01*
X-360891Y-210409D02*
Y-196206D01*
X-367941Y-245706D02*
X-348541D01*
Y-288934D02*
Y-245706D01*
Y-222759D01*
X-280558Y-274956D02*
X-258233D01*
X-240794Y-292395D01*
X-255361Y-316781D02*
X-242463Y-329679D01*
X-255361Y-316781D02*
Y-298222D01*
X-264649Y-288934D02*
X-255361Y-298222D01*
D27*
X-13937Y15197D02*
X4162D01*
X-18110Y11024D02*
X-13937Y15197D01*
X-18110Y7087D02*
Y11024D01*
X-22118Y3079D02*
X-18110Y7087D01*
X-29643Y3079D02*
X-22118D01*
X0Y0D02*
Y7087D01*
X9280Y0D02*
Y10079D01*
X4162Y15197D02*
X9280Y10079D01*
X18868Y-103052D02*
Y-94528D01*
X11642Y-87302D02*
X18868Y-94528D01*
X11642Y-87302D02*
Y-74507D01*
X18868Y-67281D02*
Y-3286D01*
X11642Y-74507D02*
X18868Y-67281D01*
X-36742Y10178D02*
X-29643Y3079D01*
X15582Y-106338D02*
X18868Y-103052D01*
X9280Y-106338D02*
X15582D01*
X-5287Y-102913D02*
X-1863Y-106338D01*
X-48998Y-102913D02*
X-5287D01*
X-51080Y-104995D02*
X-48998Y-102913D01*
X-83077Y-104995D02*
X-51080D01*
X-98140Y-120058D02*
X-83077Y-104995D01*
X-1863Y-106338D02*
X9280D01*
Y0D02*
X15582D01*
X18868Y-3286D01*
X0Y0D02*
X9280D01*
X-140370Y-65058D02*
X-69518D01*
X-198749Y-123437D02*
X-140370Y-65058D01*
X-69518D02*
X-45443Y-40983D01*
X-126486Y-120058D02*
X-98140D01*
X-129321Y-122893D02*
X-126486Y-120058D01*
X-129321Y-128641D02*
Y-122893D01*
X-98140Y-128641D02*
Y-120058D01*
X-45443Y-40983D02*
Y1477D01*
X-36742Y10178D02*
Y19981D01*
X-45443Y1477D02*
X-36742Y10178D01*
X-355650Y-123437D02*
X-198749D01*
X-359748Y-127535D02*
X-355650Y-123437D01*
X-359748Y-138342D02*
Y-127535D01*
X-61683Y24997D02*
X-50084D01*
X-36742Y19981D02*
Y35729D01*
Y55414D01*
X-146801Y-5806D02*
Y15847D01*
Y-21554D02*
Y-5806D01*
X-91683Y-21554D02*
Y-5806D01*
Y15847D01*
X-146801Y21315D02*
X-143120Y24997D01*
X-146801Y15847D02*
Y21315D01*
X-143120Y24997D02*
X-116801D01*
X-91683D01*
Y15847D02*
Y24997D01*
X-61683D01*
X-359748Y-154090D02*
Y-138342D01*
Y-169838D02*
Y-154090D01*
X-50084Y24997D02*
X-45068Y19981D01*
X-36742D01*
X-382171Y-169838D02*
X-382132D01*
X-359748D01*
D28*
X-335068Y-186767D02*
X-325630Y-196206D01*
X-387617Y-176337D02*
X-375459D01*
X-365029Y-186767D01*
X-335068D01*
X-394110Y-176337D02*
X-387617D01*
X-399320Y-171128D02*
X-394110Y-176337D01*
D29*
X9280Y-106338D02*
D03*
Y-126338D02*
D03*
Y-156338D02*
D03*
Y-146338D02*
D03*
Y-136338D02*
D03*
Y-116338D02*
D03*
Y0D02*
D03*
Y-20000D02*
D03*
Y-50000D02*
D03*
Y-40000D02*
D03*
Y-30000D02*
D03*
Y-10000D02*
D03*
D30*
Y-166338D02*
D03*
Y-60000D02*
D03*
D31*
X-166412Y-319742D02*
D03*
X-146801Y-5806D02*
D03*
X-91683D02*
D03*
X-36742Y35729D02*
D03*
X-359748Y-154090D02*
D03*
D32*
X-181412Y-319742D02*
D03*
X-136801Y-5806D02*
D03*
X-81683D02*
D03*
X-26742Y35729D02*
D03*
X-369747Y-154090D02*
D03*
D33*
X-286504Y23229D02*
D03*
X-306504Y48229D02*
D03*
X-286504D02*
D03*
X-306504Y23229D02*
D03*
X-286504Y-44669D02*
D03*
X-306504Y-19669D02*
D03*
X-286504D02*
D03*
X-306504Y-44669D02*
D03*
X-321504Y-10354D02*
D03*
X-341504Y14646D02*
D03*
X-321504D02*
D03*
X-341504Y-10354D02*
D03*
X-250004D02*
D03*
X-270004Y14646D02*
D03*
X-250004D02*
D03*
X-270004Y-10354D02*
D03*
D34*
X-369740Y-38598D02*
D03*
X-359897D02*
D03*
D35*
X-23396Y-169389D02*
D03*
X-180089D02*
D03*
X5836Y-276887D02*
D03*
Y-210589D02*
D03*
X-380999Y-293978D02*
D03*
D36*
X5836Y-296886D02*
D03*
Y-230589D02*
D03*
X-380999Y-313978D02*
D03*
D37*
X-374671Y-196206D02*
D03*
X-389671D02*
D03*
X-131801Y-21554D02*
D03*
X-146801D02*
D03*
X-76683D02*
D03*
X-91683D02*
D03*
X-21742Y19981D02*
D03*
X-36742D02*
D03*
X-192266Y-196206D02*
D03*
Y-211206D02*
D03*
X-359748Y-138342D02*
D03*
X-374747D02*
D03*
D38*
X-317753Y-288934D02*
D03*
X-348541D02*
D03*
X-286964D02*
D03*
D39*
X-317753Y-303934D02*
D03*
X-348541D02*
D03*
X-286964D02*
D03*
D40*
X-360891Y-196206D02*
D03*
D41*
Y-263710D02*
D03*
X-205395D02*
D03*
Y-196206D02*
D03*
D42*
X-342143Y-198458D02*
D03*
X-224143Y-261458D02*
D03*
D43*
X-219747Y-69838D02*
D03*
D44*
X-229748D02*
D03*
X-239748D02*
D03*
X-249747D02*
D03*
X-259748D02*
D03*
X-269747D02*
D03*
X-279748D02*
D03*
X-289748D02*
D03*
X-299747D02*
D03*
X-309748D02*
D03*
X-319747D02*
D03*
X-329748D02*
D03*
X-339748D02*
D03*
X-349747D02*
D03*
X-359748D02*
D03*
X-219747Y-169838D02*
D03*
X-229748D02*
D03*
X-239748D02*
D03*
X-249747D02*
D03*
X-259748D02*
D03*
X-269747D02*
D03*
X-279748D02*
D03*
X-289748D02*
D03*
X-299747D02*
D03*
X-309748D02*
D03*
X-319747D02*
D03*
X-329748D02*
D03*
X-339748D02*
D03*
X-349747D02*
D03*
X-359748D02*
D03*
D45*
X-262463Y-344713D02*
D03*
X-242463D02*
D03*
X-306489D02*
D03*
X-326489D02*
D03*
D46*
X-96742Y-228687D02*
D03*
X-123900D02*
D03*
D47*
X-106742D02*
D03*
Y-258687D02*
D03*
X-96742D02*
D03*
X-133900Y-228687D02*
D03*
Y-258687D02*
D03*
X-123900D02*
D03*
D48*
X-136742Y55414D02*
D03*
X-116742D02*
D03*
X-96742D02*
D03*
X-76742D02*
D03*
X-56742D02*
D03*
X-46742D02*
D03*
X-36742D02*
D03*
X-66742D02*
D03*
X-86742D02*
D03*
X-106742D02*
D03*
X-126742D02*
D03*
X-146742D02*
D03*
X-156742D02*
D03*
X-176742D02*
D03*
X-166742D02*
D03*
D49*
X-26742D02*
D03*
D50*
X-387182Y-345002D02*
D03*
X6519D02*
D03*
Y48699D02*
D03*
X-387182D02*
D03*
M02*
